{
.appVersion = "1291";
DisplayStrings = (
"/uniFD3E HA/uniFD3F"
);
classes = (
{
code = "a o e E A Y L six two b p m w j q x y n z D s r H i one V three N l d t g k h four eight five v F seven B c f u T";
name = letters;
},
{
code = "a.case o.case e.case E.case A.case Y.case L.case six.case two.case b.case p.case m.case w.case j.case q.case x.case y.case n.case z.case D.case s.case r.case H.case i.case one.case V.case three.case N.case l.case d.case t.case g.case k.case h.case four.case eight.case five.case v.case F.case seven.case B.case c.case f.case u.case T.case";
name = letters.case;
},
{
code = "period exclam question";
name = Punctuations;
},
{
automatic = 1;

glyphs = (
{
glyphname = a;
lastChange = "2020-09-09 07:39:11 +0000";
layers = (
{
layerId = "FB938A0F-794B-4CBD-9B18-13182D479D81";
paths = (
{
closed = 1;
nodes = (
"504 357 LINE SMOOTH",
"504 489 OFFCURVE",
"434 554 OFFCURVE",
"264 554 CURVE SMOOTH",
"203 554 OFFCURVE",
"120 539 OFFCURVE",
"53 512 CURVE",
"96 386 LINE",
"149 404 OFFCURVE",
"203 414 OFFCURVE",
"234 414 CURVE SMOOTH",
"293 414 OFFCURVE",
"311 400 OFFCURVE",
"311 346 CURVE SMOOTH",
"311 333 LINE",
"273 333 LINE SMOOTH",
"105 333 OFFCURVE",
"15 268 OFFCURVE",
"15 150 CURVE SMOOTH",
"15 51 OFFCURVE",
"84 -20 OFFCURVE",
"191 -20 CURVE SMOOTH",
"252 -20 OFFCURVE",
"313 -1 OFFCURVE",
"352 58 CURVE",
"382 7 OFFCURVE",
"427 -11 OFFCURVE",
"496 -16 CURVE",
"536 111 LINE",
"512 120 OFFCURVE",
"504 135 OFFCURVE",
"504 173 CURVE SMOOTH"
);
},
{
closed = 1;
nodes = (
"225 119 OFFCURVE",
"208 139 OFFCURVE",
"208 169 CURVE SMOOTH",
"208 211 OFFCURVE",
"234 230 OFFCURVE",
"290 230 CURVE SMOOTH",
"311 230 LINE",
"311 151 LINE",
"298 133 OFFCURVE",
"277 119 OFFCURVE",
"252 119 CURVE SMOOTH"
);
}
);
width = 551;
},
{
layerId = "D8724204-5FB7-4143-B54F-478BABD83301";
paths = (
{
closed = 1;
nodes = (
"410 372 LINE SMOOTH",
"410 474 OFFCURVE",
"365 529 OFFCURVE",
"255 529 CURVE SMOOTH",
"205 529 OFFCURVE",
"158 517 OFFCURVE",
"105 495 CURVE",
"112 476 LINE",
"163 497 OFFCURVE",
"209 509 OFFCURVE",
"255 509 CURVE SMOOTH",
"355 509 OFFCURVE",
"388 460 OFFCURVE",
"388 370 CURVE SMOOTH",
"388 308 LINE",
"270 308 LINE SMOOTH",
"147 308 OFFCURVE",
"66 250 OFFCURVE",
"66 144 CURVE SMOOTH",
"66 52 OFFCURVE",
"124 -10 OFFCURVE",
"222 -10 CURVE SMOOTH",
"299 -10 OFFCURVE",
"354 25 OFFCURVE",
"391 91 CURVE",
"392 29 OFFCURVE",
"410 3 OFFCURVE",
"451 -10 CURVE",
"457 6 LINE",
"423 18 OFFCURVE",
"410 41 OFFCURVE",
"410 110 CURVE SMOOTH"
);
},
{
closed = 1;
nodes = (
"140 11 OFFCURVE",
"90 62 OFFCURVE",
"90 144 CURVE SMOOTH",
"90 239 OFFCURVE",
"160 288 OFFCURVE",
"274 288 CURVE SMOOTH",
"388 288 LINE",
"388 119 LINE",
"354 52 OFFCURVE",
"303 11 OFFCURVE",
"222 11 CURVE SMOOTH"
);
}
);
width = 528;
}
);
leftKerningGroup = a;
note = a;
rightKerningGroup = a;
unicode = 0061;
},
{
glyphname = o;
lastChange = "2020-09-09 07:39:12 +0000";
layers = (
{
layerId = "FB938A0F-794B-4CBD-9B18-13182D479D81";
paths = (
{
closed = 1;
nodes = (
"122 554 OFFCURVE",
"17 442 OFFCURVE",
"17 268 CURVE SMOOTH",
"17 82 OFFCURVE",
"124 -20 OFFCURVE",
"292 -20 CURVE SMOOTH",
"462 -20 OFFCURVE",
"567 92 OFFCURVE",
"567 266 CURVE SMOOTH",
"567 452 OFFCURVE",
"460 554 OFFCURVE",
"292 554 CURVE SMOOTH"
);
},
{
closed = 1;
nodes = (
"342 412 OFFCURVE",
"364 372 OFFCURVE",
"364 266 CURVE SMOOTH",
"364 165 OFFCURVE",
"342 122 OFFCURVE",
"292 122 CURVE SMOOTH",
"242 122 OFFCURVE",
"220 162 OFFCURVE",
"220 268 CURVE SMOOTH",
"220 369 OFFCURVE",
"242 412 OFFCURVE",
"292 412 CURVE SMOOTH"
);
}
);
width = 584;
},
{
layerId = "D8724204-5FB7-4143-B54F-478BABD83301";
paths = (
{
closed = 1;
nodes = (
"156 529 OFFCURVE",
"73 431 OFFCURVE",
"73 259 CURVE SMOOTH",
"73 91 OFFCURVE",
"151 -10 OFFCURVE",
"280 -10 CURVE SMOOTH",
"406 -10 OFFCURVE",
"488 89 OFFCURVE",
"488 262 CURVE SMOOTH",
"488 434 OFFCURVE",
"408 529 OFFCURVE",
"281 529 CURVE SMOOTH"
);
},
{
closed = 1;
nodes = (
"396 509 OFFCURVE",
"465 421 OFFCURVE",
"465 262 CURVE SMOOTH",
"465 99 OFFCURVE",
"393 11 OFFCURVE",
"280 11 CURVE SMOOTH",
"165 11 OFFCURVE",
"96 101 OFFCURVE",
"96 259 CURVE SMOOTH",
"96 422 OFFCURVE",
"169 509 OFFCURVE",
"281 509 CURVE SMOOTH"
);
}
);
width = 560;
}
);
leftKerningGroup = uni0262;
note = o;
rightKerningGroup = uni01F6;
unicode = 006F;
},
{
glyphname = e;
lastChange = "2020-09-09 07:39:12 +0000";
layers = (
{
layerId = "FB938A0F-794B-4CBD-9B18-13182D479D81";
paths = (
{
closed = 1;
nodes = (
"545 453 OFFCURVE",
"441 554 OFFCURVE",
"283 554 CURVE SMOOTH",
"106 554 OFFCURVE",
"17 422 OFFCURVE",
"17 266 CURVE SMOOTH",
"17 101 OFFCURVE",
"109 -20 OFFCURVE",
"305 -20 CURVE SMOOTH",
"398 -20 OFFCURVE",
"472 16 OFFCURVE",
"525 59 CURVE",
"445 167 LINE",
"399 135 OFFCURVE",
"362 120 OFFCURVE",
"324 120 CURVE SMOOTH",
"266 120 OFFCURVE",
"228 134 OFFCURVE",
"217 211 CURVE",
"541 211 LINE",
"543 230 OFFCURVE",
"545 257 OFFCURVE",
"545 274 CURVE SMOOTH"
);
},
{
closed = 1;
nodes = (
"350 323 LINE",
"216 323 LINE",
"223 405 OFFCURVE",
"245 429 OFFCURVE",
"287 429 CURVE SMOOTH",
"338 429 OFFCURVE",
"349 384 OFFCURVE",
"350 330 CURVE SMOOTH"
);
}
);
width = 560;
},
{
layerId = "D8724204-5FB7-4143-B54F-478BABD83301";
paths = (
{
closed = 1;
nodes = (
"461 429 OFFCURVE",
"400 529 OFFCURVE",
"272 529 CURVE SMOOTH",
"152 529 OFFCURVE",
"73 426 OFFCURVE",
"73 255 CURVE SMOOTH",
"73 87 OFFCURVE",
"154 -10 OFFCURVE",
"280 -10 CURVE SMOOTH",
"347 -10 OFFCURVE",
"394 13 OFFCURVE",
"439 51 CURVE",
"427 68 LINE",
"382 31 OFFCURVE",
"342 11 OFFCURVE",
"280 11 CURVE SMOOTH",
"175 11 OFFCURVE",
"101 87 OFFCURVE",
"96 246 CURVE",
"459 246 LINE",
"460 257 OFFCURVE",
"461 270 OFFCURVE",
"461 284 CURVE SMOOTH"
);
},
{
closed = 1;
nodes = (
"439 265 LINE",
"96 265 LINE",
"99 430 OFFCURVE",
"175 509 OFFCURVE",
"274 509 CURVE SMOOTH",
"388 509 OFFCURVE",
"439 418 OFFCURVE",
"439 292 CURVE SMOOTH"
);
}
);
width = 526;
}
);
leftKerningGroup = uni0262;
note = e;
rightKerningGroup = uni01F6;
unicode = 0065;
},
{
glyphname = E;
lastChange = "2020-09-09 07:39:13 +0000";
layers = (
{
layerId = "FB938A0F-794B-4CBD-9B18-13182D479D81";
paths = (
{
closed = 1;
nodes = (
"128 554 OFFCURVE",
"35 498 OFFCURVE",
"35 406 CURVE SMOOTH",
"35 346 OFFCURVE",
"74 302 OFFCURVE",
"163 284 CURVE",
"63 272 OFFCURVE",
"15 225 OFFCURVE",
"15 147 CURVE SMOOTH",
"15 36 OFFCURVE",
"120 -20 OFFCURVE",
"258 -20 CURVE SMOOTH",
"356 -20 OFFCURVE",
"435 4 OFFCURVE",
"491 45 CURVE",
"411 153 LINE",
"361 126 OFFCURVE",
"327 116 OFFCURVE",
"291 116 CURVE SMOOTH",
"239 116 OFFCURVE",
"218 134 OFFCURVE",
"218 165 CURVE SMOOTH",
"218 192 OFFCURVE",
"236 212 OFFCURVE",
"283 212 CURVE SMOOTH",
"343 212 LINE",
"361 332 LINE",
"291 332 LINE SMOOTH",
"251 332 OFFCURVE",
"234 352 OFFCURVE",
"234 380 CURVE SMOOTH",
"234 407 OFFCURVE",
"258 422 OFFCURVE",
"290 422 CURVE SMOOTH",
"330 422 OFFCURVE",
"362 410 OFFCURVE",
"400 389 CURVE",
"477 487 LINE",
"415 534 OFFCURVE",
"343 554 OFFCURVE",
"262 554 CURVE SMOOTH"
);
}
);
width = 486;
},
{
layerId = "D8724204-5FB7-4143-B54F-478BABD83301";
paths = (
{
closed = 1;
nodes = (
"156 529 OFFCURVE",
"87 479 OFFCURVE",
"87 395 CURVE SMOOTH",
"87 331 OFFCURVE",
"126 288 OFFCURVE",
"203 274 CURVE",
"123 267 OFFCURVE",
"66 224 OFFCURVE",
"66 137 CURVE SMOOTH",
"66 45 OFFCURVE",
"141 -10 OFFCURVE",
"244 -10 CURVE SMOOTH",
"322 -10 OFFCURVE",
"370 16 OFFCURVE",
"411 52 CURVE",
"399 67 LINE",
"357 32 OFFCURVE",
"318 11 OFFCURVE",
"245 11 CURVE SMOOTH",
"152 11 OFFCURVE",
"88 57 OFFCURVE",
"88 137 CURVE SMOOTH",
"88 220 OFFCURVE",
"144 263 OFFCURVE",
"248 263 CURVE SMOOTH",
"306 263 LINE",
"309 283 LINE",
"251 283 LINE SMOOTH",
"161 283 OFFCURVE",
"109 332 OFFCURVE",
"109 395 CURVE SMOOTH",
"109 464 OFFCURVE",
"162 509 OFFCURVE",
"252 509 CURVE SMOOTH",
"310 509 OFFCURVE",
"351 493 OFFCURVE",
"387 468 CURVE",
"400 484 LINE",
"365 508 OFFCURVE",
"319 529 OFFCURVE",
"250 529 CURVE SMOOTH"
);
}
);
width = 444;
}
);
leftKerningGroup = uni025B;
note = uni025B;
rightKerningGroup = uni025B;
unicode = 0045;
},
{
glyphname = A;
lastChange = "2020-09-09 07:39:13 +0000";
layers = (
{
hints = (
{
horizontal = 1;
origin = "{0, 3}";
target = up;
type = BottomGhost;
},
{
horizontal = 1;
origin = "{1, 1}";
target = "{0, 0}";
type = Stem;
},
{
horizontal = 1;
origin = "{0, 2}";
target = down;
type = TopGhost;
}
);
layerId = "FB938A0F-794B-4CBD-9B18-13182D479D81";
paths = (
{
closed = 1;
nodes = (
"209 405 LINE",
"183 536 LINE",
"-15 536 LINE",
"171 -207 LINE",
"417 -207 LINE",
"602 536 LINE",
"401 536 LINE",
"374 405 LINE"
);
},
{
closed = 1;
nodes = (
"291 0 LINE",
"238 265 LINE",
"345 265 LINE"
);
}
);
width = 587;
},
{
hints = (
{
horizontal = 1;
origin = "{1, 0}";
target = "{0, 3}";
type = Stem;
},
{
horizontal = 1;
origin = "{0, 0}";
target = "{1, 1}";
type = Stem;
},
{
horizontal = 1;
origin = "{0, 2}";
target = down;
type = TopGhost;
}
);
layerId = "D8724204-5FB7-4143-B54F-478BABD83301";
paths = (
{
closed = 1;
nodes = (
"121 307 LINE",
"51 521 LINE",
"28 521 LINE",
"265 -192 LINE",
"292 -192 LINE",
"530 521 LINE",
"505 521 LINE",
"435 307 LINE"
);
},
{
closed = 1;
nodes = (
"278 -173 LINE",
"127 287 LINE",
"429 287 LINE"
);
}
);
width = 557;
}
);
leftKerningGroup = uni028F;
note = A;
rightKerningGroup = uni028F;
unicode = 0041;
},
{
glyphname = Y;
lastChange = "2020-09-09 07:39:13 +0000";
layers = (
{
layerId = "FB938A0F-794B-4CBD-9B18-13182D479D81";
paths = (
{
closed = 1;
nodes = (
"390 554 OFFCURVE",
"351 508 OFFCURVE",
"313 414 CURVE SMOOTH",
"291 359 LINE",
"269 414 LINE SMOOTH",
"231 508 OFFCURVE",
"192 554 OFFCURVE",
"102 554 CURVE SMOOTH",
"52 554 OFFCURVE",
"19 541 OFFCURVE",
"-15 522 CURVE",
"39 408 LINE",
"52 413 OFFCURVE",
"62 417 OFFCURVE",
"81 417 CURVE SMOOTH",
"103 417 OFFCURVE",
"116 409 OFFCURVE",
"130 382 CURVE SMOOTH",
"198 252 LINE",
"159 189 OFFCURVE",
"140 150 OFFCURVE",
"140 103 CURVE SMOOTH",
"140 34 OFFCURVE",
"189 -20 OFFCURVE",
"291 -20 CURVE SMOOTH",
"397 -20 OFFCURVE",
"442 35 OFFCURVE",
"442 103 CURVE SMOOTH",
"442 155 OFFCURVE",
"421 195 OFFCURVE",
"383 251 CURVE",
"452 382 LINE SMOOTH",
"466 408 OFFCURVE",
"480 417 OFFCURVE",
"501 417 CURVE SMOOTH",
"520 417 OFFCURVE",
"530 413 OFFCURVE",
"543 408 CURVE",
"597 522 LINE",
"563 541 OFFCURVE",
"530 554 OFFCURVE",
"480 554 CURVE SMOOTH"
);
},
{
closed = 1;
nodes = (
"313 97 OFFCURVE",
"305 90 OFFCURVE",
"291 90 CURVE SMOOTH",
"278 90 OFFCURVE",
"269 97 OFFCURVE",
"269 112 CURVE SMOOTH",
"269 130 OFFCURVE",
"280 146 OFFCURVE",
"291 167 CURVE",
"303 146 OFFCURVE",
"313 130 OFFCURVE",
"313 112 CURVE SMOOTH"
);
}
);
width = 582;
},
{
layerId = "D8724204-5FB7-4143-B54F-478BABD83301";
paths = (
{
closed = 1;
nodes = (
"403 529 OFFCURVE",
"381 507 OFFCURVE",
"358 455 CURVE SMOOTH",
"256 225 LINE",
"154 455 LINE SMOOTH",
"131 506 OFFCURVE",
"109 529 OFFCURVE",
"69 529 CURVE SMOOTH",
"43 529 OFFCURVE",
"23 518 OFFCURVE",
"6 504 CURVE",
"16 489 LINE",
"35 503 OFFCURVE",
"49 509 OFFCURVE",
"69 509 CURVE SMOOTH",
"95 509 OFFCURVE",
"112 495 OFFCURVE",
"131 455 CURVE SMOOTH",
"243 209 LINE",
"210 150 OFFCURVE",
"187 102 OFFCURVE",
"187 65 CURVE SMOOTH",
"187 21 OFFCURVE",
"213 -10 OFFCURVE",
"258 -10 CURVE SMOOTH",
"305 -10 OFFCURVE",
"329 24 OFFCURVE",
"329 65 CURVE SMOOTH",
"329 103 OFFCURVE",
"305 150 OFFCURVE",
"269 209 CURVE",
"381 455 LINE SMOOTH",
"399 495 OFFCURVE",
"417 509 OFFCURVE",
"442 509 CURVE SMOOTH",
"463 509 OFFCURVE",
"477 503 OFFCURVE",
"496 489 CURVE",
"505 504 LINE",
"489 518 OFFCURVE",
"469 529 OFFCURVE",
"442 529 CURVE SMOOTH"
);
},
{
closed = 1;
nodes = (
"307 33 OFFCURVE",
"292 10 OFFCURVE",
"258 10 CURVE SMOOTH",
"224 10 OFFCURVE",
"209 32 OFFCURVE",
"209 66 CURVE SMOOTH",
"209 100 OFFCURVE",
"226 135 OFFCURVE",
"256 191 CURVE",
"288 135 OFFCURVE",
"307 100 OFFCURVE",
"307 66 CURVE SMOOTH"
);
}
);
width = 512;
}
);
leftKerningGroup = uni028F;
note = uni0264;
rightKerningGroup = uni028F;
unicode = 0059;
},
{
glyphname = L;
lastChange = "2020-09-09 07:39:13 +0000";
layers = (
{
layerId = "FB938A0F-794B-4CBD-9B18-13182D479D81";
paths = (
{
closed = 1;
nodes = (
"20 534 LINE",
"20 380 LINE",
"224 380 LINE",
"224 162 LINE SMOOTH",
"224 146 OFFCURVE",
"216 137 OFFCURVE",
"200 137 CURVE SMOOTH",
"191 137 OFFCURVE",
"184 139 OFFCURVE",
"179 141 CURVE",
"144 0 LINE",
"170 -10 OFFCURVE",
"209 -18 OFFCURVE",
"254 -18 CURVE SMOOTH",
"362 -18 OFFCURVE",
"418 45 OFFCURVE",
"418 154 CURVE SMOOTH",
"418 380 LINE",
"482 380 LINE SMOOTH",
"522 380 OFFCURVE",
"537 361 OFFCURVE",
"537 314 CURVE SMOOTH",
"537 0 LINE",
"735 0 LINE",
"735 322 LINE SMOOTH",
"735 459 OFFCURVE",
"686 534 OFFCURVE",
"541 534 CURVE SMOOTH"
);
}
);
width = 770;
},
{
layerId = "D8724204-5FB7-4143-B54F-478BABD83301";
paths = (
{
closed = 1;
nodes = (
"43 519 LINE",
"43 499 LINE",
"248 499 LINE",
"248 73 LINE SMOOTH",
"248 32 OFFCURVE",
"231 11 OFFCURVE",
"197 11 CURVE SMOOTH",
"183 11 OFFCURVE",
"169 14 OFFCURVE",
"157 19 CURVE",
"151 0 LINE",
"164 -5 OFFCURVE",
"180 -10 OFFCURVE",
"198 -10 CURVE SMOOTH",
"241 -10 OFFCURVE",
"270 16 OFFCURVE",
"270 72 CURVE SMOOTH",
"270 499 LINE",
"487 499 LINE SMOOTH",
"585 499 OFFCURVE",
"604 458 OFFCURVE",
"604 360 CURVE SMOOTH",
"604 0 LINE",
"626 0 LINE",
"626 362 LINE SMOOTH",
"626 472 OFFCURVE",
"601 519 OFFCURVE",
"487 519 CURVE SMOOTH"
);
}
);
width = 726;
}
);
leftKerningGroup = uni0442;
note = uni05EA;
rightKerningGroup = uni02A9;
unicode = 004C;
},
{
glyphname = six;
lastChange = "2020-09-09 07:39:14 +0000";
layers = (
{
layerId = "FB938A0F-794B-4CBD-9B18-13182D479D81";
paths = (
{
closed = 1;
nodes = (
"312 360 OFFCURVE",
"257 341 OFFCURVE",
"218 307 CURVE",
"226 376 OFFCURVE",
"268 418 OFFCURVE",
"338 418 CURVE SMOOTH",
"377 418 OFFCURVE",
"405 409 OFFCURVE",
"428 393 CURVE",
"499 508 LINE",
"462 533 OFFCURVE",
"405 554 OFFCURVE",
"328 554 CURVE SMOOTH",
"120 554 OFFCURVE",
"29 409 OFFCURVE",
"29 234 CURVE SMOOTH",
"29 87 OFFCURVE",
"111 -20 OFFCURVE",
"292 -20 CURVE SMOOTH",
"462 -20 OFFCURVE",
"537 61 OFFCURVE",
"537 174 CURVE SMOOTH",
"537 285 OFFCURVE",
"475 360 OFFCURVE",
"363 360 CURVE SMOOTH"
);
},
{
closed = 1;
nodes = (
"252 111 OFFCURVE",
"227 132 OFFCURVE",
"220 191 CURVE",
"246 218 OFFCURVE",
"272 229 OFFCURVE",
"295 229 CURVE SMOOTH",
"339 229 OFFCURVE",
"354 198 OFFCURVE",
"354 168 CURVE SMOOTH",
"354 151 OFFCURVE",
"339 111 OFFCURVE",
"290 111 CURVE SMOOTH"
);
}
);
width = 560;
},
{
layerId = "D8724204-5FB7-4143-B54F-478BABD83301";
paths = (
{
closed = 1;
nodes = (
"189 346 OFFCURVE",
"133 290 OFFCURVE",
"95 225 CURVE",
"98 367 OFFCURVE",
"156 511 OFFCURVE",
"289 511 CURVE SMOOTH",
"336 511 OFFCURVE",
"365 499 OFFCURVE",
"396 477 CURVE",
"407 494 LINE",
"376 516 OFFCURVE",
"343 531 OFFCURVE",
"289 531 CURVE SMOOTH",
"144 531 OFFCURVE",
"73 387 OFFCURVE",
"73 208 CURVE SMOOTH",
"73 103 OFFCURVE",
"130 -10 OFFCURVE",
"268 -10 CURVE SMOOTH",
"383 -10 OFFCURVE",
"454 87 OFFCURVE",
"454 171 CURVE SMOOTH",
"454 283 OFFCURVE",
"374 346 OFFCURVE",
"275 346 CURVE SMOOTH"
);
},
{
closed = 1;
nodes = (
"152 11 OFFCURVE",
"100 101 OFFCURVE",
"95 192 CURVE",
"134 268 OFFCURVE",
"192 325 OFFCURVE",
"274 325 CURVE SMOOTH",
"363 325 OFFCURVE",
"431 269 OFFCURVE",
"431 171 CURVE SMOOTH",
"431 109 OFFCURVE",
"377 11 OFFCURVE",
"268 11 CURVE SMOOTH"
);
}
);
width = 528;
}
);
note = six.loclIWR.tf;
unicode = 0036;
},
{
glyphname = two;
lastChange = "2020-09-09 07:39:14 +0000";
layers = (
{
layerId = "FB938A0F-794B-4CBD-9B18-13182D479D81";
paths = (
{
closed = 1;
nodes = (
"15 81 OFFCURVE",
"119 -20 OFFCURVE",
"277 -20 CURVE SMOOTH",
"454 -20 OFFCURVE",
"543 112 OFFCURVE",
"543 268 CURVE SMOOTH",
"543 433 OFFCURVE",
"451 554 OFFCURVE",
"255 554 CURVE SMOOTH",
"162 554 OFFCURVE",
"88 518 OFFCURVE",
"35 475 CURVE",
"115 367 LINE",
"161 399 OFFCURVE",
"198 414 OFFCURVE",
"236 414 CURVE SMOOTH",
"294 414 OFFCURVE",
"332 400 OFFCURVE",
"343 323 CURVE",
"19 323 LINE",
"17 304 OFFCURVE",
"15 277 OFFCURVE",
"15 260 CURVE SMOOTH"
);
},
{
closed = 1;
nodes = (
"210 211 LINE",
"344 211 LINE",
"337 129 OFFCURVE",
"315 105 OFFCURVE",
"273 105 CURVE SMOOTH",
"222 105 OFFCURVE",
"210 150 OFFCURVE",
"210 204 CURVE SMOOTH"
);
}
);
width = 560;
},
{
layerId = "D8724204-5FB7-4143-B54F-478BABD83301";
paths = (
{
closed = 1;
nodes = (
"66 92 OFFCURVE",
"127 -8 OFFCURVE",
"255 -8 CURVE SMOOTH",
"375 -8 OFFCURVE",
"454 95 OFFCURVE",
"454 266 CURVE SMOOTH",
"454 434 OFFCURVE",
"373 531 OFFCURVE",
"247 531 CURVE SMOOTH",
"180 531 OFFCURVE",
"133 508 OFFCURVE",
"88 470 CURVE",
"100 453 LINE",
"145 490 OFFCURVE",
"185 510 OFFCURVE",
"247 510 CURVE SMOOTH",
"352 510 OFFCURVE",
"426 434 OFFCURVE",
"431 275 CURVE",
"68 275 LINE",
"67 264 OFFCURVE",
"66 251 OFFCURVE",
"66 237 CURVE SMOOTH"
);
},
{
closed = 1;
nodes = (
"88 256 LINE",
"431 256 LINE",
"428 91 OFFCURVE",
"352 12 OFFCURVE",
"253 12 CURVE SMOOTH",
"139 12 OFFCURVE",
"88 103 OFFCURVE",
"88 229 CURVE SMOOTH"
);
}
);
width = 527;
}
);
leftKerningGroup = uni0262;
note = uni0259;
rightKerningGroup = uni01F6;
unicode = 0032;
},
{
glyphname = b;
lastChange = "2020-09-09 07:39:15 +0000";
layers = (
{
layerId = "FB938A0F-794B-4CBD-9B18-13182D479D81";
paths = (
{
closed = 1;
nodes = (
"324 554 OFFCURVE",
"269 527 OFFCURVE",
"240 487 CURVE",
"240 764 LINE",
"42 744 LINE",
"42 0 LINE",
"218 0 LINE",
"225 46 LINE",
"256 5 OFFCURVE",
"304 -20 OFFCURVE",
"363 -20 CURVE SMOOTH",
"498 -20 OFFCURVE",
"577 103 OFFCURVE",
"577 266 CURVE SMOOTH",
"577 445 OFFCURVE",
"511 554 OFFCURVE",
"380 554 CURVE SMOOTH"
);
},
{
closed = 1;
nodes = (
"277 121 OFFCURVE",
"256 133 OFFCURVE",
"240 160 CURVE",
"240 362 LINE",
"261 398 OFFCURVE",
"286 412 OFFCURVE",
"310 412 CURVE SMOOTH",
"346 412 OFFCURVE",
"374 391 OFFCURVE",
"374 266 CURVE SMOOTH",
"374 154 OFFCURVE",
"345 121 OFFCURVE",
"303 121 CURVE SMOOTH"
);
}
);
width = 594;
},
{
layerId = "D8724204-5FB7-4143-B54F-478BABD83301";
paths = (
{
closed = 1;
nodes = (
"232 529 OFFCURVE",
"179 490 OFFCURVE",
"140 436 CURVE",
"140 736 LINE",
"118 733 LINE",
"118 0 LINE",
"137 0 LINE",
"139 81 LINE",
"173 31 OFFCURVE",
"227 -10 OFFCURVE",
"302 -10 CURVE SMOOTH",
"426 -10 OFFCURVE",
"491 95 OFFCURVE",
"491 264 CURVE SMOOTH",
"491 434 OFFCURVE",
"427 529 OFFCURVE",
"308 529 CURVE SMOOTH"
);
},
{
closed = 1;
nodes = (
"230 11 OFFCURVE",
"178 50 OFFCURVE",
"140 106 CURVE",
"140 410 LINE",
"184 469 OFFCURVE",
"231 509 OFFCURVE",
"308 509 CURVE SMOOTH",
"413 509 OFFCURVE",
"469 424 OFFCURVE",
"469 264 CURVE SMOOTH",
"469 103 OFFCURVE",
"410 11 OFFCURVE",
"301 11 CURVE SMOOTH"
);
}
);
width = 564;
}
);
leftKerningGroup = b;
note = b;
rightKerningGroup = uni01F6;
unicode = 0062;
},
{
glyphname = p;
lastChange = "2020-09-09 07:39:15 +0000";
layers = (
{
layerId = "FB938A0F-794B-4CBD-9B18-13182D479D81";
paths = (
{
closed = 1;
nodes = (
"329 554 OFFCURVE",
"272 537 OFFCURVE",
"226 482 CURVE",
"218 534 LINE",
"42 534 LINE",
"42 -227 LINE",
"240 -207 LINE",
"240 33 LINE",
"272 -2 OFFCURVE",
"314 -20 OFFCURVE",
"364 -20 CURVE SMOOTH",
"492 -20 OFFCURVE",
"577 103 OFFCURVE",
"577 269 CURVE SMOOTH",
"577 445 OFFCURVE",
"512 554 OFFCURVE",
"377 554 CURVE SMOOTH"
);
},
{
closed = 1;
nodes = (
"275 121 OFFCURVE",
"258 131 OFFCURVE",
"240 158 CURVE",
"240 362 LINE",
"260 398 OFFCURVE",
"285 412 OFFCURVE",
"310 412 CURVE SMOOTH",
"346 412 OFFCURVE",
"374 395 OFFCURVE",
"374 266 CURVE SMOOTH",
"374 158 OFFCURVE",
"343 121 OFFCURVE",
"299 121 CURVE SMOOTH"
);
}
);
width = 594;
},
{
layerId = "D8724204-5FB7-4143-B54F-478BABD83301";
paths = (
{
closed = 1;
nodes = (
"231 529 OFFCURVE",
"177 489 OFFCURVE",
"139 434 CURVE",
"137 519 LINE",
"118 519 LINE",
"118 -196 LINE",
"140 -192 LINE",
"140 80 LINE",
"174 31 OFFCURVE",
"228 -10 OFFCURVE",
"303 -10 CURVE SMOOTH",
"426 -10 OFFCURVE",
"491 94 OFFCURVE",
"491 264 CURVE SMOOTH",
"491 435 OFFCURVE",
"426 529 OFFCURVE",
"308 529 CURVE SMOOTH"
);
},
{
closed = 1;
nodes = (
"230 11 OFFCURVE",
"179 50 OFFCURVE",
"140 106 CURVE",
"140 410 LINE",
"184 469 OFFCURVE",
"231 509 OFFCURVE",
"308 509 CURVE SMOOTH",
"413 509 OFFCURVE",
"469 424 OFFCURVE",
"469 264 CURVE SMOOTH",
"469 103 OFFCURVE",
"410 11 OFFCURVE",
"302 11 CURVE SMOOTH"
);
}
);
width = 564;
}
);
leftKerningGroup = uni0299;
note = p;
rightKerningGroup = uni01F6;
unicode = 0070;
},
{
glyphname = m;
lastChange = "2020-09-09 07:39:16 +0000";
layers = (
{
layerId = "FB938A0F-794B-4CBD-9B18-13182D479D81";
paths = (
{
closed = 1;
nodes = (
"598 554 OFFCURVE",
"549 531 OFFCURVE",
"504 477 CURVE",
"483 527 OFFCURVE",
"439 554 OFFCURVE",
"384 554 CURVE SMOOTH",
"320 554 OFFCURVE",
"272 532 OFFCURVE",
"229 480 CURVE",
"215 534 LINE",
"42 534 LINE",
"42 0 LINE",
"240 0 LINE",
"240 357 LINE",
"256 393 OFFCURVE",
"276 410 OFFCURVE",
"295 410 CURVE SMOOTH",
"310 410 OFFCURVE",
"322 400 OFFCURVE",
"322 358 CURVE SMOOTH",
"322 0 LINE",
"520 0 LINE",
"520 357 LINE",
"536 393 OFFCURVE",
"556 410 OFFCURVE",
"575 410 CURVE SMOOTH",
"590 410 OFFCURVE",
"602 400 OFFCURVE",
"602 358 CURVE SMOOTH",
"602 0 LINE",
"800 0 LINE",
"800 394 LINE SMOOTH",
"800 496 OFFCURVE",
"744 554 OFFCURVE",
"664 554 CURVE SMOOTH"
);
}
);
width = 835;
},
{
layerId = "D8724204-5FB7-4143-B54F-478BABD83301";
paths = (
{
closed = 1;
nodes = (
"535 529 OFFCURVE",
"477 482 OFFCURVE",
"435 410 CURVE",
"425 485 OFFCURVE",
"381 529 OFFCURVE",
"309 529 CURVE SMOOTH",
"240 529 OFFCURVE",
"181 484 OFFCURVE",
"139 414 CURVE",
"137 519 LINE",
"118 519 LINE",
"118 0 LINE",
"140 0 LINE",
"140 384 LINE",
"183 459 OFFCURVE",
"238 509 OFFCURVE",
"308 509 CURVE SMOOTH",
"379 509 OFFCURVE",
"415 459 OFFCURVE",
"415 369 CURVE SMOOTH",
"415 0 LINE",
"437 0 LINE",
"437 384 LINE",
"480 459 OFFCURVE",
"535 509 OFFCURVE",
"606 509 CURVE SMOOTH",
"676 509 OFFCURVE",
"713 459 OFFCURVE",
"713 367 CURVE SMOOTH",
"713 0 LINE",
"735 0 LINE",
"735 369 LINE SMOOTH",
"735 469 OFFCURVE",
"690 529 OFFCURVE",
"606 529 CURVE SMOOTH"
);
}
);
width = 848;
}
);
leftKerningGroup = uni0299;
note = m;
rightKerningGroup = uni02A9;
unicode = 006D;
},
{
glyphname = w;
lastChange = "2020-09-09 07:39:16 +0000";
layers = (
{
hints = (
{
horizontal = 1;
origin = "{0, 8}";
target = up;
type = BottomGhost;
},
{
horizontal = 1;
origin = "{0, 7}";
target = down;
type = TopGhost;
},
{
horizontal = 1;
origin = "{0, 8}";
target = "{0, 5}";
type = Stem;
},
{
horizontal = 1;
origin = "{0, 7}";
target = "{0, 10}";
type = Stem;
}
);
layerId = "FB938A0F-794B-4CBD-9B18-13182D479D81";
paths = (
{
closed = 1;
nodes = (
"773 534 LINE",
"583 534 LINE",
"538 151 LINE",
"482 534 LINE",
"297 534 LINE",
"227 151 LINE",
"195 534 LINE",
"-5 534 LINE",
"102 0 LINE",
"328 0 LINE",
"383 358 LINE",
"441 0 LINE",
"668 0 LINE"
);
}
);
width = 768;
},
{
hints = (
{
horizontal = 1;
origin = "{0, 5}";
target = "{0, 8}";
type = Stem;
},
{
horizontal = 1;
origin = "{0, 7}";
target = "{0, 10}";
type = Stem;
}
);
layerId = "D8724204-5FB7-4143-B54F-478BABD83301";
paths = (
{
closed = 1;
nodes = (
"647 519 LINE",
"624 519 LINE",
"496 21 LINE",
"355 519 LINE",
"328 519 LINE",
"186 21 LINE",
"57 519 LINE",
"33 519 LINE",
"171 0 LINE",
"200 0 LINE",
"341 497 LINE",
"482 0 LINE",
"511 0 LINE"
);
}
);
width = 680;
}
);
leftKerningGroup = w;
note = w;
rightKerningGroup = w;
unicode = 0077;
},
{
glyphname = j;
lastChange = "2020-09-09 07:39:16 +0000";
layers = (
{
layerId = "FB938A0F-794B-4CBD-9B18-13182D479D81";
paths = (
{
closed = 1;
nodes = (
"76 829 OFFCURVE",
"30 783 OFFCURVE",
"30 723 CURVE SMOOTH",
"30 663 OFFCURVE",
"76 617 OFFCURVE",
"141 617 CURVE SMOOTH",
"206 617 OFFCURVE",
"252 663 OFFCURVE",
"252 723 CURVE SMOOTH",
"252 783 OFFCURVE",
"206 829 OFFCURVE",
"141 829 CURVE SMOOTH"
);
},
{
closed = 1;
nodes = (
"240 534 LINE",
"42 534 LINE",
"42 65 LINE SMOOTH",
"42 -22 OFFCURVE",
"-3 -52 OFFCURVE",
"-70 -83 CURVE",
"-2 -227 LINE",
"130 -184 OFFCURVE",
"240 -111 OFFCURVE",
"240 77 CURVE SMOOTH"
);
}
);
width = 282;
},
{
layerId = "D8724204-5FB7-4143-B54F-478BABD83301";
paths = (
{
closed = 1;
nodes = (
"117 724 OFFCURVE",
"109 714 OFFCURVE",
"109 704 CURVE SMOOTH",
"109 694 OFFCURVE",
"117 685 OFFCURVE",
"129 685 CURVE SMOOTH",
"143 685 OFFCURVE",
"150 694 OFFCURVE",
"150 704 CURVE SMOOTH",
"150 714 OFFCURVE",
"143 724 OFFCURVE",
"129 724 CURVE SMOOTH"
);
},
{
closed = 1;
nodes = (
"141 519 LINE",
"119 519 LINE",
"119 7 LINE SMOOTH",
"119 -111 OFFCURVE",
"90 -142 OFFCURVE",
"22 -178 CURVE",
"28 -195 LINE",
"105 -155 OFFCURVE",
"141 -122 OFFCURVE",
"141 6 CURVE SMOOTH"
);
}
);
width = 258;
}
);
leftKerningGroup = j;
note = j;
rightKerningGroup = uni01C8;
unicode = 006A;
},
{
glyphname = q;
lastChange = "2020-09-09 07:39:17 +0000";
layers = (
{
layerId = "FB938A0F-794B-4CBD-9B18-13182D479D81";
paths = (
{
closed = 1;
nodes = (
"381 534 LINE",
"372 497 LINE",
"333 538 OFFCURVE",
"289 554 OFFCURVE",
"241 554 CURVE SMOOTH",
"106 554 OFFCURVE",
"17 436 OFFCURVE",
"17 270 CURVE SMOOTH",
"17 94 OFFCURVE",
"82 -20 OFFCURVE",
"220 -20 CURVE SMOOTH",
"285 -20 OFFCURVE",
"327 7 OFFCURVE",
"356 41 CURVE",
"356 -207 LINE",
"554 -227 LINE",
"554 534 LINE"
);
},
{
closed = 1;
nodes = (
"251 122 OFFCURVE",
"220 140 OFFCURVE",
"220 268 CURVE SMOOTH",
"220 376 OFFCURVE",
"254 413 OFFCURVE",
"298 413 CURVE SMOOTH",
"322 413 OFFCURVE",
"338 402 OFFCURVE",
"356 383 CURVE",
"356 169 LINE",
"337 136 OFFCURVE",
"313 122 OFFCURVE",
"287 122 CURVE SMOOTH"
);
}
);
width = 596;
},
{
layerId = "D8724204-5FB7-4143-B54F-478BABD83301";
paths = (
{
closed = 1;
nodes = (
"432 519 LINE",
"430 446 LINE",
"403 486 OFFCURVE",
"357 529 OFFCURVE",
"275 529 CURVE SMOOTH",
"147 529 OFFCURVE",
"73 418 OFFCURVE",
"73 258 CURVE SMOOTH",
"73 89 OFFCURVE",
"149 -10 OFFCURVE",
"265 -10 CURVE SMOOTH",
"352 -10 OFFCURVE",
"401 37 OFFCURVE",
"429 88 CURVE",
"429 -192 LINE",
"451 -196 LINE",
"451 519 LINE"
);
},
{
closed = 1;
nodes = (
"162 11 OFFCURVE",
"96 101 OFFCURVE",
"96 258 CURVE SMOOTH",
"95 413 OFFCURVE",
"167 509 OFFCURVE",
"276 509 CURVE SMOOTH",
"353 509 OFFCURVE",
"400 465 OFFCURVE",
"429 418 CURVE",
"429 121 LINE",
"393 53 OFFCURVE",
"347 11 OFFCURVE",
"266 11 CURVE SMOOTH"
);
}
);
width = 569;
}
);
leftKerningGroup = uni0262;
note = q;
rightKerningGroup = t;
unicode = 0071;
},
{
glyphname = x;
lastChange = "2020-09-09 07:39:17 +0000";
layers = (
{
hints = (
{
horizontal = 1;
origin = "{0, 7}";
target = up;
type = BottomGhost;
},
{
horizontal = 1;
origin = "{0, 5}";
target = down;
type = TopGhost;
},
{
origin = "{0, 7}";
target = "{0, 11}";
type = Stem;
}
);
layerId = "FB938A0F-794B-4CBD-9B18-13182D479D81";
paths = (
{
closed = 1;
nodes = (
"383 286 LINE",
"519 534 LINE",
"312 534 LINE",
"265 377 LINE",
"213 534 LINE",
"-6 534 LINE",
"143 280 LINE",
"-20 0 LINE",
"193 0 LINE",
"257 184 LINE",
"327 0 LINE",
"548 0 LINE"
);
}
);
width = 528;
},
{
hints = (
{
horizontal = 1;
origin = "{0, 7}";
target = up;
type = BottomGhost;
},
{
horizontal = 1;
origin = "{0, 5}";
target = down;
type = TopGhost;
}
);
layerId = "D8724204-5FB7-4143-B54F-478BABD83301";
paths = (
{
closed = 1;
nodes = (
"229 279 LINE",
"390 519 LINE",
"364 519 LINE",
"216 292 LINE",
"69 519 LINE",
"43 519 LINE",
"202 278 LINE",
"18 0 LINE",
"43 0 LINE",
"215 265 LINE",
"389 0 LINE",
"415 0 LINE"
);
}
);
width = 433;
}
);
leftKerningGroup = uni029E;
note = x;
rightKerningGroup = k;
unicode = 0078;
},
{
glyphname = y;
lastChange = "2020-09-09 07:39:17 +0000";
layers = (
{
layerId = "FB938A0F-794B-4CBD-9B18-13182D479D81";
paths = (
{
closed = 1;
nodes = (
"549 534 LINE",
"345 534 LINE",
"262 121 LINE",
"195 534 LINE",
"-15 534 LINE",
"137 0 LINE",
"205 0 LINE",
"177 -60 OFFCURVE",
"134 -83 OFFCURVE",
"32 -93 CURVE",
"53 -228 LINE",
"232 -223 OFFCURVE",
"340 -147 OFFCURVE",
"385 1 CURVE SMOOTH"
);
}
);
width = 534;
},
{
layerId = "D8724204-5FB7-4143-B54F-478BABD83301";
paths = (
{
closed = 1;
nodes = (
"421 519 LINE",
"396 519 LINE",
"225 17 LINE",
"47 519 LINE",
"23 519 LINE",
"211 0 LINE",
"219 0 LINE",
"181 -103 OFFCURVE",
"159 -146 OFFCURVE",
"56 -177 CURVE",
"59 -195 LINE",
"169 -163 OFFCURVE",
"200 -116 OFFCURVE",
"240 -1 CURVE SMOOTH"
);
}
);
width = 444;
}
);
leftKerningGroup = uni028F;
note = y;
rightKerningGroup = uni028F;
unicode = 0079;
},
{
glyphname = n;
lastChange = "2020-09-09 07:39:17 +0000";
layers = (
{
layerId = "FB938A0F-794B-4CBD-9B18-13182D479D81";
paths = (
{
closed = 1;
nodes = (
"327 554 OFFCURVE",
"278 531 OFFCURVE",
"229 479 CURVE",
"215 534 LINE",
"42 534 LINE",
"42 0 LINE",
"240 0 LINE",
"240 357 LINE",
"263 393 OFFCURVE",
"286 410 OFFCURVE",
"307 410 CURVE SMOOTH",
"325 410 OFFCURVE",
"337 400 OFFCURVE",
"337 358 CURVE SMOOTH",
"337 0 LINE",
"535 0 LINE",
"535 394 LINE SMOOTH",
"535 496 OFFCURVE",
"480 554 OFFCURVE",
"391 554 CURVE SMOOTH"
);
}
);
width = 570;
},
{
layerId = "D8724204-5FB7-4143-B54F-478BABD83301";
paths = (
{
closed = 1;
nodes = (
"248 529 OFFCURVE",
"186 483 OFFCURVE",
"139 413 CURVE",
"137 519 LINE",
"118 519 LINE",
"118 0 LINE",
"140 0 LINE",
"140 384 LINE",
"189 459 OFFCURVE",
"246 509 OFFCURVE",
"330 509 CURVE SMOOTH",
"409 509 OFFCURVE",
"447 461 OFFCURVE",
"447 367 CURVE SMOOTH",
"447 0 LINE",
"469 0 LINE",
"469 369 LINE SMOOTH",
"469 471 OFFCURVE",
"425 529 OFFCURVE",
"330 529 CURVE SMOOTH"
);
}
);
width = 581;
}
);
leftKerningGroup = uni0299;
note = n;
rightKerningGroup = uni02A9;
unicode = 006E;
},
{
glyphname = z;
lastChange = "2020-09-09 07:39:17 +0000";
layers = (
{
hints = (
{
horizontal = 1;
origin = "{0, 5}";
target = "{0, 8}";
type = Stem;
},
{
horizontal = 1;
origin = "{0, 1}";
target = "{0, 2}";
type = Stem;
},
{
origin = "{0, 2}";
target = "{0, 9}";
type = Stem;
}
);
layerId = "FB938A0F-794B-4CBD-9B18-13182D479D81";
paths = (
{
closed = 1;
nodes = (
"455 534 LINE",
"25 534 LINE",
"25 390 LINE",
"227 390 LINE",
"5 138 LINE",
"5 0 LINE",
"445 0 LINE",
"462 146 LINE",
"236 146 LINE",
"455 397 LINE"
);
}
);
width = 467;
},
{
hints = (
{
horizontal = 1;
origin = "{0, 8}";
target = "{0, 5}";
type = Stem;
},
{
horizontal = 1;
origin = "{0, 1}";
target = "{0, 2}";
type = Stem;
}
);
layerId = "D8724204-5FB7-4143-B54F-478BABD83301";
paths = (
{
closed = 1;
nodes = (
"374 519 LINE",
"58 519 LINE",
"58 499 LINE",
"346 499 LINE",
"31 18 LINE",
"31 0 LINE",
"364 0 LINE",
"366 21 LINE",
"59 21 LINE",
"374 501 LINE"
);
}
);
width = 405;
}
);
leftKerningGroup = z;
note = z;
rightKerningGroup = uni01F2;
unicode = 007A;
},
{
glyphname = D;
lastChange = "2020-09-09 07:39:17 +0000";
layers = (
{
hints = (
{
horizontal = 1;
origin = "{0, 26}";
target = "{0, 1}";
type = Stem;
},
{
horizontal = 1;
origin = "{0, 7}";
target = "{0, 20}";
type = Stem;
},
{
horizontal = 1;
origin = "{0, 17}";
target = "{0, 16}";
type = Stem;
},
{
origin = "{0, 23}";
target = "{0, 4}";
type = Stem;
},
{
origin = "{0, 19}";
target = "{0, 27}";
type = Stem;
}
);
layerId = "FB938A0F-794B-4CBD-9B18-13182D479D81";
paths = (
{
closed = 1;
nodes = (
"484 123 LINE",
"263 123 LINE SMOOTH",
"222 123 OFFCURVE",
"204 149 OFFCURVE",
"204 188 CURVE SMOOTH",
"204 229 OFFCURVE",
"222 251 OFFCURVE",
"271 251 CURVE SMOOTH",
"484 251 LINE",
"484 454 LINE",
"521 454 LINE",
"536 560 LINE",
"484 560 LINE",
"484 684 LINE",
"286 664 LINE",
"286 560 LINE",
"154 560 LINE",
"154 454 LINE",
"286 454 LINE",
"286 371 LINE",
"268 371 LINE SMOOTH",
"86 371 OFFCURVE",
"5 309 OFFCURVE",
"5 184 CURVE SMOOTH",
"5 64 OFFCURVE",
"98 0 OFFCURVE",
"241 0 CURVE SMOOTH",
"484 0 LINE"
);
}
);
width = 548;
},
{
hints = (
{
horizontal = 1;
origin = "{0, 1}";
target = "{0, 26}";
type = Stem;
},
{
horizontal = 1;
origin = "{0, 20}";
target = "{0, 7}";
type = Stem;
},
{
horizontal = 1;
origin = "{0, 16}";
target = "{0, 17}";
type = Stem;
},
{
origin = "{0, 23}";
target = "{0, 4}";
type = Stem;
},
{
origin = "{0, 19}";
target = "{0, 27}";
type = Stem;
}
);
layerId = "D8724204-5FB7-4143-B54F-478BABD83301";
paths = (
{
closed = 1;
nodes = (
"374 21 LINE",
"238 21 LINE SMOOTH",
"127 21 OFFCURVE",
"67 65 OFFCURVE",
"67 175 CURVE SMOOTH",
"67 264 OFFCURVE",
"118 318 OFFCURVE",
"242 318 CURVE SMOOTH",
"374 318 LINE",
"374 481 LINE",
"446 481 LINE",
"450 501 LINE",
"374 501 LINE",
"374 630 LINE",
"352 627 LINE",
"352 501 LINE",
"208 501 LINE",
"208 481 LINE",
"352 481 LINE",
"352 338 LINE",
"243 338 LINE SMOOTH",
"103 338 OFFCURVE",
"44 273 OFFCURVE",
"44 175 CURVE SMOOTH",
"44 56 OFFCURVE",
"114 0 OFFCURVE",
"238 0 CURVE SMOOTH",
"374 0 LINE"
);
}
);
width = 498;
}
);
leftKerningGroup = d;
note = uni0463;
rightKerningGroup = pi;
unicode = 0044;
},
{
glyphname = s;
lastChange = "2020-09-09 07:39:18 +0000";
layers = (
{
layerId = "FB938A0F-794B-4CBD-9B18-13182D479D81";
paths = (
{
closed = 1;
nodes = (
"106 554 OFFCURVE",
"23 477 OFFCURVE",
"23 381 CURVE SMOOTH",
"23 295 OFFCURVE",
"78 238 OFFCURVE",
"178 208 CURVE SMOOTH",
"270 180 OFFCURVE",
"281 175 OFFCURVE",
"281 149 CURVE SMOOTH",
"281 127 OFFCURVE",
"260 116 OFFCURVE",
"225 116 CURVE SMOOTH",
"176 116 OFFCURVE",
"127 139 OFFCURVE",
"89 169 CURVE",
"-5 65 LINE",
"50 13 OFFCURVE",
"136 -20 OFFCURVE",
"230 -20 CURVE SMOOTH",
"378 -20 OFFCURVE",
"483 54 OFFCURVE",
"483 164 CURVE SMOOTH",
"483 261 OFFCURVE",
"427 305 OFFCURVE",
"326 336 CURVE SMOOTH",
"225 367 OFFCURVE",
"219 375 OFFCURVE",
"219 393 CURVE SMOOTH",
"219 407 OFFCURVE",
"231 417 OFFCURVE",
"264 417 CURVE SMOOTH",
"307 417 OFFCURVE",
"353 402 OFFCURVE",
"391 378 CURVE",
"461 485 LINE",
"412 527 OFFCURVE",
"335 554 OFFCURVE",
"256 554 CURVE SMOOTH"
);
}
);
width = 488;
},
{
layerId = "D8724204-5FB7-4143-B54F-478BABD83301";
paths = (
{
closed = 1;
nodes = (
"136 529 OFFCURVE",
"66 477 OFFCURVE",
"66 401 CURVE SMOOTH",
"66 331 OFFCURVE",
"111 296 OFFCURVE",
"221 267 CURVE SMOOTH",
"334 236 OFFCURVE",
"369 209 OFFCURVE",
"369 134 CURVE SMOOTH",
"369 55 OFFCURVE",
"306 11 OFFCURVE",
"223 11 CURVE SMOOTH",
"149 11 OFFCURVE",
"106 34 OFFCURVE",
"61 71 CURVE",
"48 56 LINE",
"92 19 OFFCURVE",
"142 -10 OFFCURVE",
"223 -10 CURVE SMOOTH",
"322 -10 OFFCURVE",
"392 48 OFFCURVE",
"392 134 CURVE SMOOTH",
"392 220 OFFCURVE",
"348 253 OFFCURVE",
"231 285 CURVE SMOOTH",
"128 313 OFFCURVE",
"89 340 OFFCURVE",
"89 401 CURVE SMOOTH",
"89 467 OFFCURVE",
"147 509 OFFCURVE",
"225 509 CURVE SMOOTH",
"283 509 OFFCURVE",
"321 492 OFFCURVE",
"365 458 CURVE",
"378 474 LINE",
"332 511 OFFCURVE",
"286 529 OFFCURVE",
"224 529 CURVE SMOOTH"
);
}
);
width = 450;
}
);
leftKerningGroup = s;
note = s;
rightKerningGroup = uni02AA;
unicode = 0073;
},
{
glyphname = r;
lastChange = "2020-09-09 07:39:18 +0000";
layers = (
{
layerId = "FB938A0F-794B-4CBD-9B18-13182D479D81";
paths = (
{
closed = 1;
nodes = (
"307 551 OFFCURVE",
"253 504 OFFCURVE",
"231 434 CURVE",
"215 534 LINE",
"42 534 LINE",
"42 0 LINE",
"240 0 LINE",
"240 243 LINE",
"255 311 OFFCURVE",
"276 359 OFFCURVE",
"340 359 CURVE SMOOTH",
"357 359 OFFCURVE",
"372 356 OFFCURVE",
"389 351 CURVE",
"420 542 LINE",
"401 548 OFFCURVE",
"387 551 OFFCURVE",
"366 551 CURVE SMOOTH"
);
}
);
width = 410;
},
{
layerId = "D8724204-5FB7-4143-B54F-478BABD83301";
paths = (
{
closed = 1;
nodes = (
"215 529 OFFCURVE",
"167 485 OFFCURVE",
"138 390 CURVE",
"137 519 LINE",
"118 519 LINE",
"118 0 LINE",
"140 0 LINE",
"140 344 LINE",
"173 456 OFFCURVE",
"216 509 OFFCURVE",
"294 509 CURVE SMOOTH",
"312 509 OFFCURVE",
"327 507 OFFCURVE",
"340 504 CURVE",
"345 523 LINE",
"333 526 OFFCURVE",
"317 529 OFFCURVE",
"294 529 CURVE SMOOTH"
);
}
);
width = 362;
}
);
leftKerningGroup = uni0299;
note = r;
rightKerningGroup = r;
unicode = 0072;
},
{
glyphname = H;
lastChange = "2020-09-09 07:42:29 +0000";
layers = (
{
hints = (
{
horizontal = 1;
origin = "{0, 5}";
target = up;
type = BottomGhost;
},
{
horizontal = 1;
origin = "{0, 0}";
target = "{0, 2}";
type = Stem;
},
{
horizontal = 1;
origin = "{0, 4}";
target = down;
type = TopGhost;
},
{
horizontal = 1;
origin = "{0, 6}";
target = up;
type = BottomGhost;
},
{
origin = "{0, 5}";
target = "{0, 6}";
type = Stem;
}
);
layerId = "FB938A0F-794B-4CBD-9B18-13182D479D81";
paths = (
{
closed = 1;
nodes = (
"410 0 LINE",
"431 158 LINE",
"248 158 LINE",
"248 534 LINE",
"42 534 LINE",
"42 -207 LINE",
"248 -227 LINE",
"248 0 LINE"
);
}
);
width = 441;
},
{
hints = (
{
horizontal = 1;
origin = "{0, 5}";
target = up;
type = BottomGhost;
},
{
horizontal = 1;
origin = "{0, 2}";
target = "{0, 7}";
type = Stem;
},
{
horizontal = 1;
origin = "{0, 4}";
target = down;
type = TopGhost;
},
{
horizontal = 1;
origin = "{0, 6}";
target = up;
type = BottomGhost;
},
{
origin = "{0, 5}";
target = "{0, 6}";
type = Stem;
}
);
layerId = "D8724204-5FB7-4143-B54F-478BABD83301";
paths = (
{
closed = 1;
nodes = (
"351 0 LINE",
"355 22 LINE",
"141 22 LINE",
"141 519 LINE",
"118 519 LINE",
"118 -192 LINE",
"141 -204 LINE",
"141 0 LINE"
);
}
);
width = 377;
}
);
leftKerningGroup = B;
note = L;
rightKerningGroup = L;
unicode = 0048;
},
{
glyphname = i;
lastChange = "2020-09-09 07:39:19 +0000";
layers = (
{
layerId = "FB938A0F-794B-4CBD-9B18-13182D479D81";
paths = (
{
closed = 1;
nodes = (
"76 829 OFFCURVE",
"30 783 OFFCURVE",
"30 723 CURVE SMOOTH",
"30 663 OFFCURVE",
"76 617 OFFCURVE",
"141 617 CURVE SMOOTH",
"206 617 OFFCURVE",
"252 663 OFFCURVE",
"252 723 CURVE SMOOTH",
"252 783 OFFCURVE",
"206 829 OFFCURVE",
"141 829 CURVE SMOOTH"
);
},
{
closed = 1;
nodes = (
"240 534 LINE",
"42 534 LINE",
"42 0 LINE",
"240 0 LINE"
);
}
);
width = 282;
},
{
layerId = "D8724204-5FB7-4143-B54F-478BABD83301";
paths = (
{
closed = 1;
nodes = (
"117 724 OFFCURVE",
"109 714 OFFCURVE",
"109 704 CURVE SMOOTH",
"109 694 OFFCURVE",
"117 685 OFFCURVE",
"129 685 CURVE SMOOTH",
"143 685 OFFCURVE",
"150 694 OFFCURVE",
"150 704 CURVE SMOOTH",
"150 714 OFFCURVE",
"143 724 OFFCURVE",
"129 724 CURVE SMOOTH"
);
},
{
closed = 1;
nodes = (
"140 519 LINE",
"118 519 LINE",
"118 0 LINE",
"140 0 LINE"
);
}
);
width = 258;
}
);
leftKerningGroup = i;
note = i;
rightKerningGroup = i;
unicode = 0069;
},
{
glyphname = one;
lastChange = "2020-09-09 07:39:19 +0000";
layers = (
{
hints = (
{
horizontal = 1;
origin = "{0, 5}";
target = up;
type = BottomGhost;
},
{
horizontal = 1;
origin = "{0, 1}";
target = down;
type = TopGhost;
},
{
origin = "{0, 5}";
target = "{0, 6}";
type = Stem;
}
);
layerId = "FB938A0F-794B-4CBD-9B18-13182D479D81";
paths = (
{
closed = 1;
nodes = (
"415 534 LINE",
"239 534 LINE",
"-5 390 LINE",
"81 261 LINE",
"223 347 LINE",
"223 0 LINE",
"415 0 LINE"
);
}
);
width = 470;
},
{
hints = (
{
horizontal = 1;
origin = "{0, 5}";
target = up;
type = BottomGhost;
},
{
horizontal = 1;
origin = "{0, 1}";
target = down;
type = TopGhost;
},
{
horizontal = 1;
origin = "{0, 1}";
target = "{0, 4}";
type = Stem;
},
{
origin = "{0, 5}";
target = "{0, 6}";
type = Stem;
}
);
layerId = "D8724204-5FB7-4143-B54F-478BABD83301";
paths = (
{
closed = 1;
nodes = (
"265 519 LINE",
"247 519 LINE",
"48 400 LINE",
"59 382 LINE",
"243 493 LINE",
"243 0 LINE",
"265 0 LINE"
);
}
);
width = 388;
}
);
leftKerningGroup = one.osf;
note = one.osf;
rightKerningGroup = one.osf;
unicode = 0031;
},
{
glyphname = V;
lastChange = "2020-09-09 07:39:19 +0000";
layers = (
{
layerId = "FB938A0F-794B-4CBD-9B18-13182D479D81";
paths = (
{
closed = 1;
nodes = (
"-15 0 LINE",
"189 0 LINE",
"272 413 LINE",
"339 0 LINE",
"549 0 LINE",
"397 534 LINE",
"324 534 LINE",
"348 594 OFFCURVE",
"390 623 OFFCURVE",
"498 633 CURVE",
"481 762 LINE",
"304 757 OFFCURVE",
"195 683 OFFCURVE",
"149 533 CURVE SMOOTH"
);
}
);
width = 534;
},
{
layerId = "D8724204-5FB7-4143-B54F-478BABD83301";
paths = (
{
closed = 1;
nodes = (
"23 0 LINE",
"48 0 LINE",
"219 503 LINE",
"397 0 LINE",
"421 0 LINE",
"234 519 LINE",
"225 519 LINE",
"268 645 OFFCURVE",
"288 688 OFFCURVE",
"388 719 CURVE",
"385 736 LINE",
"275 705 OFFCURVE",
"251 655 OFFCURVE",
"204 521 CURVE SMOOTH"
);
}
);
width = 444;
}
);
leftKerningGroup = uni028C;
note = uni028E;
rightKerningGroup = uni028C;
unicode = 0056;
},
{
glyphname = three;
lastChange = "2020-09-09 07:39:20 +0000";
layers = (
{
layerId = "FB938A0F-794B-4CBD-9B18-13182D479D81";
paths = (
{
closed = 1;
nodes = (
"144 554 OFFCURVE",
"72 533 OFFCURVE",
"10 491 CURVE",
"100 390 LINE",
"134 411 OFFCURVE",
"165 422 OFFCURVE",
"205 422 CURVE SMOOTH",
"237 422 OFFCURVE",
"255 407 OFFCURVE",
"255 380 CURVE SMOOTH",
"255 350 OFFCURVE",
"240 332 OFFCURVE",
"200 332 CURVE SMOOTH",
"133 332 LINE",
"122 212 LINE",
"213 212 LINE SMOOTH",
"259 212 OFFCURVE",
"276 194 OFFCURVE",
"276 165 CURVE SMOOTH",
"276 135 OFFCURVE",
"259 116 OFFCURVE",
"213 116 CURVE SMOOTH",
"169 116 OFFCURVE",
"135 122 OFFCURVE",
"86 150 CURVE",
"-5 43 LINE",
"54 1 OFFCURVE",
"128 -20 OFFCURVE",
"220 -20 CURVE SMOOTH",
"375 -20 OFFCURVE",
"479 37 OFFCURVE",
"479 152 CURVE SMOOTH",
"479 231 OFFCURVE",
"428 271 OFFCURVE",
"331 284 CURVE",
"411 303 OFFCURVE",
"454 343 OFFCURVE",
"454 404 CURVE SMOOTH",
"454 497 OFFCURVE",
"360 554 OFFCURVE",
"235 554 CURVE SMOOTH"
);
}
);
width = 494;
},
{
layerId = "D8724204-5FB7-4143-B54F-478BABD83301";
paths = (
{
closed = 1;
nodes = (
"147 529 OFFCURVE",
"97 510 OFFCURVE",
"48 477 CURVE",
"59 461 LINE",
"108 491 OFFCURVE",
"148 509 OFFCURVE",
"216 509 CURVE SMOOTH",
"299 509 OFFCURVE",
"346 463 OFFCURVE",
"346 397 CURVE SMOOTH",
"346 329 OFFCURVE",
"301 284 OFFCURVE",
"199 284 CURVE SMOOTH",
"150 284 LINE",
"148 265 LINE",
"204 265 LINE SMOOTH",
"313 265 OFFCURVE",
"371 230 OFFCURVE",
"371 146 CURVE SMOOTH",
"371 54 OFFCURVE",
"308 11 OFFCURVE",
"217 11 CURVE SMOOTH",
"136 11 OFFCURVE",
"88 39 OFFCURVE",
"46 74 CURVE",
"33 60 LINE",
"75 22 OFFCURVE",
"130 -10 OFFCURVE",
"218 -10 CURVE SMOOTH",
"324 -10 OFFCURVE",
"394 46 OFFCURVE",
"394 146 CURVE SMOOTH",
"394 234 OFFCURVE",
"340 271 OFFCURVE",
"253 276 CURVE",
"326 286 OFFCURVE",
"369 326 OFFCURVE",
"369 397 CURVE SMOOTH",
"369 478 OFFCURVE",
"308 529 OFFCURVE",
"216 529 CURVE SMOOTH"
);
}
);
width = 459;
}
);
leftKerningGroup = uni025C;
note = uni025C;
rightKerningGroup = uni0299;
unicode = 0033;
},
{
glyphname = N;
lastChange = "2020-09-09 07:39:20 +0000";
layers = (
{
hints = (
{
horizontal = 1;
origin = "{0, 9}";
target = up;
type = BottomGhost;
},
{
horizontal = 1;
origin = "{0, 7}";
target = "{0, 14}";
type = Stem;
},
{
horizontal = 1;
origin = "{0, 0}";
target = down;
type = TopGhost;
},
{
horizontal = 1;
origin = "{0, 8}";
target = up;
type = BottomGhost;
},
{
horizontal = 1;
origin = "{0, 1}";
target = down;
type = TopGhost;
},
{
origin = "{0, 8}";
target = "{0, 9}";
type = Stem;
},
{
origin = "{0, 2}";
target = "{0, 15}";
type = Stem;
}
);
layerId = "FB938A0F-794B-4CBD-9B18-13182D479D81";
paths = (
{
closed = 1;
nodes = (
"525 554 LINE",
"343 534 LINE",
"343 493 LINE SMOOTH",
"343 467 OFFCURVE",
"343 309 OFFCURVE",
"351 256 CURVE",
"303 349 LINE",
"40 349 LINE",
"40 -227 LINE",
"222 -207 LINE",
"222 -131 LINE SMOOTH",
"222 -2 OFFCURVE",
"225 134 OFFCURVE",
"215 201 CURVE",
"257 110 LINE",
"525 110 LINE"
);
}
);
width = 560;
},
{
hints = (
{
horizontal = 1;
origin = "{0, 9}";
target = up;
type = BottomGhost;
},
{
horizontal = 1;
origin = "{0, 13}";
target = "{0, 14}";
type = Stem;
},
{
horizontal = 1;
origin = "{0, 0}";
target = down;
type = TopGhost;
},
{
horizontal = 1;
origin = "{0, 1}";
target = down;
type = TopGhost;
},
{
horizontal = 1;
origin = "{0, 8}";
target = up;
type = BottomGhost;
},
{
horizontal = 1;
origin = "{0, 13}";
target = "{0, 7}";
type = Stem;
},
{
origin = "{0, 8}";
target = "{0, 9}";
type = Stem;
},
{
origin = "{0, 2}";
target = "{0, 15}";
type = Stem;
}
);
layerId = "D8724204-5FB7-4143-B54F-478BABD83301";
paths = (
{
closed = 1;
nodes = (
"194 531 LINE",
"172 519 LINE",
"172 475 LINE SMOOTH",
"172 397 OFFCURVE",
"173 329 OFFCURVE",
"173 289 CURVE",
"136 307 LINE",
"109 307 LINE",
"109 -204 LINE",
"131 -192 LINE",
"131 103 LINE SMOOTH",
"131 202 OFFCURVE",
"131 254 OFFCURVE",
"130 289 CURVE",
"168 270 LINE",
"194 270 LINE"
);
}
);
width = 302;
}
);
leftKerningGroup = i;
note = N;
rightKerningGroup = ii;
unicode = 004E;
},
{
glyphname = l;
lastChange = "2020-09-09 07:39:20 +0000";
layers = (
{
layerId = "FB938A0F-794B-4CBD-9B18-13182D479D81";
paths = (
{
closed = 1;
nodes = (
"248 -20 OFFCURVE",
"287 -12 OFFCURVE",
"313 -2 CURVE",
"278 139 LINE",
"273 137 OFFCURVE",
"266 135 OFFCURVE",
"257 135 CURVE SMOOTH",
"241 135 OFFCURVE",
"233 144 OFFCURVE",
"233 162 CURVE SMOOTH",
"233 764 LINE",
"35 744 LINE",
"35 154 LINE SMOOTH",
"35 43 OFFCURVE",
"95 -20 OFFCURVE",
"203 -20 CURVE SMOOTH"
);
}
);
width = 303;
},
{
layerId = "D8724204-5FB7-4143-B54F-478BABD83301";
paths = (
{
closed = 1;
nodes = (
"203 -10 OFFCURVE",
"219 -5 OFFCURVE",
"232 0 CURVE",
"226 19 LINE",
"214 14 OFFCURVE",
"200 11 OFFCURVE",
"186 11 CURVE SMOOTH",
"152 11 OFFCURVE",
"135 32 OFFCURVE",
"135 73 CURVE SMOOTH",
"135 736 LINE",
"113 733 LINE",
"113 72 LINE SMOOTH",
"113 16 OFFCURVE",
"142 -10 OFFCURVE",
"185 -10 CURVE SMOOTH"
);
}
);
width = 285;
}
);
leftKerningGroup = l;
note = l;
rightKerningGroup = uni0269;
unicode = 006C;
},
{
glyphname = d;
lastChange = "2020-09-09 07:39:21 +0000";
layers = (
{
layerId = "FB938A0F-794B-4CBD-9B18-13182D479D81";
paths = (
{
closed = 1;
nodes = (
"356 764 LINE",
"356 512 LINE",
"326 539 OFFCURVE",
"286 554 OFFCURVE",
"240 554 CURVE SMOOTH",
"107 554 OFFCURVE",
"17 436 OFFCURVE",
"17 270 CURVE SMOOTH",
"17 94 OFFCURVE",
"81 -20 OFFCURVE",
"220 -20 CURVE SMOOTH",
"297 -20 OFFCURVE",
"343 18 OFFCURVE",
"371 55 CURVE",
"378 0 LINE",
"554 0 LINE",
"554 744 LINE"
);
},
{
closed = 1;
nodes = (
"251 122 OFFCURVE",
"220 140 OFFCURVE",
"220 268 CURVE SMOOTH",
"220 376 OFFCURVE",
"254 413 OFFCURVE",
"297 413 CURVE SMOOTH",
"321 413 OFFCURVE",
"338 402 OFFCURVE",
"356 383 CURVE",
"356 169 LINE",
"337 136 OFFCURVE",
"313 122 OFFCURVE",
"287 122 CURVE SMOOTH"
);
}
);
width = 596;
},
{
layerId = "D8724204-5FB7-4143-B54F-478BABD83301";
paths = (
{
closed = 1;
nodes = (
"429 736 LINE",
"429 446 LINE",
"402 487 OFFCURVE",
"356 529 OFFCURVE",
"275 529 CURVE SMOOTH",
"148 529 OFFCURVE",
"73 418 OFFCURVE",
"73 258 CURVE SMOOTH",
"73 89 OFFCURVE",
"149 -10 OFFCURVE",
"265 -10 CURVE SMOOTH",
"351 -10 OFFCURVE",
"400 36 OFFCURVE",
"429 89 CURVE",
"432 0 LINE",
"451 0 LINE",
"451 733 LINE"
);
},
{
closed = 1;
nodes = (
"162 11 OFFCURVE",
"96 101 OFFCURVE",
"96 258 CURVE SMOOTH",
"95 413 OFFCURVE",
"168 509 OFFCURVE",
"276 509 CURVE SMOOTH",
"352 509 OFFCURVE",
"399 465 OFFCURVE",
"429 418 CURVE",
"429 123 LINE",
"394 54 OFFCURVE",
"347 11 OFFCURVE",
"266 11 CURVE SMOOTH"
);
}
);
width = 569;
}
);
leftKerningGroup = uni0262;
note = d;
rightKerningGroup = d;
unicode = 0064;
},
{
glyphname = t;
lastChange = "2020-09-09 07:39:21 +0000";
layers = (
{
layerId = "FB938A0F-794B-4CBD-9B18-13182D479D81";
paths = (
{
closed = 1;
nodes = (
"352 149 LINE",
"334 139 OFFCURVE",
"317 135 OFFCURVE",
"302 135 CURVE SMOOTH",
"277 135 OFFCURVE",
"260 149 OFFCURVE",
"260 199 CURVE SMOOTH",
"260 400 LINE",
"360 400 LINE",
"380 534 LINE",
"260 534 LINE",
"260 669 LINE",
"62 646 LINE",
"62 534 LINE",
"-2 534 LINE",
"-2 400 LINE",
"62 400 LINE",
"62 197 LINE SMOOTH",
"62 56 OFFCURVE",
"122 -19 OFFCURVE",
"256 -20 CURVE SMOOTH",
"306 -20 OFFCURVE",
"372 -5 OFFCURVE",
"416 26 CURVE"
);
}
);
width = 401;
},
{
layerId = "D8724204-5FB7-4143-B54F-478BABD83301";
paths = (
{
closed = 1;
nodes = (
"317 37 LINE",
"291 22 OFFCURVE",
"263 11 OFFCURVE",
"227 11 CURVE SMOOTH",
"167 11 OFFCURVE",
"135 48 OFFCURVE",
"135 118 CURVE SMOOTH",
"135 499 LINE",
"276 499 LINE",
"279 519 LINE",
"135 519 LINE",
"135 652 LINE",
"113 650 LINE",
"113 519 LINE",
"28 519 LINE",
"28 499 LINE",
"113 499 LINE",
"113 117 LINE SMOOTH",
"113 33 OFFCURVE",
"156 -10 OFFCURVE",
"226 -10 CURVE SMOOTH",
"267 -10 OFFCURVE",
"299 3 OFFCURVE",
"327 20 CURVE"
);
}
);
width = 331;
}
);
leftKerningGroup = t;
note = t;
rightKerningGroup = t;
unicode = 0074;
},
{
glyphname = g;
lastChange = "2020-09-09 07:39:22 +0000";
layers = (
{
layerId = "FB938A0F-794B-4CBD-9B18-13182D479D81";
paths = (
{
closed = 1;
nodes = (
"527 636 LINE",
"461 591 OFFCURVE",
"382 550 OFFCURVE",
"271 554 CURVE SMOOTH",
"119 554 OFFCURVE",
"20 481 OFFCURVE",
"20 353 CURVE SMOOTH",
"20 284 OFFCURVE",
"47 236 OFFCURVE",
"120 197 CURVE",
"81 174 OFFCURVE",
"52 132 OFFCURVE",
"52 90 CURVE SMOOTH",
"52 31 OFFCURVE",
"102 -17 OFFCURVE",
"232 -17 CURVE SMOOTH",
"306 -17 LINE SMOOTH",
"350 -17 OFFCURVE",
"363 -37 OFFCURVE",
"363 -56 CURVE SMOOTH",
"363 -78 OFFCURVE",
"352 -102 OFFCURVE",
"272 -102 CURVE SMOOTH",
"188 -102 OFFCURVE",
"172 -88 OFFCURVE",
"172 -49 CURVE",
"-5 -49 LINE",
"-5 -153 OFFCURVE",
"47 -227 OFFCURVE",
"266 -227 CURVE SMOOTH",
"459 -227 OFFCURVE",
"562 -155 OFFCURVE",
"562 -42 CURVE SMOOTH",
"562 51 OFFCURVE",
"479 117 OFFCURVE",
"345 117 CURVE SMOOTH",
"268 117 LINE SMOOTH",
"219 117 OFFCURVE",
"216 132 OFFCURVE",
"216 142 CURVE SMOOTH",
"216 150 OFFCURVE",
"220 157 OFFCURVE",
"228 161 CURVE",
"246 158 OFFCURVE",
"264 158 OFFCURVE",
"285 158 CURVE SMOOTH",
"431 158 OFFCURVE",
"522 233 OFFCURVE",
"522 334 CURVE SMOOTH",
"522 408 OFFCURVE",
"488 445 OFFCURVE",
"418 474 CURVE",
"488 474 OFFCURVE",
"537 483 OFFCURVE",
"570 498 CURVE"
);
},
{
closed = 1;
nodes = (
"318 426 OFFCURVE",
"338 407 OFFCURVE",
"338 360 CURVE SMOOTH",
"338 308 OFFCURVE",
"317 284 OFFCURVE",
"277 284 CURVE SMOOTH",
"243 284 OFFCURVE",
"216 306 OFFCURVE",
"216 357 CURVE SMOOTH",
"216 403 OFFCURVE",
"242 426 OFFCURVE",
"277 426 CURVE SMOOTH"
);
}
);
width = 570;
},
{
layerId = "D8724204-5FB7-4143-B54F-478BABD83301";
paths = (
{
closed = 1;
nodes = (
"463 550 LINE",
"422 537 OFFCURVE",
"393 528 OFFCURVE",
"243 529 CURVE SMOOTH",
"135 529 OFFCURVE",
"66 461 OFFCURVE",
"66 358 CURVE SMOOTH",
"66 287 OFFCURVE",
"97 241 OFFCURVE",
"153 212 CURVE",
"120 191 OFFCURVE",
"96 163 OFFCURVE",
"96 126 CURVE SMOOTH",
"96 78 OFFCURVE",
"137 43 OFFCURVE",
"216 43 CURVE SMOOTH",
"304 43 LINE SMOOTH",
"387 43 OFFCURVE",
"436 5 OFFCURVE",
"436 -58 CURVE SMOOTH",
"436 -132 OFFCURVE",
"381 -176 OFFCURVE",
"251 -176 CURVE SMOOTH",
"117 -176 OFFCURVE",
"68 -146 OFFCURVE",
"66 -58 CURVE",
"44 -58 LINE",
"44 -159 OFFCURVE",
"107 -197 OFFCURVE",
"251 -197 CURVE SMOOTH",
"393 -197 OFFCURVE",
"458 -145 OFFCURVE",
"458 -57 CURVE SMOOTH",
"458 15 OFFCURVE",
"403 64 OFFCURVE",
"305 64 CURVE SMOOTH",
"218 64 LINE SMOOTH",
"147 64 OFFCURVE",
"119 91 OFFCURVE",
"119 129 CURVE SMOOTH",
"119 161 OFFCURVE",
"139 186 OFFCURVE",
"171 204 CURVE",
"192 196 OFFCURVE",
"217 190 OFFCURVE",
"245 190 CURVE SMOOTH",
"354 190 OFFCURVE",
"422 254 OFFCURVE",
"422 356 CURVE SMOOTH",
"422 440 OFFCURVE",
"382 490 OFFCURVE",
"318 512 CURVE",
"396 512 OFFCURVE",
"440 518 OFFCURVE",
"471 526 CURVE"
);
},
{
closed = 1;
nodes = (
"340 509 OFFCURVE",
"399 453 OFFCURVE",
"399 356 CURVE SMOOTH",
"399 263 OFFCURVE",
"341 210 OFFCURVE",
"245 210 CURVE SMOOTH",
"160 210 OFFCURVE",
"88 260 OFFCURVE",
"88 358 CURVE SMOOTH",
"88 446 OFFCURVE",
"142 509 OFFCURVE",
"244 509 CURVE SMOOTH"
);
}
);
width = 495;
}
);
leftKerningGroup = g;
note = g;
rightKerningGroup = g;
unicode = 0067;
},
{
glyphname = k;
lastChange = "2020-09-09 07:39:22 +0000";
layers = (
{
hints = (
{
horizontal = 1;
origin = "{0, 2}";
target = up;
type = BottomGhost;
},
{
horizontal = 1;
origin = "{1, 1}";
target = down;
type = TopGhost;
},
{
horizontal = 1;
origin = "{0, 0}";
target = down;
type = TopGhost;
},
{
horizontal = 1;
origin = "{0, 1}";
target = up;
type = BottomGhost;
},
{
origin = "{0, 2}";
target = "{0, 3}";
type = Stem;
}
);
layerId = "FB938A0F-794B-4CBD-9B18-13182D479D81";
paths = (
{
closed = 1;
nodes = (
"240 764 LINE",
"42 744 LINE",
"42 0 LINE",
"240 0 LINE"
);
},
{
closed = 1;
nodes = (
"583 534 LINE",
"387 534 LINE",
"244 292 LINE",
"372 0 LINE",
"591 0 LINE",
"442 300 LINE"
);
}
);
width = 576;
},
{
hints = (
{
horizontal = 1;
origin = "{0, 2}";
target = up;
type = BottomGhost;
},
{
horizontal = 1;
origin = "{1, 1}";
target = down;
type = TopGhost;
},
{
horizontal = 1;
origin = "{0, 0}";
target = down;
type = TopGhost;
},
{
horizontal = 1;
origin = "{0, 1}";
target = up;
type = BottomGhost;
},
{
origin = "{0, 2}";
target = "{0, 3}";
type = Stem;
}
);
layerId = "D8724204-5FB7-4143-B54F-478BABD83301";
paths = (
{
closed = 1;
nodes = (
"140 736 LINE",
"118 733 LINE",
"118 0 LINE",
"140 0 LINE"
);
},
{
closed = 1;
nodes = (
"420 519 LINE",
"392 519 LINE",
"146 284 LINE",
"418 0 LINE",
"445 0 LINE",
"174 284 LINE"
);
}
);
width = 463;
}
);
leftKerningGroup = b;
note = k;
rightKerningGroup = k;
unicode = 006B;
},
{
glyphname = h;
lastChange = "2020-09-09 07:39:22 +0000";
layers = (
{
layerId = "FB938A0F-794B-4CBD-9B18-13182D479D81";
paths = (
{
closed = 1;
nodes = (
"331 554 OFFCURVE",
"286 534 OFFCURVE",
"240 486 CURVE",
"240 764 LINE",
"42 744 LINE",
"42 0 LINE",
"240 0 LINE",
"240 357 LINE",
"263 393 OFFCURVE",
"286 410 OFFCURVE",
"307 410 CURVE SMOOTH",
"325 410 OFFCURVE",
"337 400 OFFCURVE",
"337 358 CURVE SMOOTH",
"337 0 LINE",
"535 0 LINE",
"535 394 LINE SMOOTH",
"535 496 OFFCURVE",
"480 554 OFFCURVE",
"391 554 CURVE SMOOTH"
);
}
);
width = 570;
},
{
layerId = "D8724204-5FB7-4143-B54F-478BABD83301";
paths = (
{
closed = 1;
nodes = (
"248 529 OFFCURVE",
"187 484 OFFCURVE",
"140 414 CURVE",
"140 736 LINE",
"118 733 LINE",
"118 0 LINE",
"140 0 LINE",
"140 384 LINE",
"189 459 OFFCURVE",
"246 509 OFFCURVE",
"330 509 CURVE SMOOTH",
"409 509 OFFCURVE",
"447 459 OFFCURVE",
"447 367 CURVE SMOOTH",
"447 0 LINE",
"469 0 LINE",
"469 369 LINE SMOOTH",
"469 469 OFFCURVE",
"424 529 OFFCURVE",
"330 529 CURVE SMOOTH"
);
}
);
width = 581;
}
);
leftKerningGroup = b;
note = h;
rightKerningGroup = uni02A9;
unicode = 0068;
},
{
glyphname = four;
lastChange = "2020-09-09 07:39:22 +0000";
layers = (
{
hints = (
{
horizontal = 1;
origin = "{0, 12}";
target = up;
type = BottomGhost;
},
{
horizontal = 1;
origin = "{0, 9}";
target = "{0, 5}";
type = Stem;
},
{
horizontal = 1;
origin = "{0, 11}";
target = up;
type = BottomGhost;
},
{
origin = "{0, 11}";
target = "{0, 12}";
type = Stem;
}
);
layerId = "FB938A0F-794B-4CBD-9B18-13182D479D81";
paths = (
{
closed = 1;
nodes = (
"565 140 LINE",
"495 140 LINE",
"495 291 LINE",
"330 291 LINE",
"308 140 LINE",
"213 140 LINE",
"366 502 LINE",
"197 562 LINE",
"10 123 LINE",
"10 -3 LINE",
"306 -3 LINE",
"306 -227 LINE",
"495 -207 LINE",
"495 -3 LINE",
"545 -3 LINE"
);
}
);
width = 565;
},
{
hints = (
{
horizontal = 1;
origin = "{0, 12}";
target = up;
type = BottomGhost;
},
{
horizontal = 1;
origin = "{0, 5}";
target = "{0, 9}";
type = Stem;
},
{
horizontal = 1;
origin = "{0, 7}";
target = down;
type = TopGhost;
},
{
horizontal = 1;
origin = "{0, 11}";
target = up;
type = BottomGhost;
},
{
origin = "{0, 11}";
target = "{0, 12}";
type = Stem;
},
{
place = "{339.5, 20.5}";
type = Stem;
},
{
origin = "{0, 9}";
target = "{0, 5}";
type = Stem;
}
);
layerId = "D8724204-5FB7-4143-B54F-478BABD83301";
paths = (
{
closed = 1;
nodes = (
"453 20 LINE",
"360 20 LINE",
"360 231 LINE",
"341 231 LINE",
"338 20 LINE",
"55 20 LINE",
"259 512 LINE",
"240 521 LINE",
"31 18 LINE",
"31 0 LINE",
"338 0 LINE",
"338 -204 LINE",
"360 -192 LINE",
"360 0 LINE",
"449 0 LINE"
);
}
);
width = 459;
}
);
leftKerningGroup = four.osf;
note = four.osf;
rightKerningGroup = four.osf;
unicode = 0034;
},
{
glyphname = eight;
lastChange = "2020-09-09 07:39:22 +0000";
layers = (
{
layerId = "FB938A0F-794B-4CBD-9B18-13182D479D81";
paths = (
{
closed = 1;
nodes = (
"496 313 OFFCURVE",
"527 350 OFFCURVE",
"527 404 CURVE SMOOTH",
"527 492 OFFCURVE",
"439 554 OFFCURVE",
"295 554 CURVE SMOOTH",
"136 554 OFFCURVE",
"53 481 OFFCURVE",
"53 393 CURVE SMOOTH",
"53 352 OFFCURVE",
"73 313 OFFCURVE",
"122 283 CURVE",
"60 254 OFFCURVE",
"20 201 OFFCURVE",
"20 143 CURVE SMOOTH",
"20 59 OFFCURVE",
"101 -20 OFFCURVE",
"285 -20 CURVE SMOOTH",
"476 -20 OFFCURVE",
"550 68 OFFCURVE",
"550 144 CURVE SMOOTH",
"550 213 OFFCURVE",
"513 251 OFFCURVE",
"431 284 CURVE"
);
},
{
closed = 1;
nodes = (
"225 414 OFFCURVE",
"248 432 OFFCURVE",
"293 432 CURVE SMOOTH",
"338 432 OFFCURVE",
"355 410 OFFCURVE",
"355 392 CURVE SMOOTH",
"355 373 OFFCURVE",
"345 356 OFFCURVE",
"306 332 CURVE",
"283 341 LINE SMOOTH",
"236 358 OFFCURVE",
"225 372 OFFCURVE",
"225 391 CURVE SMOOTH"
);
},
{
closed = 1;
nodes = (
"233 101 OFFCURVE",
"200 124 OFFCURVE",
"200 162 CURVE SMOOTH",
"200 187 OFFCURVE",
"212 217 OFFCURVE",
"237 237 CURVE",
"294 221 LINE SMOOTH",
"356 204 OFFCURVE",
"370 186 OFFCURVE",
"370 158 CURVE SMOOTH",
"370 129 OFFCURVE",
"345 101 OFFCURVE",
"290 101 CURVE SMOOTH"
);
}
);
width = 570;
},
{
layerId = "D8724204-5FB7-4143-B54F-478BABD83301";
paths = (
{
closed = 1;
nodes = (
"393 305 OFFCURVE",
"434 345 OFFCURVE",
"434 406 CURVE SMOOTH",
"434 481 OFFCURVE",
"362 531 OFFCURVE",
"266 531 CURVE SMOOTH",
"165 531 OFFCURVE",
"94 476 OFFCURVE",
"94 403 CURVE SMOOTH",
"94 344 OFFCURVE",
"134 311 OFFCURVE",
"209 283 CURVE",
"114 255 OFFCURVE",
"63 196 OFFCURVE",
"63 129 CURVE SMOOTH",
"63 53 OFFCURVE",
"132 -10 OFFCURVE",
"263 -10 CURVE SMOOTH",
"389 -10 OFFCURVE",
"460 51 OFFCURVE",
"460 129 CURVE SMOOTH",
"460 201 OFFCURVE",
"405 237 OFFCURVE",
"312 269 CURVE"
);
},
{
closed = 1;
nodes = (
"117 464 OFFCURVE",
"172 511 OFFCURVE",
"266 511 CURVE SMOOTH",
"355 511 OFFCURVE",
"411 467 OFFCURVE",
"411 406 CURVE SMOOTH",
"411 349 OFFCURVE",
"370 312 OFFCURVE",
"287 277 CURVE",
"243 293 LINE SMOOTH",
"156 325 OFFCURVE",
"117 349 OFFCURVE",
"117 402 CURVE SMOOTH"
);
},
{
closed = 1;
nodes = (
"148 12 OFFCURVE",
"86 59 OFFCURVE",
"86 131 CURVE SMOOTH",
"86 193 OFFCURVE",
"132 243 OFFCURVE",
"236 274 CURVE",
"282 258 LINE SMOOTH",
"379 224 OFFCURVE",
"437 199 OFFCURVE",
"437 129 CURVE SMOOTH",
"437 58 OFFCURVE",
"374 12 OFFCURVE",
"263 12 CURVE SMOOTH"
);
}
);
width = 522;
}
);
leftKerningGroup = eight.loclIWR;
note = eight.loclIWR;
rightKerningGroup = eight.loclIWR;
unicode = 0038;
},
{
glyphname = five;
lastChange = "2020-09-09 07:39:22 +0000";
layers = (
{
hints = (
{
horizontal = 1;
origin = "{0, 6}";
target = up;
type = BottomGhost;
},
{
horizontal = 1;
origin = "{0, 15}";
target = "{0, 8}";
type = Stem;
},
{
horizontal = 1;
origin = "{0, 13}";
target = down;
type = TopGhost;
},
{
horizontal = 1;
origin = "{0, 5}";
target = up;
type = BottomGhost;
},
{
horizontal = 1;
origin = "{0, 14}";
target = down;
type = TopGhost;
},
{
origin = "{0, 15}";
target = "{0, 12}";
type = Stem;
},
{
origin = "{0, 5}";
target = "{0, 6}";
type = Stem;
}
);
layerId = "FB938A0F-794B-4CBD-9B18-13182D479D81";
paths = (
{
closed = 1;
nodes = (
"303 110 LINE",
"345 201 LINE",
"335 134 OFFCURVE",
"338 -2 OFFCURVE",
"338 -131 CURVE SMOOTH",
"338 -227 LINE",
"520 -207 LINE",
"520 349 LINE",
"257 349 LINE",
"209 256 LINE",
"217 309 OFFCURVE",
"217 467 OFFCURVE",
"217 493 CURVE SMOOTH",
"217 554 LINE",
"35 534 LINE",
"35 110 LINE"
);
}
);
width = 560;
},
{
hints = (
{
horizontal = 1;
origin = "{0, 6}";
target = up;
type = BottomGhost;
},
{
horizontal = 1;
origin = "{0, 15}";
target = "{0, 9}";
type = Stem;
},
{
horizontal = 1;
origin = "{0, 13}";
target = down;
type = TopGhost;
},
{
horizontal = 1;
origin = "{0, 5}";
target = up;
type = BottomGhost;
},
{
horizontal = 1;
origin = "{0, 8}";
target = "{0, 9}";
type = Stem;
},
{
horizontal = 1;
origin = "{0, 14}";
target = down;
type = TopGhost;
},
{
origin = "{0, 15}";
target = "{0, 12}";
type = Stem;
},
{
origin = "{0, 5}";
target = "{0, 6}";
type = Stem;
}
);
layerId = "D8724204-5FB7-4143-B54F-478BABD83301";
paths = (
{
closed = 1;
nodes = (
"173 270 LINE",
"211 289 LINE",
"210 254 OFFCURVE",
"210 202 OFFCURVE",
"210 103 CURVE SMOOTH",
"210 -204 LINE",
"232 -192 LINE",
"232 307 LINE",
"205 307 LINE",
"168 289 LINE",
"168 329 OFFCURVE",
"169 397 OFFCURVE",
"169 475 CURVE SMOOTH",
"169 531 LINE",
"147 519 LINE",
"147 270 LINE"
);
}
);
width = 350;
}
);
leftKerningGroup = i;
note = N;
rightKerningGroup = q;
unicode = 0035;
},
{
glyphname = v;
lastChange = "2020-09-09 07:39:22 +0000";
layers = (
{
hints = (
{
horizontal = 1;
origin = "{0, 5}";
target = up;
type = BottomGhost;
},
{
horizontal = 1;
origin = "{0, 4}";
target = down;
type = TopGhost;
},
{
horizontal = 1;
origin = "{0, 5}";
target = "{0, 2}";
type = Stem;
},
{
origin = "{0, 4}";
target = "{0, 0}";
type = Stem;
}
);
layerId = "FB938A0F-794B-4CBD-9B18-13182D479D81";
paths = (
{
closed = 1;
nodes = (
"541 534 LINE",
"341 534 LINE",
"267 143 LINE",
"200 534 LINE",
"-15 534 LINE",
"148 0 LINE",
"382 0 LINE"
);
}
);
width = 526;
},
{
hints = (
{
horizontal = 1;
origin = "{0, 2}";
target = "{0, 5}";
type = Stem;
},
{
horizontal = 1;
origin = "{0, 4}";
target = down;
type = TopGhost;
}
);
layerId = "D8724204-5FB7-4143-B54F-478BABD83301";
paths = (
{
closed = 1;
nodes = (
"424 519 LINE",
"400 519 LINE",
"228 19 LINE",
"48 519 LINE",
"23 519 LINE",
"214 0 LINE",
"243 0 LINE"
);
}
);
width = 447;
}
);
leftKerningGroup = uni028F;
note = v;
rightKerningGroup = uni028F;
unicode = 0076;
},
{
glyphname = F;
lastChange = "2020-09-09 07:39:22 +0000";
layers = (
{
hints = (
{
horizontal = 1;
origin = "{0, 8}";
target = up;
type = BottomGhost;
},
{
horizontal = 1;
origin = "{0, 5}";
target = "{0, 4}";
type = Stem;
},
{
horizontal = 1;
origin = "{0, 0}";
target = "{0, 1}";
type = Stem;
},
{
horizontal = 1;
origin = "{0, 7}";
target = up;
type = BottomGhost;
},
{
origin = "{0, 7}";
target = "{0, 8}";
type = Stem;
}
);
layerId = "FB938A0F-794B-4CBD-9B18-13182D479D81";
paths = (
{
closed = 1;
nodes = (
"25 534 LINE",
"26 402 LINE",
"251 402 LINE",
"251 215 LINE",
"62 215 LINE",
"62 82 LINE",
"251 82 LINE",
"251 -227 LINE",
"449 -207 LINE",
"449 534 LINE"
);
}
);
width = 491;
},
{
hints = (
{
horizontal = 1;
origin = "{0, 8}";
target = up;
type = BottomGhost;
},
{
horizontal = 1;
origin = "{0, 4}";
target = "{0, 5}";
type = Stem;
},
{
horizontal = 1;
origin = "{0, 0}";
target = "{0, 1}";
type = Stem;
},
{
horizontal = 1;
origin = "{0, 7}";
target = up;
type = BottomGhost;
},
{
origin = "{0, 7}";
target = "{0, 8}";
type = Stem;
}
);
layerId = "D8724204-5FB7-4143-B54F-478BABD83301";
paths = (
{
closed = 1;
nodes = (
"44 519 LINE",
"44 498 LINE",
"336 498 LINE",
"336 179 LINE",
"86 179 LINE",
"86 158 LINE",
"336 158 LINE",
"336 -204 LINE",
"359 -192 LINE",
"359 519 LINE"
);
}
);
width = 477;
}
);
leftKerningGroup = uni018E;
note = F;
rightKerningGroup = q;
unicode = 0046;
},
{
glyphname = seven;
lastChange = "2020-09-09 07:39:22 +0000";
layers = (
{
hints = (
{
horizontal = 1;
origin = "{0, 2}";
target = up;
type = BottomGhost;
},
{
horizontal = 1;
origin = "{0, 4}";
target = "{0, 5}";
type = Stem;
},
{
horizontal = 1;
origin = "{0, 1}";
target = up;
type = BottomGhost;
},
{
origin = "{0, 1}";
target = "{0, 2}";
type = Stem;
}
);
layerId = "FB938A0F-794B-4CBD-9B18-13182D479D81";
paths = (
{
closed = 1;
nodes = (
"257 376 LINE",
"257 -227 LINE",
"463 -207 LINE",
"463 534 LINE",
"0 534 LINE",
"0 376 LINE"
);
}
);
width = 505;
},
{
hints = (
{
horizontal = 1;
origin = "{0, 2}";
target = up;
type = BottomGhost;
},
{
horizontal = 1;
origin = "{0, 4}";
target = "{0, 5}";
type = Stem;
},
{
horizontal = 1;
origin = "{0, 1}";
target = up;
type = BottomGhost;
},
{
origin = "{0, 1}";
target = "{0, 2}";
type = Stem;
}
);
layerId = "D8724204-5FB7-4143-B54F-478BABD83301";
paths = (
{
closed = 1;
nodes = (
"366 497 LINE",
"366 -204 LINE",
"389 -192 LINE",
"389 519 LINE",
"15 519 LINE",
"15 497 LINE"
);
}
);
width = 507;
}
);
leftKerningGroup = uni0442;
note = Gamma;
rightKerningGroup = q;
unicode = 0037;
},
{
glyphname = B;
lastChange = "2020-09-09 07:39:23 +0000";
layers = (
{
layerId = "FB938A0F-794B-4CBD-9B18-13182D479D81";
paths = (
{
closed = 1;
nodes = (
"505 201 OFFCURVE",
"569 287 OFFCURVE",
"569 354 CURVE SMOOTH",
"569 490 OFFCURVE",
"446 534 OFFCURVE",
"251 534 CURVE SMOOTH",
"42 534 LINE",
"42 -207 LINE",
"278 -207 LINE SMOOTH",
"461 -207 OFFCURVE",
"598 -143 OFFCURVE",
"598 22 CURVE SMOOTH",
"598 131 OFFCURVE",
"519 169 OFFCURVE",
"443 185 CURVE"
);
},
{
closed = 1;
nodes = (
"270 415 LINE SMOOTH",
"336 415 OFFCURVE",
"360 396 OFFCURVE",
"360 335 CURVE SMOOTH",
"360 276 OFFCURVE",
"338 235 OFFCURVE",
"275 235 CURVE SMOOTH",
"240 235 LINE",
"240 415 LINE"
);
},
{
closed = 1;
nodes = (
"240 -87 LINE",
"240 118 LINE",
"288 118 LINE SMOOTH",
"352 118 OFFCURVE",
"386 95 OFFCURVE",
"386 31 CURVE SMOOTH",
"386 -51 OFFCURVE",
"343 -87 OFFCURVE",
"280 -87 CURVE SMOOTH"
);
}
);
width = 614;
},
{
layerId = "D8724204-5FB7-4143-B54F-478BABD83301";
paths = (
{
closed = 1;
nodes = (
"432 197 OFFCURVE",
"484 262 OFFCURVE",
"484 351 CURVE SMOOTH",
"484 462 OFFCURVE",
"402 519 OFFCURVE",
"258 519 CURVE SMOOTH",
"118 519 LINE",
"118 -192 LINE",
"293 -192 LINE SMOOTH",
"432 -192 OFFCURVE",
"519 -116 OFFCURVE",
"519 7 CURVE SMOOTH",
"519 124 OFFCURVE",
"444 179 OFFCURVE",
"356 184 CURVE"
);
},
{
closed = 1;
nodes = (
"261 499 LINE SMOOTH",
"390 499 OFFCURVE",
"461 449 OFFCURVE",
"461 350 CURVE SMOOTH",
"461 265 OFFCURVE",
"400 194 OFFCURVE",
"310 193 CURVE SMOOTH",
"140 192 LINE",
"140 499 LINE"
);
},
{
closed = 1;
nodes = (
"140 -171 LINE",
"140 173 LINE",
"315 173 LINE SMOOTH",
"420 173 OFFCURVE",
"496 117 OFFCURVE",
"496 7 CURVE SMOOTH",
"496 -106 OFFCURVE",
"416 -173 OFFCURVE",
"294 -172 CURVE SMOOTH"
);
}
);
width = 586;
}
);
leftKerningGroup = uni0299;
note = B;
rightKerningGroup = B;
unicode = 0042;
},
{
glyphname = c;
lastChange = "2020-09-09 07:39:23 +0000";
layers = (
{
layerId = "FB938A0F-794B-4CBD-9B18-13182D479D81";
paths = (
{
closed = 1;
nodes = (
"126 554 OFFCURVE",
"17 432 OFFCURVE",
"17 263 CURVE SMOOTH",
"17 96 OFFCURVE",
"124 -20 OFFCURVE",
"300 -20 CURVE SMOOTH",
"380 -20 OFFCURVE",
"440 6 OFFCURVE",
"489 46 CURVE",
"404 167 LINE",
"367 144 OFFCURVE",
"344 133 OFFCURVE",
"311 133 CURVE SMOOTH",
"260 133 OFFCURVE",
"223 156 OFFCURVE",
"223 263 CURVE SMOOTH",
"223 371 OFFCURVE",
"255 405 OFFCURVE",
"313 405 CURVE SMOOTH",
"345 405 OFFCURVE",
"375 394 OFFCURVE",
"407 368 CURVE",
"489 483 LINE",
"438 528 OFFCURVE",
"377 554 OFFCURVE",
"295 554 CURVE SMOOTH"
);
}
);
width = 479;
},
{
layerId = "D8724204-5FB7-4143-B54F-478BABD83301";
paths = (
{
closed = 1;
nodes = (
"156 529 OFFCURVE",
"73 426 OFFCURVE",
"73 257 CURVE SMOOTH",
"73 87 OFFCURVE",
"159 -10 OFFCURVE",
"284 -10 CURVE SMOOTH",
"342 -10 OFFCURVE",
"387 12 OFFCURVE",
"423 44 CURVE",
"410 59 LINE",
"377 30 OFFCURVE",
"337 11 OFFCURVE",
"283 11 CURVE SMOOTH",
"175 11 OFFCURVE",
"96 95 OFFCURVE",
"96 257 CURVE SMOOTH",
"96 421 OFFCURVE",
"174 509 OFFCURVE",
"284 509 CURVE SMOOTH",
"335 509 OFFCURVE",
"372 493 OFFCURVE",
"405 464 CURVE",
"418 479 LINE",
"379 514 OFFCURVE",
"339 529 OFFCURVE",
"283 529 CURVE SMOOTH"
);
}
);
width = 464;
}
);
leftKerningGroup = uni0262;
note = c;
rightKerningGroup = c;
unicode = 0063;
},
{
glyphname = f;
lastChange = "2020-09-09 07:39:24 +0000";
layers = (
{
layerId = "FB938A0F-794B-4CBD-9B18-13182D479D81";
paths = (
{
closed = 1;
nodes = (
"345 622 OFFCURVE",
"373 617 OFFCURVE",
"401 602 CURVE",
"453 727 LINE",
"416 747 OFFCURVE",
"354 764 OFFCURVE",
"296 764 CURVE SMOOTH",
"143 764 OFFCURVE",
"70 675 OFFCURVE",
"70 565 CURVE SMOOTH",
"70 534 LINE",
"-2 534 LINE",
"-2 400 LINE",
"70 400 LINE",
"70 0 LINE",
"268 0 LINE",
"268 400 LINE",
"370 400 LINE",
"392 534 LINE",
"268 534 LINE",
"268 555 LINE SMOOTH",
"268 605 OFFCURVE",
"285 622 OFFCURVE",
"323 622 CURVE SMOOTH"
);
}
);
width = 369;
},
{
layerId = "D8724204-5FB7-4143-B54F-478BABD83301";
paths = (
{
closed = 1;
nodes = (
"285 716 OFFCURVE",
"319 706 OFFCURVE",
"352 689 CURVE",
"360 706 LINE",
"327 725 OFFCURVE",
"286 737 OFFCURVE",
"244 737 CURVE SMOOTH",
"171 737 OFFCURVE",
"121 695 OFFCURVE",
"121 617 CURVE SMOOTH",
"121 519 LINE",
"31 519 LINE",
"31 499 LINE",
"121 499 LINE",
"121 0 LINE",
"143 0 LINE",
"143 499 LINE",
"286 499 LINE",
"290 519 LINE",
"143 519 LINE",
"143 614 LINE SMOOTH",
"143 686 OFFCURVE",
"184 716 OFFCURVE",
"246 716 CURVE SMOOTH"
);
}
);
width = 307;
}
);
leftKerningGroup = f;
note = f;
rightKerningGroup = f;
unicode = 0066;
},
{
glyphname = u;
lastChange = "2020-09-09 07:39:24 +0000";
layers = (
{
hints = (
{
horizontal = 1;
origin = "{0, 18}";
target = up;
type = BottomGhost;
},
{
horizontal = 1;
origin = "{0, 10}";
target = down;
type = TopGhost;
},
{
horizontal = 1;
origin = "{0, 18}";
target = "{0, 5}";
type = Stem;
},
{
horizontal = 1;
origin = "{0, 14}";
target = up;
type = BottomGhost;
},
{
origin = "{0, 11}";
target = "{0, 8}";
type = Stem;
},
{
origin = "{0, 2}";
target = "{0, 19}";
type = Stem;
},
{
place = "{345.5, 176.5}";
type = Stem;
}
);
layerId = "FB938A0F-794B-4CBD-9B18-13182D479D81";
paths = (
{
closed = 1;
nodes = (
"522 534 LINE",
"324 534 LINE",
"324 168 LINE",
"306 137 OFFCURVE",
"284 124 OFFCURVE",
"266 124 CURVE SMOOTH",
"247 124 OFFCURVE",
"233 134 OFFCURVE",
"233 176 CURVE SMOOTH",
"233 534 LINE",
"35 534 LINE",
"35 150 LINE SMOOTH",
"35 48 OFFCURVE",
"80 -20 OFFCURVE",
"184 -20 CURVE SMOOTH",
"251 -20 OFFCURVE",
"305 6 OFFCURVE",
"342 58 CURVE",
"349 0 LINE",
"522 0 LINE"
);
}
);
width = 564;
},
{
hints = (
{
horizontal = 1;
origin = "{0, 18}";
target = up;
type = BottomGhost;
},
{
horizontal = 1;
origin = "{0, 10}";
target = down;
type = TopGhost;
},
{
horizontal = 1;
origin = "{0, 5}";
target = "{0, 14}";
type = Stem;
},
{
origin = "{0, 11}";
target = "{0, 8}";
type = Stem;
},
{
origin = "{0, 2}";
target = "{0, 19}";
type = Stem;
}
);
layerId = "D8724204-5FB7-4143-B54F-478BABD83301";
paths = (
{
closed = 1;
nodes = (
"459 519 LINE",
"437 519 LINE",
"437 133 LINE",
"396 61 OFFCURVE",
"342 11 OFFCURVE",
"262 11 CURVE SMOOTH",
"181 11 OFFCURVE",
"135 56 OFFCURVE",
"135 151 CURVE SMOOTH",
"135 519 LINE",
"113 519 LINE",
"113 149 LINE SMOOTH",
"113 46 OFFCURVE",
"167 -10 OFFCURVE",
"259 -10 CURVE SMOOTH",
"345 -10 OFFCURVE",
"403 41 OFFCURVE",
"439 106 CURVE",
"439 0 LINE",
"459 0 LINE"
);
}
);
width = 576;
}
);
leftKerningGroup = uni0250;
note = u;
rightKerningGroup = uni029C;
unicode = 0075;
},
{
glyphname = T;
lastChange = "2020-09-09 07:39:24 +0000";
layers = (
{
layerId = "FB938A0F-794B-4CBD-9B18-13182D479D81";
paths = (
{
closed = 1;
nodes = (
"122 554 OFFCURVE",
"17 442 OFFCURVE",
"17 268 CURVE SMOOTH",
"17 82 OFFCURVE",
"124 -20 OFFCURVE",
"292 -20 CURVE SMOOTH",
"462 -20 OFFCURVE",
"567 92 OFFCURVE",
"567 266 CURVE SMOOTH",
"567 452 OFFCURVE",
"460 554 OFFCURVE",
"292 554 CURVE SMOOTH"
);
},
{
closed = 1;
nodes = (
"337 415 OFFCURVE",
"360 388 OFFCURVE",
"367 321 CURVE",
"217 321 LINE",
"224 386 OFFCURVE",
"247 415 OFFCURVE",
"292 415 CURVE SMOOTH"
);
},
{
closed = 1;
nodes = (
"245 119 OFFCURVE",
"222 148 OFFCURVE",
"216 221 CURVE",
"368 221 LINE",
"362 150 OFFCURVE",
"339 119 OFFCURVE",
"292 119 CURVE SMOOTH"
);
}
);
width = 584;
},
{
layerId = "D8724204-5FB7-4143-B54F-478BABD83301";
paths = (
{
closed = 1;
nodes = (
"156 529 OFFCURVE",
"73 431 OFFCURVE",
"73 259 CURVE SMOOTH",
"73 91 OFFCURVE",
"151 -10 OFFCURVE",
"280 -10 CURVE SMOOTH",
"406 -10 OFFCURVE",
"488 89 OFFCURVE",
"488 261 CURVE SMOOTH",
"488 434 OFFCURVE",
"408 529 OFFCURVE",
"281 529 CURVE SMOOTH"
);
},
{
closed = 1;
nodes = (
"393 509 OFFCURVE",
"461 425 OFFCURVE",
"465 273 CURVE",
"96 273 LINE",
"100 427 OFFCURVE",
"172 509 OFFCURVE",
"281 509 CURVE SMOOTH"
);
},
{
closed = 1;
nodes = (
"166 11 OFFCURVE",
"98 100 OFFCURVE",
"96 253 CURVE",
"465 253 LINE",
"463 97 OFFCURVE",
"391 11 OFFCURVE",
"280 11 CURVE SMOOTH"
);
}
);
width = 560;
}
);
leftKerningGroup = uni0262;
note = uni0473;
rightKerningGroup = uni01F6;
unicode = 0054;
},
{
glyphname = a.case;
lastChange = "2020-09-09 07:39:24 +0000";
layers = (
{
hints = (
{
horizontal = 1;
origin = "{0, 4}";
target = up;
type = BottomGhost;
},
{
horizontal = 1;
origin = "{0, 6}";
target = "{1, 0}";
type = Stem;
},
{
horizontal = 1;
origin = "{0, 3}";
target = down;
type = TopGhost;
},
{
horizontal = 1;
origin = "{1, 1}";
target = "{0, 3}";
type = Stem;
}
);
layerId = "FB938A0F-794B-4CBD-9B18-13182D479D81";
paths = (
{
closed = 1;
nodes = (
"408 0 LINE",
"626 0 LINE",
"424 696 LINE",
"178 696 LINE",
"-25 0 LINE",
"190 0 LINE",
"216 135 LINE",
"381 135 LINE"
);
},
{
closed = 1;
nodes = (
"245 279 LINE",
"298 552 LINE",
"352 279 LINE"
);
}
);
width = 601;
},
{
hints = (
{
horizontal = 1;
origin = "{0, 4}";
target = up;
type = BottomGhost;
},
{
horizontal = 1;
origin = "{0, 6}";
target = "{1, 0}";
type = Stem;
},
{
horizontal = 1;
origin = "{0, 3}";
target = "{1, 1}";
type = Stem;
}
);
layerId = "D8724204-5FB7-4143-B54F-478BABD83301";
paths = (
{
closed = 1;
nodes = (
"505 0 LINE",
"530 0 LINE",
"292 681 LINE",
"265 681 LINE",
"28 0 LINE",
"51 0 LINE",
"121 203 LINE",
"435 203 LINE"
);
},
{
closed = 1;
nodes = (
"128 224 LINE",
"278 663 LINE",
"428 224 LINE"
);
}
);
width = 557;
}
);
leftKerningGroup = A;
note = A;
rightKerningGroup = A;
},
{
glyphname = o.case;
lastChange = "2020-09-09 07:39:25 +0000";
layers = (
{
layerId = "FB938A0F-794B-4CBD-9B18-13182D479D81";
paths = (
{
closed = 1;
nodes = (
"136 716 OFFCURVE",
"20 575 OFFCURVE",
"20 349 CURVE SMOOTH",
"20 118 OFFCURVE",
"136 -20 OFFCURVE",
"345 -20 CURVE SMOOTH",
"554 -20 OFFCURVE",
"670 123 OFFCURVE",
"670 349 CURVE SMOOTH",
"670 580 OFFCURVE",
"554 716 OFFCURVE",
"345 716 CURVE SMOOTH"
);
},
{
closed = 1;
nodes = (
"423 570 OFFCURVE",
"456 510 OFFCURVE",
"456 349 CURVE SMOOTH",
"456 188 OFFCURVE",
"425 126 OFFCURVE",
"345 126 CURVE SMOOTH",
"267 126 OFFCURVE",
"234 188 OFFCURVE",
"234 349 CURVE SMOOTH",
"234 510 OFFCURVE",
"267 570 OFFCURVE",
"345 570 CURVE SMOOTH"
);
}
);
width = 690;
},
{
layerId = "D8724204-5FB7-4143-B54F-478BABD83301";
paths = (
{
closed = 1;
nodes = (
"187 691 OFFCURVE",
"78 563 OFFCURVE",
"78 339 CURVE SMOOTH",
"78 115 OFFCURVE",
"185 -10 OFFCURVE",
"344 -10 CURVE SMOOTH",
"511 -10 OFFCURVE",
"611 119 OFFCURVE",
"611 340 CURVE SMOOTH",
"611 569 OFFCURVE",
"505 691 OFFCURVE",
"344 691 CURVE SMOOTH"
);
},
{
closed = 1;
nodes = (
"492 670 OFFCURVE",
"588 557 OFFCURVE",
"588 340 CURVE SMOOTH",
"588 127 OFFCURVE",
"498 12 OFFCURVE",
"344 12 CURVE SMOOTH",
"199 12 OFFCURVE",
"101 127 OFFCURVE",
"101 339 CURVE SMOOTH",
"101 554 OFFCURVE",
"200 670 OFFCURVE",
"344 670 CURVE SMOOTH"
);
}
);
width = 689;
}
);
leftKerningGroup = uni2C6D;
note = O;
rightKerningGroup = D;
},
{
glyphname = e.case;
lastChange = "2020-09-09 07:39:25 +0000";
layers = (
{
layerId = "FB938A0F-794B-4CBD-9B18-13182D479D81";
paths = (
{
closed = 1;
nodes = (
"436 -20 OFFCURVE",
"515 11 OFFCURVE",
"585 71 CURVE",
"496 178 LINE",
"458 151 OFFCURVE",
"417 126 OFFCURVE",
"350 126 CURVE SMOOTH",
"274 126 OFFCURVE",
"231 175 OFFCURVE",
"227 280 CURVE",
"617 280 LINE",
"621 301 OFFCURVE",
"624 328 OFFCURVE",
"624 356 CURVE SMOOTH",
"624 569 OFFCURVE",
"538 716 OFFCURVE",
"325 716 CURVE SMOOTH",
"134 716 OFFCURVE",
"20 587 OFFCURVE",
"20 346 CURVE SMOOTH",
"20 106 OFFCURVE",
"132 -20 OFFCURVE",
"329 -20 CURVE SMOOTH"
);
},
{
closed = 1;
nodes = (
"387 570 OFFCURVE",
"427 530 OFFCURVE",
"427 415 CURVE",
"227 415 LINE",
"229 531 OFFCURVE",
"263 570 OFFCURVE",
"325 570 CURVE SMOOTH"
);
}
);
width = 634;
},
{
layerId = "D8724204-5FB7-4143-B54F-478BABD83301";
paths = (
{
closed = 1;
nodes = (
"410 -10 OFFCURVE",
"470 16 OFFCURVE",
"533 69 CURVE",
"520 85 LINE",
"457 34 OFFCURVE",
"401 11 OFFCURVE",
"327 11 CURVE SMOOTH",
"193 11 OFFCURVE",
"108 100 OFFCURVE",
"102 322 CURVE",
"577 322 LINE",
"578 335 OFFCURVE",
"578 344 OFFCURVE",
"578 356 CURVE SMOOTH",
"578 575 OFFCURVE",
"480 691 OFFCURVE",
"328 691 CURVE SMOOTH",
"180 691 OFFCURVE",
"77 580 OFFCURVE",
"77 344 CURVE SMOOTH",
"77 92 OFFCURVE",
"174 -10 OFFCURVE",
"327 -10 CURVE SMOOTH"
);
},
{
closed = 1;
nodes = (
"466 669 OFFCURVE",
"556 561 OFFCURVE",
"554 342 CURVE",
"102 342 LINE",
"102 572 OFFCURVE",
"197 669 OFFCURVE",
"327 669 CURVE SMOOTH"
);
}
);
width = 646;
}
);
leftKerningGroup = uni2C6D;
note = uni018F;
rightKerningGroup = D;
},
{
glyphname = E.case;
lastChange = "2020-09-09 07:39:25 +0000";
layers = (
{
hints = (
{
horizontal = 1;
origin = "{0, 2}";
target = "{0, 5}";
type = Stem;
},
{
horizontal = 1;
origin = "{0, 6}";
target = "{0, 9}";
type = Stem;
},
{
horizontal = 1;
origin = "{0, 10}";
target = "{0, 1}";
type = Stem;
},
{
origin = "{0, 2}";
target = "{0, 5}";
type = Stem;
}
);
layerId = "FB938A0F-794B-4CBD-9B18-13182D479D81";
paths = (
{
closed = 1;
nodes = (
"500 696 LINE",
"43 696 LINE",
"43 0 LINE",
"495 0 LINE",
"495 144 LINE",
"249 144 LINE",
"249 284 LINE",
"451 284 LINE",
"451 423 LINE",
"249 423 LINE",
"249 553 LINE",
"479 553 LINE"
);
}
);
width = 520;
},
{
hints = (
{
horizontal = 1;
origin = "{0, 2}";
target = "{0, 5}";
type = Stem;
},
{
horizontal = 1;
origin = "{0, 6}";
target = "{0, 9}";
type = Stem;
},
{
horizontal = 1;
origin = "{0, 1}";
target = "{0, 10}";
type = Stem;
},
{
origin = "{0, 2}";
target = "{0, 5}";
type = Stem;
}
);
layerId = "D8724204-5FB7-4143-B54F-478BABD83301";
paths = (
{
closed = 1;
nodes = (
"444 681 LINE",
"123 681 LINE",
"123 0 LINE",
"451 0 LINE",
"451 21 LINE",
"146 21 LINE",
"146 349 LINE",
"400 349 LINE",
"400 370 LINE",
"146 370 LINE",
"146 660 LINE",
"441 660 LINE"
);
}
);
width = 494;
}
);
leftKerningGroup = B;
note = E;
rightKerningGroup = AE;
},
{
glyphname = A.case;
lastChange = "2020-09-09 07:39:25 +0000";
layers = (
{
hints = (
{
horizontal = 1;
origin = "{0, 3}";
target = up;
type = BottomGhost;
},
{
horizontal = 1;
origin = "{1, 1}";
target = "{0, 0}";
type = Stem;
},
{
horizontal = 1;
origin = "{0, 2}";
target = down;
type = TopGhost;
},
{
horizontal = 1;
origin = "{0, 3}";
target = "{1, 0}";
type = Stem;
}
);
layerId = "FB938A0F-794B-4CBD-9B18-13182D479D81";
paths = (
{
closed = 1;
nodes = (
"216 561 LINE",
"190 696 LINE",
"-25 696 LINE",
"178 0 LINE",
"424 0 LINE",
"626 696 LINE",
"408 696 LINE",
"381 561 LINE"
);
},
{
closed = 1;
nodes = (
"298 144 LINE",
"245 417 LINE",
"352 417 LINE"
);
}
);
width = 601;
},
{
hints = (
{
horizontal = 1;
origin = "{0, 3}";
target = "{1, 0}";
type = Stem;
},
{
horizontal = 1;
origin = "{1, 1}";
target = "{0, 0}";
type = Stem;
},
{
horizontal = 1;
origin = "{0, 2}";
target = down;
type = TopGhost;
}
);
layerId = "D8724204-5FB7-4143-B54F-478BABD83301";
paths = (
{
closed = 1;
nodes = (
"121 478 LINE",
"51 681 LINE",
"28 681 LINE",
"265 0 LINE",
"292 0 LINE",
"530 681 LINE",
"505 681 LINE",
"435 478 LINE"
);
},
{
closed = 1;
nodes = (
"278 18 LINE",
"128 457 LINE",
"428 457 LINE"
);
}
);
width = 558;
}
);
leftKerningGroup = V;
note = A;
rightKerningGroup = V;
},
{
glyphname = Y.case;
lastChange = "2020-09-09 07:39:26 +0000";
layers = (
{
layerId = "FB938A0F-794B-4CBD-9B18-13182D479D81";
paths = (
{
closed = 1;
nodes = (
"20 87 OFFCURVE",
"125 -20 OFFCURVE",
"305 -20 CURVE SMOOTH",
"485 -20 OFFCURVE",
"590 87 OFFCURVE",
"590 261 CURVE SMOOTH",
"590 372 OFFCURVE",
"542 474 OFFCURVE",
"440 543 CURVE",
"485 553 OFFCURVE",
"533 558 OFFCURVE",
"566 558 CURVE",
"566 704 LINE",
"475 704 OFFCURVE",
"383 683 OFFCURVE",
"305 627 CURVE",
"227 683 OFFCURVE",
"135 704 OFFCURVE",
"44 704 CURVE",
"44 558 LINE",
"77 558 OFFCURVE",
"125 553 OFFCURVE",
"170 543 CURVE",
"68 474 OFFCURVE",
"20 372 OFFCURVE",
"20 261 CURVE SMOOTH"
);
},
{
closed = 1;
nodes = (
"230 354 OFFCURVE",
"256 419 OFFCURVE",
"305 478 CURVE",
"354 419 OFFCURVE",
"380 354 OFFCURVE",
"380 265 CURVE SMOOTH",
"380 165 OFFCURVE",
"359 124 OFFCURVE",
"305 124 CURVE SMOOTH",
"251 124 OFFCURVE",
"230 165 OFFCURVE",
"230 265 CURVE SMOOTH"
);
}
);
width = 610;
},
{
layerId = "D8724204-5FB7-4143-B54F-478BABD83301";
paths = (
{
closed = 1;
nodes = (
"78 99 OFFCURVE",
"153 -10 OFFCURVE",
"301 -10 CURVE SMOOTH",
"447 -10 OFFCURVE",
"521 99 OFFCURVE",
"521 262 CURVE SMOOTH",
"521 441 OFFCURVE",
"426 547 OFFCURVE",
"317 620 CURVE",
"381 651 OFFCURVE",
"448 670 OFFCURVE",
"515 670 CURVE",
"515 690 LINE",
"441 690 OFFCURVE",
"368 670 OFFCURVE",
"300 633 CURVE",
"232 670 OFFCURVE",
"158 690 OFFCURVE",
"83 690 CURVE",
"83 670 LINE",
"149 670 OFFCURVE",
"218 651 OFFCURVE",
"282 621 CURVE",
"165 547 OFFCURVE",
"78 441 OFFCURVE",
"78 266 CURVE SMOOTH"
);
},
{
closed = 1;
nodes = (
"102 436 OFFCURVE",
"186 540 OFFCURVE",
"300 611 CURVE",
"405 540 OFFCURVE",
"497 436 OFFCURVE",
"497 263 CURVE SMOOTH",
"497 110 OFFCURVE",
"433 11 OFFCURVE",
"301 11 CURVE SMOOTH",
"168 11 OFFCURVE",
"102 110 OFFCURVE",
"102 266 CURVE SMOOTH"
);
}
);
width = 599;
}
);
note = uni10FE.case;
},
{
glyphname = L.case;
lastChange = "2020-09-09 07:39:26 +0000";
layers = (
{
layerId = "FB938A0F-794B-4CBD-9B18-13182D479D81";
paths = (
{
closed = 1;
nodes = (
"20 696 LINE",
"20 554 LINE",
"224 554 LINE",
"224 162 LINE SMOOTH",
"224 146 OFFCURVE",
"216 137 OFFCURVE",
"200 137 CURVE SMOOTH",
"191 137 OFFCURVE",
"84 149 OFFCURVE",
"79 151 CURVE",
"44 0 LINE",
"70 -10 OFFCURVE",
"209 -18 OFFCURVE",
"254 -18 CURVE SMOOTH",
"370 -18 OFFCURVE",
"426 45 OFFCURVE",
"426 154 CURVE SMOOTH",
"426 554 LINE",
"490 554 LINE SMOOTH",
"530 554 OFFCURVE",
"545 535 OFFCURVE",
"545 488 CURVE SMOOTH",
"545 0 LINE",
"751 0 LINE",
"751 496 LINE SMOOTH",
"751 633 OFFCURVE",
"702 696 OFFCURVE",
"549 696 CURVE SMOOTH"
);
}
);
width = 794;
},
{
layerId = "D8724204-5FB7-4143-B54F-478BABD83301";
paths = (
{
closed = 1;
nodes = (
"43 681 LINE",
"43 661 LINE",
"248 661 LINE",
"248 73 LINE SMOOTH",
"248 42 OFFCURVE",
"211 11 OFFCURVE",
"177 11 CURVE SMOOTH",
"163 11 OFFCURVE",
"99 14 OFFCURVE",
"87 19 CURVE",
"81 0 LINE",
"94 -5 OFFCURVE",
"160 -10 OFFCURVE",
"178 -10 CURVE SMOOTH",
"221 -10 OFFCURVE",
"270 26 OFFCURVE",
"270 72 CURVE SMOOTH",
"270 661 LINE",
"387 661 LINE SMOOTH",
"485 661 OFFCURVE",
"504 620 OFFCURVE",
"504 522 CURVE SMOOTH",
"504 0 LINE",
"526 0 LINE",
"526 524 LINE SMOOTH",
"526 634 OFFCURVE",
"501 681 OFFCURVE",
"387 681 CURVE SMOOTH"
);
}
);
width = 646;
}
);
leftKerningGroup = T;
note = uni05EA;
rightKerningGroup = uni2C6D;
},
{
glyphname = six.case;
lastChange = "2020-09-09 07:39:27 +0000";
layers = (
{
layerId = "FB938A0F-794B-4CBD-9B18-13182D479D81";
paths = (
{
closed = 1;
nodes = (
"110 716 OFFCURVE",
"23 621 OFFCURVE",
"23 478 CURVE SMOOTH",
"23 241 LINE SMOOTH",
"23 76 OFFCURVE",
"113 -20 OFFCURVE",
"298 -20 CURVE SMOOTH",
"484 -20 OFFCURVE",
"583 87 OFFCURVE",
"583 250 CURVE SMOOTH",
"583 390 OFFCURVE",
"488 489 OFFCURVE",
"355 489 CURVE SMOOTH",
"305 489 OFFCURVE",
"256 474 OFFCURVE",
"229 454 CURVE",
"229 517 LINE SMOOTH",
"229 556 OFFCURVE",
"247 579 OFFCURVE",
"295 579 CURVE SMOOTH",
"338 579 OFFCURVE",
"362 563 OFFCURVE",
"362 537 CURVE SMOOTH",
"362 536 OFFCURVE",
"362 535 OFFCURVE",
"362 534 CURVE",
"559 521 LINE",
"561 526 OFFCURVE",
"563 535 OFFCURVE",
"563 547 CURVE SMOOTH",
"563 636 OFFCURVE",
"474 716 OFFCURVE",
"299 716 CURVE SMOOTH"
);
},
{
closed = 1;
nodes = (
"245 126 OFFCURVE",
"229 170 OFFCURVE",
"229 241 CURVE SMOOTH",
"229 329 LINE",
"247 344 OFFCURVE",
"269 351 OFFCURVE",
"293 351 CURVE SMOOTH",
"343 351 OFFCURVE",
"371 318 OFFCURVE",
"371 240 CURVE SMOOTH",
"371 153 OFFCURVE",
"341 126 OFFCURVE",
"299 126 CURVE SMOOTH"
);
}
);
width = 600;
},
{
layerId = "D8724204-5FB7-4143-B54F-478BABD83301";
paths = (
{
closed = 1;
nodes = (
"171 691 OFFCURVE",
"103 625 OFFCURVE",
"103 507 CURVE SMOOTH",
"103 227 LINE SMOOTH",
"103 79 OFFCURVE",
"172 -11 OFFCURVE",
"304 -11 CURVE SMOOTH",
"440 -11 OFFCURVE",
"512 84 OFFCURVE",
"512 230 CURVE SMOOTH",
"512 373 OFFCURVE",
"435 478 OFFCURVE",
"303 478 CURVE SMOOTH",
"209 478 OFFCURVE",
"154 422 OFFCURVE",
"125 363 CURVE",
"125 506 LINE SMOOTH",
"125 615 OFFCURVE",
"183 671 OFFCURVE",
"303 671 CURVE SMOOTH",
"404 671 OFFCURVE",
"463 628 OFFCURVE",
"463 569 CURVE SMOOTH",
"463 558 OFFCURVE",
"462 551 OFFCURVE",
"460 544 CURVE",
"482 541 LINE",
"484 550 OFFCURVE",
"485 558 OFFCURVE",
"485 569 CURVE SMOOTH",
"485 639 OFFCURVE",
"415 691 OFFCURVE",
"303 691 CURVE SMOOTH"
);
},
{
closed = 1;
nodes = (
"184 10 OFFCURVE",
"125 92 OFFCURVE",
"125 227 CURVE SMOOTH",
"125 332 LINE",
"156 401 OFFCURVE",
"217 457 OFFCURVE",
"303 457 CURVE SMOOTH",
"421 457 OFFCURVE",
"489 363 OFFCURVE",
"489 230 CURVE SMOOTH",
"489 92 OFFCURVE",
"425 10 OFFCURVE",
"304 10 CURVE SMOOTH"
);
}
);
width = 585;
}
);
leftKerningGroup = uni10DC.case;
note = uni10DB.case;
rightKerningGroup = uni10DC.case;
},
{
glyphname = two.case;
lastChange = "2020-09-09 07:39:27 +0000";
layers = (
{
hints = (
{
horizontal = 1;
origin = "{0, 5}";
target = "{1, 8}";
type = Stem;
},
{
horizontal = 1;
origin = "{1, 5}";
target = "{0, 12}";
type = Stem;
},
{
horizontal = 1;
origin = "{0, 9}";
target = "{0, 8}";
type = Stem;
},
{
origin = "{0, 2}";
target = "{1, 2}";
type = Stem;
},
{
origin = "{1, 7}";
target = "{0, 6}";
type = Stem;
}
);
layerId = "FB938A0F-794B-4CBD-9B18-13182D479D81";
paths = (
{
closed = 1;
nodes = (
"113 456 OFFCURVE",
"10 382 OFFCURVE",
"10 235 CURVE SMOOTH",
"10 80 OFFCURVE",
"126 0 OFFCURVE",
"285 0 CURVE SMOOTH",
"563 0 LINE",
"563 696 LINE",
"105 696 LINE",
"105 543 LINE",
"357 543 LINE",
"357 456 LINE",
"293 456 LINE SMOOTH"
);
},
{
closed = 1;
nodes = (
"251 145 OFFCURVE",
"224 181 OFFCURVE",
"224 233 CURVE SMOOTH",
"224 282 OFFCURVE",
"248 318 OFFCURVE",
"316 318 CURVE SMOOTH",
"357 318 LINE",
"357 145 LINE",
"312 145 LINE SMOOTH"
);
}
);
width = 606;
},
{
hints = (
{
horizontal = 1;
origin = "{0, 5}";
target = "{1, 8}";
type = Stem;
},
{
horizontal = 1;
origin = "{1, 5}";
target = "{0, 12}";
type = Stem;
},
{
horizontal = 1;
origin = "{0, 8}";
target = "{0, 9}";
type = Stem;
},
{
origin = "{0, 2}";
target = "{1, 2}";
type = Stem;
},
{
place = "{416, 24}";
type = Stem;
}
);
layerId = "D8724204-5FB7-4143-B54F-478BABD83301";
paths = (
{
closed = 1;
nodes = (
"144 405 OFFCURVE",
"61 340 OFFCURVE",
"61 211 CURVE SMOOTH",
"61 66 OFFCURVE",
"151 0 OFFCURVE",
"285 0 CURVE SMOOTH",
"439 0 LINE",
"441 681 LINE",
"125 681 LINE",
"125 660 LINE",
"416 660 LINE",
"416 405 LINE",
"286 405 LINE SMOOTH"
);
},
{
closed = 1;
nodes = (
"160 21 OFFCURVE",
"84 80 OFFCURVE",
"84 211 CURVE SMOOTH",
"84 329 OFFCURVE",
"158 384 OFFCURVE",
"284 384 CURVE SMOOTH",
"416 384 LINE",
"416 21 LINE",
"279 21 LINE SMOOTH"
);
}
);
width = 562;
}
);
leftKerningGroup = g.ss04;
note = uni0182;
rightKerningGroup = uni2C6D;
},
{
glyphname = b.case;
lastChange = "2020-09-09 07:44:43 +0000";
layers = (
{
layerId = "FB938A0F-794B-4CBD-9B18-13182D479D81";
paths = (
{
closed = 1;
nodes = (
"5 696 LINE",
"5 542 LINE",
"174 542 LINE",
"174 0 LINE",
"452 0 LINE SMOOTH",
"611 0 OFFCURVE",
"727 80 OFFCURVE",
"727 235 CURVE SMOOTH",
"727 382 OFFCURVE",
"624 456 OFFCURVE",
"444 456 CURVE SMOOTH",
"380 456 LINE",
"380 542 LINE",
"542 542 LINE",
"562 696 LINE"
);
},
{
closed = 1;
nodes = (
"380 145 LINE",
"380 318 LINE",
"421 318 LINE SMOOTH",
"489 318 OFFCURVE",
"513 282 OFFCURVE",
"513 233 CURVE SMOOTH",
"513 181 OFFCURVE",
"486 145 OFFCURVE",
"425 145 CURVE SMOOTH"
);
}
);
width = 737;
},
{
layerId = "D8724204-5FB7-4143-B54F-478BABD83301";
paths = (
{
closed = 1;
nodes = (
"-30 681 LINE",
"-30 660 LINE",
"180 660 LINE",
"180 0 LINE",
"334 0 LINE SMOOTH",
"468 0 OFFCURVE",
"558 66 OFFCURVE",
"558 211 CURVE SMOOTH",
"558 340 OFFCURVE",
"475 405 OFFCURVE",
"333 405 CURVE SMOOTH",
"203 405 LINE",
"203 660 LINE",
"413 660 LINE",
"418 681 LINE"
);
},
{
closed = 1;
nodes = (
"203 21 LINE",
"203 384 LINE",
"335 384 LINE SMOOTH",
"461 384 OFFCURVE",
"535 329 OFFCURVE",
"535 211 CURVE SMOOTH",
"535 80 OFFCURVE",
"459 21 OFFCURVE",
"340 21 CURVE SMOOTH"
);
}
);
width = 619;
}
);
leftKerningGroup = T;
note = uni0182;
rightKerningGroup = uni0182;
},
{
glyphname = p.case;
lastChange = "2020-09-09 07:39:27 +0000";
layers = (
{
layerId = "FB938A0F-794B-4CBD-9B18-13182D479D81";
paths = (
{
closed = 1;
nodes = (
"43 696 LINE",
"43 0 LINE",
"249 0 LINE",
"249 217 LINE",
"317 217 LINE SMOOTH",
"482 217 OFFCURVE",
"596 299 OFFCURVE",
"596 462 CURVE SMOOTH",
"596 618 OFFCURVE",
"481 696 OFFCURVE",
"294 696 CURVE SMOOTH"
);
},
{
closed = 1;
nodes = (
"249 362 LINE",
"249 553 LINE",
"291 553 LINE SMOOTH",
"359 553 OFFCURVE",
"386 519 OFFCURVE",
"386 462 CURVE SMOOTH",
"386 394 OFFCURVE",
"355 362 OFFCURVE",
"297 362 CURVE SMOOTH"
);
}
);
width = 611;
},
{
layerId = "D8724204-5FB7-4143-B54F-478BABD83301";
paths = (
{
closed = 1;
nodes = (
"123 681 LINE",
"123 0 LINE",
"146 0 LINE",
"146 282 LINE",
"256 282 LINE SMOOTH",
"401 282 OFFCURVE",
"501 337 OFFCURVE",
"501 484 CURVE SMOOTH",
"501 623 OFFCURVE",
"416 681 OFFCURVE",
"261 681 CURVE SMOOTH"
);
},
{
closed = 1;
nodes = (
"146 303 LINE",
"146 660 LINE",
"261 660 LINE SMOOTH",
"402 660 OFFCURVE",
"477 612 OFFCURVE",
"477 483 CURVE SMOOTH",
"477 348 OFFCURVE",
"388 303 OFFCURVE",
"258 303 CURVE SMOOTH"
);
}
);
width = 558;
}
);
leftKerningGroup = B;
note = P;
rightKerningGroup = P;
},
{
glyphname = m.case;
lastChange = "2020-09-09 07:39:27 +0000";
layers = (
{
hints = (
{
horizontal = 1;
origin = "{0, 5}";
target = up;
type = BottomGhost;
},
{
horizontal = 1;
origin = "{0, 4}";
target = down;
type = TopGhost;
},
{
horizontal = 1;
origin = "{0, 4}";
target = "{0, 10}";
type = Stem;
}
);
layerId = "FB938A0F-794B-4CBD-9B18-13182D479D81";
paths = (
{
closed = 1;
nodes = (
"726 696 LINE",
"471 696 LINE",
"399 245 LINE",
"319 696 LINE",
"65 696 LINE",
"15 0 LINE",
"218 0 LINE",
"223 248 LINE SMOOTH",
"225 342 OFFCURVE",
"221 416 OFFCURVE",
"210 531 CURVE",
"298 70 LINE",
"493 70 LINE",
"575 531 LINE",
"566 427 OFFCURVE",
"566 337 OFFCURVE",
"568 247 CURVE SMOOTH",
"573 0 LINE",
"776 0 LINE"
);
}
);
width = 791;
},
{
hints = (
{
horizontal = 1;
origin = "{0, 5}";
target = up;
type = BottomGhost;
},
{
horizontal = 1;
origin = "{0, 11}";
target = "{0, 2}";
type = Stem;
},
{
horizontal = 1;
origin = "{0, 4}";
target = "{0, 10}";
type = Stem;
},
{
origin = "{0, 13}";
target = "{0, 0}";
type = Stem;
}
);
layerId = "D8724204-5FB7-4143-B54F-478BABD83301";
paths = (
{
closed = 1;
nodes = (
"609 681 LINE",
"575 681 LINE",
"381 112 LINE",
"185 681 LINE",
"151 681 LINE",
"78 0 LINE",
"100 0 LINE",
"137 354 LINE SMOOTH",
"148 463 OFFCURVE",
"165 605 OFFCURVE",
"170 660 CURVE",
"370 84 LINE",
"392 84 LINE",
"589 660 LINE",
"596 592 OFFCURVE",
"611 458 OFFCURVE",
"623 345 CURVE SMOOTH",
"662 0 LINE",
"684 0 LINE"
);
}
);
width = 762;
}
);
leftKerningGroup = M;
note = M;
rightKerningGroup = M;
},
{
glyphname = w.case;
lastChange = "2020-09-09 07:39:27 +0000";
layers = (
{
hints = (
{
horizontal = 1;
origin = "{0, 8}";
target = "{0, 5}";
type = Stem;
},
{
horizontal = 1;
origin = "{0, 7}";
target = down;
type = TopGhost;
}
);
layerId = "FB938A0F-794B-4CBD-9B18-13182D479D81";
paths = (
{
closed = 1;
nodes = (
"859 696 LINE",
"661 696 LINE",
"601 149 LINE",
"539 696 LINE",
"324 696 LINE",
"250 149 LINE",
"206 696 LINE",
"0 696 LINE",
"97 0 LINE",
"359 0 LINE",
"428 500 LINE",
"490 0 LINE",
"758 0 LINE"
);
}
);
width = 859;
},
{
hints = (
{
horizontal = 1;
origin = "{0, 8}";
target = "{0, 5}";
type = Stem;
},
{
horizontal = 1;
origin = "{0, 7}";
target = "{0, 10}";
type = Stem;
}
);
layerId = "D8724204-5FB7-4143-B54F-478BABD83301";
paths = (
{
closed = 1;
nodes = (
"752 681 LINE",
"729 681 LINE",
"580 24 LINE",
"409 681 LINE",
"381 681 LINE",
"212 24 LINE",
"62 681 LINE",
"38 681 LINE",
"197 0 LINE",
"223 0 LINE",
"395 659 LINE",
"567 0 LINE",
"593 0 LINE"
);
}
);
width = 790;
}
);
leftKerningGroup = W;
note = W;
rightKerningGroup = W;
},
{
glyphname = j.case;
lastChange = "2020-09-09 07:39:28 +0000";
layers = (
{
layerId = "FB938A0F-794B-4CBD-9B18-13182D479D81";
paths = (
{
closed = 1;
nodes = (
"284 696 LINE",
"78 696 LINE",
"78 118 LINE SMOOTH",
"78 41 OFFCURVE",
"69 -10 OFFCURVE",
"-20 -44 CURVE",
"35 -189 LINE",
"156 -149 OFFCURVE",
"284 -83 OFFCURVE",
"284 111 CURVE SMOOTH"
);
}
);
width = 325;
},
{
layerId = "D8724204-5FB7-4143-B54F-478BABD83301";
paths = (
{
closed = 1;
nodes = (
"161 681 LINE",
"138 681 LINE",
"138 89 LINE SMOOTH",
"138 -4 OFFCURVE",
"116 -40 OFFCURVE",
"23 -83 CURVE",
"30 -100 LINE",
"138 -53 OFFCURVE",
"161 -13 OFFCURVE",
"161 87 CURVE SMOOTH"
);
}
);
width = 277;
}
);
leftKerningGroup = J;
note = J;
rightKerningGroup = IJ;
},
{
glyphname = q.case;
lastChange = "2020-09-09 07:39:28 +0000";
layers = (
{
layerId = "FB938A0F-794B-4CBD-9B18-13182D479D81";
paths = (
{
closed = 1;
nodes = (
"582 94 OFFCURVE",
"670 182 OFFCURVE",
"670 349 CURVE SMOOTH",
"670 580 OFFCURVE",
"554 716 OFFCURVE",
"345 716 CURVE SMOOTH",
"136 716 OFFCURVE",
"20 575 OFFCURVE",
"20 349 CURVE SMOOTH",
"20 118 OFFCURVE",
"136 -16 OFFCURVE",
"330 -16 CURVE SMOOTH",
"462 -16 OFFCURVE",
"543 -100 OFFCURVE",
"599 -173 CURVE",
"720 -15 LINE",
"661 29 OFFCURVE",
"601 48 OFFCURVE",
"504 48 CURVE"
);
},
{
closed = 1;
nodes = (
"234 510 OFFCURVE",
"267 570 OFFCURVE",
"345 570 CURVE SMOOTH",
"423 570 OFFCURVE",
"456 510 OFFCURVE",
"456 349 CURVE SMOOTH",
"456 188 OFFCURVE",
"425 126 OFFCURVE",
"345 126 CURVE SMOOTH",
"267 126 OFFCURVE",
"234 188 OFFCURVE",
"234 349 CURVE SMOOTH"
);
}
);
width = 690;
},
{
layerId = "D8724204-5FB7-4143-B54F-478BABD83301";
paths = (
{
closed = 1;
nodes = (
"529 29 OFFCURVE",
"611 134 OFFCURVE",
"611 340 CURVE SMOOTH",
"611 569 OFFCURVE",
"505 691 OFFCURVE",
"344 691 CURVE SMOOTH",
"187 691 OFFCURVE",
"78 563 OFFCURVE",
"78 339 CURVE SMOOTH",
"78 115 OFFCURVE",
"185 -8 OFFCURVE",
"344 -8 CURVE SMOOTH",
"471 -8 OFFCURVE",
"545 -23 OFFCURVE",
"614 -81 CURVE",
"630 -62 LINE",
"572 -11 OFFCURVE",
"495 4 OFFCURVE",
"413 6 CURVE"
);
},
{
closed = 1;
nodes = (
"101 554 OFFCURVE",
"200 670 OFFCURVE",
"344 670 CURVE SMOOTH",
"492 670 OFFCURVE",
"588 557 OFFCURVE",
"588 340 CURVE SMOOTH",
"588 127 OFFCURVE",
"498 12 OFFCURVE",
"344 12 CURVE SMOOTH",
"199 12 OFFCURVE",
"101 127 OFFCURVE",
"101 339 CURVE SMOOTH"
);
}
);
width = 689;
}
);
leftKerningGroup = uni2C6D;
note = Q;
rightKerningGroup = D;
},
{
glyphname = x.case;
lastChange = "2020-09-09 07:39:28 +0000";
layers = (
{
hints = (
{
horizontal = 1;
origin = "{0, 7}";
target = up;
type = BottomGhost;
},
{
horizontal = 1;
origin = "{0, 5}";
target = down;
type = TopGhost;
}
);
layerId = "FB938A0F-794B-4CBD-9B18-13182D479D81";
paths = (
{
closed = 1;
nodes = (
"422 375 LINE",
"602 696 LINE",
"385 696 LINE",
"300 496 LINE",
"224 696 LINE",
"3 696 LINE",
"176 369 LINE",
"-10 0 LINE",
"208 0 LINE",
"298 239 LINE",
"394 0 LINE",
"616 0 LINE"
);
}
);
width = 606;
},
{
hints = (
{
horizontal = 1;
origin = "{0, 7}";
target = up;
type = BottomGhost;
},
{
horizontal = 1;
origin = "{0, 5}";
target = down;
type = TopGhost;
}
);
layerId = "D8724204-5FB7-4143-B54F-478BABD83301";
paths = (
{
closed = 1;
nodes = (
"254 370 LINE",
"437 681 LINE",
"413 681 LINE",
"240 384 LINE",
"67 681 LINE",
"41 681 LINE",
"227 369 LINE",
"16 0 LINE",
"41 0 LINE",
"240 355 LINE",
"444 0 LINE",
"469 0 LINE"
);
}
);
width = 486;
}
);
leftKerningGroup = uniA7B3;
note = X;
rightKerningGroup = uniA7B3;
},
{
glyphname = y.case;
lastChange = "2020-09-09 07:39:28 +0000";
layers = (
{
hints = (
{
horizontal = 1;
origin = "{0, 6}";
target = up;
type = BottomGhost;
},
{
horizontal = 1;
origin = "{0, 4}";
target = down;
type = TopGhost;
},
{
origin = "{0, 6}";
target = "{0, 7}";
type = Stem;
}
);
layerId = "FB938A0F-794B-4CBD-9B18-13182D479D81";
paths = (
{
closed = 1;
nodes = (
"635 696 LINE",
"417 696 LINE",
"313 412 LINE",
"210 696 LINE",
"-15 696 LINE",
"207 256 LINE",
"207 0 LINE",
"413 0 LINE",
"413 257 LINE"
);
}
);
width = 620;
},
{
hints = (
{
horizontal = 1;
origin = "{0, 6}";
target = up;
type = BottomGhost;
},
{
horizontal = 1;
origin = "{0, 4}";
target = down;
type = TopGhost;
},
{
origin = "{0, 6}";
target = "{0, 7}";
type = Stem;
}
);
layerId = "D8724204-5FB7-4143-B54F-478BABD83301";
paths = (
{
closed = 1;
nodes = (
"473 681 LINE",
"447 681 LINE",
"249 292 LINE",
"47 681 LINE",
"21 681 LINE",
"237 270 LINE",
"237 0 LINE",
"260 0 LINE",
"260 271 LINE"
);
}
);
width = 494;
}
);
leftKerningGroup = uni0194;
note = Y;
rightKerningGroup = uni0194;
},
{
glyphname = n.case;
lastChange = "2020-09-09 07:39:28 +0000";
layers = (
{
hints = (
{
horizontal = 1;
origin = "{0, 11}";
target = "{0, 2}";
type = Stem;
},
{
origin = "{0, 3}";
target = "{0, 10}";
type = Stem;
}
);
layerId = "FB938A0F-794B-4CBD-9B18-13182D479D81";
paths = (
{
closed = 1;
nodes = (
"496 538 LINE",
"516 696 LINE",
"43 696 LINE",
"43 118 LINE SMOOTH",
"43 41 OFFCURVE",
"34 -10 OFFCURVE",
"-55 -44 CURVE",
"0 -189 LINE",
"121 -149 OFFCURVE",
"249 -83 OFFCURVE",
"249 111 CURVE SMOOTH",
"249 538 LINE"
);
}
);
width = 511;
},
{
hints = (
{
horizontal = 1;
origin = "{0, 2}";
target = "{0, 11}";
type = Stem;
},
{
origin = "{0, 3}";
target = "{0, 10}";
type = Stem;
}
);
layerId = "D8724204-5FB7-4143-B54F-478BABD83301";
paths = (
{
closed = 1;
nodes = (
"510 659 LINE",
"514 681 LINE",
"138 681 LINE",
"138 89 LINE SMOOTH",
"138 -4 OFFCURVE",
"116 -40 OFFCURVE",
"23 -83 CURVE",
"30 -100 LINE",
"138 -53 OFFCURVE",
"161 -13 OFFCURVE",
"161 87 CURVE SMOOTH",
"161 659 LINE"
);
}
);
width = 527;
}
);
leftKerningGroup = J;
note = Gamma;
rightKerningGroup = uni0413;
},
{
glyphname = z.case;
lastChange = "2020-09-09 07:39:28 +0000";
layers = (
{
hints = (
{
horizontal = 1;
origin = "{0, 5}";
target = "{0, 8}";
type = Stem;
},
{
horizontal = 1;
origin = "{0, 2}";
target = "{0, 1}";
type = Stem;
},
{
origin = "{0, 5}";
target = "{0, 7}";
type = Stem;
}
);
layerId = "FB938A0F-794B-4CBD-9B18-13182D479D81";
paths = (
{
closed = 1;
nodes = (
"533 696 LINE",
"38 696 LINE",
"38 540 LINE",
"296 540 LINE",
"10 151 LINE",
"10 0 LINE",
"522 0 LINE",
"542 161 LINE",
"256 161 LINE",
"533 543 LINE"
);
}
);
width = 557;
},
{
hints = (
{
horizontal = 1;
origin = "{0, 5}";
target = "{0, 8}";
type = Stem;
},
{
horizontal = 1;
origin = "{0, 1}";
target = "{0, 2}";
type = Stem;
}
);
layerId = "D8724204-5FB7-4143-B54F-478BABD83301";
paths = (
{
closed = 1;
nodes = (
"459 681 LINE",
"79 681 LINE",
"79 660 LINE",
"432 660 LINE",
"41 21 LINE",
"41 0 LINE",
"443 0 LINE",
"446 22 LINE",
"69 22 LINE",
"459 662 LINE"
);
}
);
width = 509;
}
);
leftKerningGroup = Z;
note = Z;
rightKerningGroup = uni01F1;
},
{
glyphname = D.case;
lastChange = "2020-09-09 07:39:28 +0000";
layers = (
{
hints = (
{
horizontal = 1;
origin = "{0, 12}";
target = "{0, 15}";
type = Stem;
},
{
horizontal = 1;
origin = "{0, 21}";
target = "{0, 6}";
type = Stem;
},
{
horizontal = 1;
origin = "{0, 23}";
target = "{0, 2}";
type = Stem;
},
{
horizontal = 1;
origin = "{0, 3}";
target = "{0, 2}";
type = Stem;
},
{
origin = "{0, 9}";
target = "{0, 18}";
type = Stem;
},
{
origin = "{0, 5}";
target = "{0, 22}";
type = Stem;
}
);
layerId = "FB938A0F-794B-4CBD-9B18-13182D479D81";
paths = (
{
closed = 1;
nodes = (
"721 542 LINE",
"742 696 LINE",
"103 696 LINE",
"103 543 LINE",
"357 543 LINE",
"357 456 LINE",
"293 456 LINE SMOOTH",
"112 456 OFFCURVE",
"10 373 OFFCURVE",
"10 230 CURVE SMOOTH",
"10 73 OFFCURVE",
"123 0 OFFCURVE",
"282 0 CURVE SMOOTH",
"552 0 LINE",
"574 145 LINE",
"312 145 LINE",
"251 145 OFFCURVE",
"224 179 OFFCURVE",
"224 230 CURVE SMOOTH",
"224 282 OFFCURVE",
"249 318 OFFCURVE",
"316 318 CURVE",
"563 318 LINE",
"563 542 LINE"
);
}
);
width = 712;
},
{
hints = (
{
horizontal = 1;
origin = "{0, 12}";
target = "{0, 15}";
type = Stem;
},
{
horizontal = 1;
origin = "{0, 21}";
target = "{0, 6}";
type = Stem;
},
{
horizontal = 1;
origin = "{0, 2}";
target = "{0, 3}";
type = Stem;
},
{
origin = "{0, 9}";
target = "{0, 18}";
type = Stem;
},
{
origin = "{0, 5}";
target = "{0, 13}";
type = Stem;
}
);
layerId = "D8724204-5FB7-4143-B54F-478BABD83301";
paths = (
{
closed = 1;
nodes = (
"644 660 LINE",
"648 681 LINE",
"206 681 LINE",
"206 660 LINE",
"416 660 LINE",
"416 405 LINE",
"290 405 LINE SMOOTH",
"147 405 OFFCURVE",
"61 332 OFFCURVE",
"61 199 CURVE SMOOTH",
"61 63 OFFCURVE",
"150 0 OFFCURVE",
"276 0 CURVE SMOOTH",
"439 0 LINE",
"439 21 LINE",
"277 21 LINE",
"160 21 OFFCURVE",
"84 75 OFFCURVE",
"84 199 CURVE SMOOTH",
"84 321 OFFCURVE",
"159 384 OFFCURVE",
"289 384 CURVE",
"439 384 LINE",
"439 660 LINE"
);
}
);
width = 628;
}
);
leftKerningGroup = uni018B;
note = uni018B;
rightKerningGroup = T;
},
{
glyphname = s.case;
lastChange = "2020-09-09 07:39:29 +0000";
layers = (
{
layerId = "FB938A0F-794B-4CBD-9B18-13182D479D81";
paths = (
{
closed = 1;
nodes = (
"145 716 OFFCURVE",
"29 635 OFFCURVE",
"29 503 CURVE SMOOTH",
"29 402 OFFCURVE",
"78 331 OFFCURVE",
"246 278 CURVE SMOOTH",
"337 250 OFFCURVE",
"359 232 OFFCURVE",
"359 191 CURVE SMOOTH",
"359 155 OFFCURVE",
"332 128 OFFCURVE",
"272 128 CURVE SMOOTH",
"207 128 OFFCURVE",
"151 153 OFFCURVE",
"101 196 CURVE",
"0 85 LINE",
"57 30 OFFCURVE",
"147 -20 OFFCURVE",
"280 -20 CURVE SMOOTH",
"463 -20 OFFCURVE",
"573 74 OFFCURVE",
"573 208 CURVE SMOOTH",
"573 333 OFFCURVE",
"509 395 OFFCURVE",
"366 441 CURVE SMOOTH",
"267 473 OFFCURVE",
"241 484 OFFCURVE",
"241 520 CURVE SMOOTH",
"241 551 OFFCURVE",
"266 570 OFFCURVE",
"316 570 CURVE SMOOTH",
"371 570 OFFCURVE",
"419 551 OFFCURVE",
"465 514 CURVE",
"556 621 LINE",
"493 682 OFFCURVE",
"411 716 OFFCURVE",
"299 716 CURVE SMOOTH"
);
}
);
width = 588;
},
{
layerId = "D8724204-5FB7-4143-B54F-478BABD83301";
paths = (
{
closed = 1;
nodes = (
"153 691 OFFCURVE",
"80 623 OFFCURVE",
"80 534 CURVE SMOOTH",
"80 443 OFFCURVE",
"128 401 OFFCURVE",
"266 358 CURVE SMOOTH",
"393 318 OFFCURVE",
"444 281 OFFCURVE",
"444 181 CURVE SMOOTH",
"444 78 OFFCURVE",
"369 12 OFFCURVE",
"257 12 CURVE SMOOTH",
"171 12 OFFCURVE",
"118 42 OFFCURVE",
"69 87 CURVE",
"54 72 LINE",
"108 23 OFFCURVE",
"168 -10 OFFCURVE",
"258 -10 CURVE SMOOTH",
"381 -10 OFFCURVE",
"466 68 OFFCURVE",
"466 182 CURVE SMOOTH",
"466 293 OFFCURVE",
"407 337 OFFCURVE",
"274 378 CURVE SMOOTH",
"148 417 OFFCURVE",
"103 451 OFFCURVE",
"103 534 CURVE SMOOTH",
"103 613 OFFCURVE",
"166 670 OFFCURVE",
"265 670 CURVE SMOOTH",
"336 670 OFFCURVE",
"383 649 OFFCURVE",
"430 605 CURVE",
"445 622 LINE",
"397 664 OFFCURVE",
"348 691 OFFCURVE",
"265 691 CURVE SMOOTH"
);
}
);
width = 536;
}
);
leftKerningGroup = S;
note = S;
rightKerningGroup = S;
},
{
glyphname = r.case;
lastChange = "2020-09-09 07:39:29 +0000";
layers = (
{
layerId = "FB938A0F-794B-4CBD-9B18-13182D479D81";
paths = (
{
closed = 1;
nodes = (
"416 0 LINE",
"644 0 LINE",
"474 286 LINE",
"559 335 OFFCURVE",
"597 387 OFFCURVE",
"597 475 CURVE SMOOTH",
"597 628 OFFCURVE",
"497 696 OFFCURVE",
"298 696 CURVE SMOOTH",
"43 696 LINE",
"43 0 LINE",
"249 0 LINE",
"249 248 LINE",
"287 248 LINE"
);
},
{
closed = 1;
nodes = (
"249 386 LINE",
"249 555 LINE",
"293 555 LINE SMOOTH",
"354 555 OFFCURVE",
"387 530 OFFCURVE",
"387 475 CURVE SMOOTH",
"387 414 OFFCURVE",
"359 386 OFFCURVE",
"303 386 CURVE SMOOTH"
);
}
);
width = 624;
},
{
layerId = "D8724204-5FB7-4143-B54F-478BABD83301";
paths = (
{
closed = 1;
nodes = (
"501 0 LINE",
"528 0 LINE",
"337 327 LINE",
"428 343 OFFCURVE",
"496 393 OFFCURVE",
"496 504 CURVE SMOOTH",
"496 616 OFFCURVE",
"431 681 OFFCURVE",
"272 681 CURVE SMOOTH",
"123 681 LINE",
"123 0 LINE",
"146 0 LINE",
"146 324 LINE",
"313 324 LINE"
);
},
{
closed = 1;
nodes = (
"146 345 LINE",
"146 660 LINE",
"269 660 LINE SMOOTH",
"420 660 OFFCURVE",
"473 602 OFFCURVE",
"473 504 CURVE SMOOTH",
"473 393 OFFCURVE",
"398 345 OFFCURVE",
"287 345 CURVE SMOOTH"
);
}
);
width = 572;
}
);
leftKerningGroup = B;
note = R;
rightKerningGroup = R;
},
{
glyphname = H.case;
lastChange = "2020-09-09 07:39:29 +0000";
layers = (
{
hints = (
{
horizontal = 1;
origin = "{0, 5}";
target = up;
type = BottomGhost;
},
{
horizontal = 1;
origin = "{0, 7}";
target = "{0, 2}";
type = Stem;
},
{
horizontal = 1;
origin = "{0, 4}";
target = down;
type = TopGhost;
},
{
origin = "{0, 5}";
target = "{0, 6}";
type = Stem;
}
);
layerId = "FB938A0F-794B-4CBD-9B18-13182D479D81";
paths = (
{
closed = 1;
nodes = (
"523 281 LINE",
"523 439 LINE",
"249 439 LINE",
"249 696 LINE",
"43 696 LINE",
"43 0 LINE",
"249 0 LINE",
"249 281 LINE"
);
}
);
width = 523;
},
{
hints = (
{
horizontal = 1;
origin = "{0, 5}";
target = up;
type = BottomGhost;
},
{
horizontal = 1;
origin = "{0, 7}";
target = "{0, 2}";
type = Stem;
},
{
horizontal = 1;
origin = "{0, 4}";
target = down;
type = TopGhost;
},
{
origin = "{0, 5}";
target = "{0, 6}";
type = Stem;
}
);
layerId = "D8724204-5FB7-4143-B54F-478BABD83301";
paths = (
{
closed = 1;
nodes = (
"484 349 LINE",
"484 371 LINE",
"146 371 LINE",
"146 681 LINE",
"123 681 LINE",
"123 0 LINE",
"146 0 LINE",
"146 349 LINE"
);
}
);
width = 517;
}
);
leftKerningGroup = B;
note = uni0370;
rightKerningGroup = uni0370;
},
{
glyphname = i.case;
lastChange = "2020-09-09 07:39:29 +0000";
layers = (
{
hints = (
{
horizontal = 1;
origin = "{0, 2}";
target = up;
type = BottomGhost;
},
{
horizontal = 1;
origin = "{0, 1}";
target = down;
type = TopGhost;
},
{
origin = "{0, 2}";
target = "{0, 3}";
type = Stem;
}
);
layerId = "FB938A0F-794B-4CBD-9B18-13182D479D81";
paths = (
{
closed = 1;
nodes = (
"249 696 LINE",
"43 696 LINE",
"43 0 LINE",
"249 0 LINE"
);
}
);
width = 292;
},
{
hints = (
{
horizontal = 1;
origin = "{0, 2}";
target = up;
type = BottomGhost;
},
{
horizontal = 1;
origin = "{0, 1}";
target = down;
type = TopGhost;
},
{
origin = "{0, 2}";
target = "{0, 3}";
type = Stem;
}
);
layerId = "D8724204-5FB7-4143-B54F-478BABD83301";
paths = (
{
closed = 1;
nodes = (
"146 681 LINE",
"123 681 LINE",
"123 0 LINE",
"146 0 LINE"
);
}
);
width = 268;
}
);
leftKerningGroup = B;
note = I;
rightKerningGroup = uni2C6D;
},
{
glyphname = one.case;
lastChange = "2020-09-09 07:39:29 +0000";
layers = (
{
hints = (
{
horizontal = 1;
origin = "{0, 5}";
target = up;
type = BottomGhost;
},
{
horizontal = 1;
origin = "{0, 2}";
target = down;
type = TopGhost;
},
{
origin = "{0, 5}";
target = "{0, 6}";
type = Stem;
}
);
layerId = "FB938A0F-794B-4CBD-9B18-13182D479D81";
paths = (
{
closed = 1;
nodes = (
"417 680 LINE",
"241 680 LINE",
"0 536 LINE",
"86 407 LINE",
"225 492 LINE",
"225 0 LINE",
"417 0 LINE"
);
}
);
width = 482;
},
{
hints = (
{
horizontal = 1;
origin = "{0, 5}";
target = up;
type = BottomGhost;
},
{
horizontal = 1;
origin = "{0, 2}";
target = down;
type = TopGhost;
},
{
horizontal = 1;
origin = "{0, 1}";
target = down;
type = TopGhost;
},
{
horizontal = 1;
origin = "{0, 1}";
target = "{0, 4}";
type = Stem;
},
{
origin = "{0, 5}";
target = "{0, 6}";
type = Stem;
}
);
layerId = "D8724204-5FB7-4143-B54F-478BABD83301";
paths = (
{
closed = 1;
nodes = (
"260 681 LINE",
"242 681 LINE",
"53 562 LINE",
"64 545 LINE",
"238 655 LINE",
"238 0 LINE",
"260 0 LINE"
);
}
);
width = 382;
}
);
leftKerningGroup = one;
note = one;
rightKerningGroup = uni2C6D;
},
{
glyphname = V.case;
lastChange = "2020-09-09 07:39:30 +0000";
layers = (
{
layerId = "FB938A0F-794B-4CBD-9B18-13182D479D81";
paths = (
{
closed = 1;
nodes = (
"-20 0 LINE",
"189 0 LINE",
"293 403 LINE",
"413 0 LINE",
"624 0 LINE",
"416 516 LINE",
"354 516 LINE",
"387 559 OFFCURVE",
"430 575 OFFCURVE",
"514 581 CURVE",
"488 716 LINE",
"313 705 OFFCURVE",
"222 657 OFFCURVE",
"156 477 CURVE SMOOTH"
);
}
);
width = 609;
},
{
layerId = "D8724204-5FB7-4143-B54F-478BABD83301";
paths = (
{
closed = 1;
nodes = (
"23 0 LINE",
"47 0 LINE",
"244 468 LINE",
"467 0 LINE",
"492 0 LINE",
"258 487 LINE",
"253 487 LINE",
"312 627 OFFCURVE",
"327 647 OFFCURVE",
"409 672 CURVE",
"403 690 LINE",
"307 662 OFFCURVE",
"294 635 OFFCURVE",
"231 487 CURVE SMOOTH"
);
}
);
width = 515;
}
);
leftKerningGroup = uni028C;
note = uni0423;
rightKerningGroup = uni028C;
},
{
glyphname = three.case;
lastChange = "2020-09-09 07:39:30 +0000";
layers = (
{
hints = (
{
horizontal = 1;
origin = "{0, 9}";
target = "{0, 8}";
type = Stem;
},
{
horizontal = 1;
origin = "{0, 5}";
target = "{0, 4}";
type = Stem;
},
{
horizontal = 1;
origin = "{0, 1}";
target = "{0, 0}";
type = Stem;
},
{
origin = "{0, 7}";
target = "{0, 10}";
type = Stem;
}
);
layerId = "FB938A0F-794B-4CBD-9B18-13182D479D81";
paths = (
{
closed = 1;
nodes = (
"30 696 LINE",
"30 553 LINE",
"271 553 LINE",
"271 423 LINE",
"69 423 LINE",
"69 284 LINE",
"271 284 LINE",
"271 144 LINE",
"25 144 LINE",
"25 0 LINE",
"477 0 LINE",
"477 696 LINE"
);
}
);
width = 520;
},
{
hints = (
{
horizontal = 1;
origin = "{0, 9}";
target = "{0, 8}";
type = Stem;
},
{
horizontal = 1;
origin = "{0, 5}";
target = "{0, 4}";
type = Stem;
},
{
horizontal = 1;
origin = "{0, 0}";
target = "{0, 1}";
type = Stem;
},
{
origin = "{0, 7}";
target = "{0, 10}";
type = Stem;
}
);
layerId = "D8724204-5FB7-4143-B54F-478BABD83301";
paths = (
{
closed = 1;
nodes = (
"50 681 LINE",
"50 660 LINE",
"348 660 LINE",
"348 370 LINE",
"94 370 LINE",
"94 349 LINE",
"348 349 LINE",
"348 21 LINE",
"43 21 LINE",
"43 0 LINE",
"371 0 LINE",
"371 681 LINE"
);
}
);
width = 494;
}
);
leftKerningGroup = uni018E;
note = uni018E;
rightKerningGroup = uni2C6D;
},
{
glyphname = N.case;
lastChange = "2020-09-09 07:39:30 +0000";
layers = (
{
hints = (
{
horizontal = 1;
origin = "{0, 8}";
target = up;
type = BottomGhost;
},
{
horizontal = 1;
origin = "{0, 7}";
target = "{0, 14}";
type = Stem;
},
{
horizontal = 1;
origin = "{0, 1}";
target = down;
type = TopGhost;
},
{
horizontal = 1;
origin = "{0, 7}";
target = "{0, 13}";
type = Stem;
},
{
origin = "{0, 8}";
target = "{0, 9}";
type = Stem;
},
{
origin = "{0, 2}";
target = "{0, 15}";
type = Stem;
}
);
layerId = "FB938A0F-794B-4CBD-9B18-13182D479D81";
paths = (
{
closed = 1;
nodes = (
"525 696 LINE",
"343 696 LINE",
"343 658 LINE SMOOTH",
"343 632 OFFCURVE",
"343 494 OFFCURVE",
"351 441 CURVE",
"303 534 LINE",
"40 534 LINE",
"40 0 LINE",
"222 0 LINE",
"222 51 LINE SMOOTH",
"222 183 OFFCURVE",
"225 319 OFFCURVE",
"215 386 CURVE",
"257 295 LINE",
"525 295 LINE"
);
}
);
width = 560;
},
{
hints = (
{
horizontal = 1;
origin = "{0, 8}";
target = up;
type = BottomGhost;
},
{
horizontal = 1;
origin = "{0, 14}";
target = "{0, 5}";
type = Stem;
},
{
horizontal = 1;
origin = "{0, 7}";
target = "{0, 13}";
type = Stem;
},
{
horizontal = 1;
origin = "{0, 1}";
target = down;
type = TopGhost;
},
{
origin = "{0, 8}";
target = "{0, 9}";
type = Stem;
},
{
origin = "{0, 2}";
target = "{0, 15}";
type = Stem;
}
);
layerId = "D8724204-5FB7-4143-B54F-478BABD83301";
paths = (
{
closed = 1;
nodes = (
"194 681 LINE",
"172 681 LINE",
"172 677 LINE SMOOTH",
"172 599 OFFCURVE",
"173 531 OFFCURVE",
"173 491 CURVE",
"136 519 LINE",
"109 519 LINE",
"109 0 LINE",
"131 0 LINE",
"131 315 LINE SMOOTH",
"131 414 OFFCURVE",
"131 466 OFFCURVE",
"130 501 CURVE",
"168 472 LINE",
"194 472 LINE"
);
}
);
width = 302;
}
);
leftKerningGroup = B;
note = N;
rightKerningGroup = uni2C6D;
},
{
glyphname = l.case;
lastChange = "2020-09-09 07:39:30 +0000";
layers = (
{
hints = (
{
horizontal = 1;
origin = "{0, 2}";
target = "{0, 5}";
type = Stem;
},
{
horizontal = 1;
origin = "{0, 1}";
target = down;
type = TopGhost;
},
{
origin = "{0, 2}";
target = "{0, 5}";
type = Stem;
}
);
layerId = "FB938A0F-794B-4CBD-9B18-13182D479D81";
paths = (
{
closed = 1;
nodes = (
"249 696 LINE",
"43 696 LINE",
"43 0 LINE",
"491 0 LINE",
"512 158 LINE",
"249 158 LINE"
);
}
);
width = 522;
},
{
hints = (
{
horizontal = 1;
origin = "{0, 2}";
target = "{0, 5}";
type = Stem;
},
{
horizontal = 1;
origin = "{0, 1}";
target = down;
type = TopGhost;
},
{
origin = "{0, 2}";
target = "{0, 5}";
type = Stem;
}
);
layerId = "D8724204-5FB7-4143-B54F-478BABD83301";
paths = (
{
closed = 1;
nodes = (
"146 681 LINE",
"123 681 LINE",
"123 0 LINE",
"430 0 LINE",
"434 22 LINE",
"146 22 LINE"
);
}
);
width = 456;
}
);
leftKerningGroup = B;
note = L;
rightKerningGroup = L;
},
{
glyphname = d.case;
lastChange = "2020-09-09 07:39:30 +0000";
layers = (
{
layerId = "FB938A0F-794B-4CBD-9B18-13182D479D81";
paths = (
{
closed = 1;
nodes = (
"43 696 LINE",
"43 0 LINE",
"278 0 LINE SMOOTH",
"472 0 OFFCURVE",
"636 73 OFFCURVE",
"636 351 CURVE SMOOTH",
"636 637 OFFCURVE",
"457 696 OFFCURVE",
"266 696 CURVE SMOOTH"
);
},
{
closed = 1;
nodes = (
"291 551 LINE SMOOTH",
"379 551 OFFCURVE",
"424 509 OFFCURVE",
"424 351 CURVE SMOOTH",
"424 193 OFFCURVE",
"383 145 OFFCURVE",
"290 145 CURVE SMOOTH",
"249 145 LINE",
"249 551 LINE"
);
}
);
width = 656;
},
{
layerId = "D8724204-5FB7-4143-B54F-478BABD83301";
paths = (
{
closed = 1;
nodes = (
"123 681 LINE",
"123 0 LINE",
"249 0 LINE SMOOTH",
"384 0 OFFCURVE",
"542 63 OFFCURVE",
"542 348 CURVE SMOOTH",
"542 627 OFFCURVE",
"390 681 OFFCURVE",
"245 681 CURVE SMOOTH"
);
},
{
closed = 1;
nodes = (
"243 660 LINE SMOOTH",
"376 660 OFFCURVE",
"518 617 OFFCURVE",
"518 348 CURVE SMOOTH",
"518 82 OFFCURVE",
"380 21 OFFCURVE",
"250 21 CURVE SMOOTH",
"146 21 LINE",
"146 660 LINE"
);
}
);
width = 619;
}
);
leftKerningGroup = B;
note = D;
rightKerningGroup = D;
},
{
glyphname = t.case;
lastChange = "2020-09-09 07:39:30 +0000";
layers = (
{
hints = (
{
horizontal = 1;
origin = "{0, 4}";
target = up;
type = BottomGhost;
},
{
horizontal = 1;
origin = "{0, 2}";
target = "{0, 1}";
type = Stem;
},
{
origin = "{0, 4}";
target = "{0, 5}";
type = Stem;
}
);
layerId = "FB938A0F-794B-4CBD-9B18-13182D479D81";
paths = (
{
closed = 1;
nodes = (
"559 696 LINE",
"5 696 LINE",
"5 542 LINE",
"174 542 LINE",
"174 0 LINE",
"380 0 LINE",
"380 542 LINE",
"538 542 LINE"
);
}
);
width = 554;
},
{
hints = (
{
horizontal = 1;
origin = "{0, 4}";
target = up;
type = BottomGhost;
},
{
horizontal = 1;
origin = "{0, 1}";
target = "{0, 2}";
type = Stem;
},
{
origin = "{0, 4}";
target = "{0, 5}";
type = Stem;
}
);
layerId = "D8724204-5FB7-4143-B54F-478BABD83301";
paths = (
{
closed = 1;
nodes = (
"463 681 LINE",
"16 681 LINE",
"16 659 LINE",
"226 659 LINE",
"226 0 LINE",
"249 0 LINE",
"249 659 LINE",
"459 659 LINE"
);
}
);
width = 476;
}
);
leftKerningGroup = T;
note = T;
rightKerningGroup = T;
},
{
glyphname = g.case;
lastChange = "2020-09-09 07:39:31 +0000";
layers = (
{
layerId = "FB938A0F-794B-4CBD-9B18-13182D479D81";
paths = (
{
closed = 1;
nodes = (
"170 716 OFFCURVE",
"20 585 OFFCURVE",
"20 349 CURVE SMOOTH",
"20 112 OFFCURVE",
"122 -20 OFFCURVE",
"355 -20 CURVE SMOOTH",
"442 -20 OFFCURVE",
"543 9 OFFCURVE",
"618 60 CURVE",
"618 409 LINE",
"331 409 LINE",
"350 270 LINE",
"420 270 LINE",
"420 143 LINE",
"398 132 OFFCURVE",
"376 126 OFFCURVE",
"349 126 CURVE SMOOTH",
"268 126 OFFCURVE",
"232 176 OFFCURVE",
"232 348 CURVE SMOOTH",
"232 501 OFFCURVE",
"287 572 OFFCURVE",
"383 572 CURVE SMOOTH",
"436 572 OFFCURVE",
"472 554 OFFCURVE",
"518 521 CURVE",
"618 625 LINE",
"561 675 OFFCURVE",
"478 716 OFFCURVE",
"371 716 CURVE SMOOTH"
);
}
);
width = 653;
},
{
layerId = "D8724204-5FB7-4143-B54F-478BABD83301";
paths = (
{
closed = 1;
nodes = (
"215 691 OFFCURVE",
"78 583 OFFCURVE",
"78 345 CURVE SMOOTH",
"78 110 OFFCURVE",
"189 -10 OFFCURVE",
"353 -10 CURVE SMOOTH",
"418 -10 OFFCURVE",
"480 10 OFFCURVE",
"533 41 CURVE",
"533 354 LINE",
"362 354 LINE",
"365 333 LINE",
"510 333 LINE",
"510 53 LINE",
"467 28 OFFCURVE",
"419 12 OFFCURVE",
"353 12 CURVE SMOOTH",
"202 12 OFFCURVE",
"101 122 OFFCURVE",
"101 345 CURVE SMOOTH",
"101 576 OFFCURVE",
"228 670 OFFCURVE",
"348 670 CURVE SMOOTH",
"409 670 OFFCURVE",
"455 653 OFFCURVE",
"503 616 CURVE",
"516 632 LINE",
"465 672 OFFCURVE",
"417 691 OFFCURVE",
"348 691 CURVE SMOOTH"
);
}
);
width = 605;
}
);
leftKerningGroup = uni2C6D;
note = G;
rightKerningGroup = G;
},
{
glyphname = k.case;
lastChange = "2020-09-09 07:39:31 +0000";
layers = (
{
hints = (
{
horizontal = 1;
origin = "{0, 2}";
target = up;
type = BottomGhost;
},
{
horizontal = 1;
origin = "{0, 1}";
target = down;
type = TopGhost;
},
{
origin = "{0, 2}";
target = "{0, 3}";
type = Stem;
}
);
layerId = "FB938A0F-794B-4CBD-9B18-13182D479D81";
paths = (
{
closed = 1;
nodes = (
"249 696 LINE",
"43 696 LINE",
"43 0 LINE",
"249 0 LINE"
);
},
{
closed = 1;
nodes = (
"661 696 LINE",
"449 696 LINE",
"255 371 LINE",
"445 0 LINE",
"679 0 LINE",
"464 387 LINE"
);
}
);
width = 659;
},
{
hints = (
{
horizontal = 1;
origin = "{0, 2}";
target = up;
type = BottomGhost;
},
{
horizontal = 1;
origin = "{0, 1}";
target = down;
type = TopGhost;
},
{
origin = "{0, 2}";
target = "{0, 3}";
type = Stem;
}
);
layerId = "D8724204-5FB7-4143-B54F-478BABD83301";
paths = (
{
closed = 1;
nodes = (
"146 681 LINE",
"123 681 LINE",
"123 0 LINE",
"146 0 LINE"
);
},
{
closed = 1;
nodes = (
"490 681 LINE",
"463 681 LINE",
"149 367 LINE",
"478 0 LINE",
"506 0 LINE",
"178 367 LINE"
);
}
);
width = 510;
}
);
leftKerningGroup = B;
note = K;
rightKerningGroup = uniA7B3;
},
{
glyphname = h.case;
lastChange = "2020-09-09 07:39:31 +0000";
layers = (
{
hints = (
{
horizontal = 1;
origin = "{0, 8}";
target = up;
type = BottomGhost;
},
{
horizontal = 1;
origin = "{0, 10}";
target = "{0, 5}";
type = Stem;
},
{
horizontal = 1;
origin = "{0, 7}";
target = down;
type = TopGhost;
},
{
origin = "{0, 8}";
target = "{0, 9}";
type = Stem;
},
{
origin = "{0, 0}";
target = "{0, 1}";
type = Stem;
}
);
layerId = "FB938A0F-794B-4CBD-9B18-13182D479D81";
paths = (
{
closed = 1;
nodes = (
"408 0 LINE",
"614 0 LINE",
"614 696 LINE",
"408 696 LINE",
"408 439 LINE",
"249 439 LINE",
"249 696 LINE",
"43 696 LINE",
"43 0 LINE",
"249 0 LINE",
"249 281 LINE",
"408 281 LINE"
);
}
);
width = 657;
},
{
hints = (
{
horizontal = 1;
origin = "{0, 8}";
target = up;
type = BottomGhost;
},
{
horizontal = 1;
origin = "{0, 10}";
target = "{0, 5}";
type = Stem;
},
{
horizontal = 1;
origin = "{0, 7}";
target = down;
type = TopGhost;
},
{
origin = "{0, 8}";
target = "{0, 9}";
type = Stem;
},
{
origin = "{0, 0}";
target = "{0, 1}";
type = Stem;
}
);
layerId = "D8724204-5FB7-4143-B54F-478BABD83301";
paths = (
{
closed = 1;
nodes = (
"514 0 LINE",
"537 0 LINE",
"537 681 LINE",
"514 681 LINE",
"514 371 LINE",
"146 371 LINE",
"146 681 LINE",
"123 681 LINE",
"123 0 LINE",
"146 0 LINE",
"146 349 LINE",
"514 349 LINE"
);
}
);
width = 660;
}
);
leftKerningGroup = B;
note = H;
rightKerningGroup = uni2C6D;
},
{
glyphname = four.case;
lastChange = "2020-09-09 07:39:31 +0000";
layers = (
{
hints = (
{
horizontal = 1;
origin = "{0, 11}";
target = up;
type = BottomGhost;
},
{
horizontal = 1;
origin = "{0, 9}";
target = "{0, 5}";
type = Stem;
},
{
horizontal = 1;
origin = "{0, 7}";
target = down;
type = TopGhost;
},
{
place = "{305.5, 194.5}";
type = Stem;
}
);
layerId = "FB938A0F-794B-4CBD-9B18-13182D479D81";
paths = (
{
closed = 1;
nodes = (
"582 280 LINE",
"500 280 LINE",
"500 428 LINE",
"330 428 LINE",
"307 280 LINE",
"223 280 LINE",
"376 641 LINE",
"207 701 LINE",
"20 263 LINE",
"20 134 LINE",
"305 134 LINE",
"306 0 LINE",
"500 0 LINE",
"500 134 LINE",
"560 134 LINE"
);
}
);
width = 585;
},
{
hints = (
{
horizontal = 1;
origin = "{0, 11}";
target = up;
type = BottomGhost;
},
{
horizontal = 1;
origin = "{0, 9}";
target = "{0, 5}";
type = Stem;
},
{
horizontal = 1;
origin = "{0, 7}";
target = down;
type = TopGhost;
},
{
horizontal = 1;
origin = "{0, 6}";
target = down;
type = TopGhost;
},
{
origin = "{0, 11}";
target = "{0, 12}";
type = Stem;
},
{
place = "{349.5, 20.5}";
type = Stem;
},
{
origin = "{0, 9}";
target = "{0, 5}";
type = Stem;
}
);
layerId = "D8724204-5FB7-4143-B54F-478BABD83301";
paths = (
{
closed = 1;
nodes = (
"467 223 LINE",
"370 223 LINE",
"370 434 LINE",
"351 434 LINE",
"348 223 LINE",
"75 223 LINE",
"276 681 LINE",
"257 689 LINE",
"51 221 LINE",
"51 203 LINE",
"348 203 LINE",
"348 0 LINE",
"370 0 LINE",
"370 203 LINE",
"463 203 LINE"
);
}
);
width = 503;
}
);
leftKerningGroup = four;
note = four;
rightKerningGroup = four;
},
{
glyphname = eight.case;
lastChange = "2020-09-09 07:39:31 +0000";
layers = (
{
layerId = "FB938A0F-794B-4CBD-9B18-13182D479D81";
paths = (
{
closed = 1;
nodes = (
"94 353 OFFCURVE",
"15 315 OFFCURVE",
"15 206 CURVE SMOOTH",
"15 41 OFFCURVE",
"152 0 OFFCURVE",
"335 0 CURVE SMOOTH",
"579 0 LINE",
"579 696 LINE",
"362 696 LINE SMOOTH",
"167 696 OFFCURVE",
"44 652 OFFCURVE",
"44 516 CURVE SMOOTH",
"44 426 OFFCURVE",
"108 385 OFFCURVE",
"170 369 CURVE"
);
},
{
closed = 1;
nodes = (
"373 427 LINE",
"338 427 LINE SMOOTH",
"275 427 OFFCURVE",
"253 446 OFFCURVE",
"253 495 CURVE SMOOTH",
"253 536 OFFCURVE",
"277 555 OFFCURVE",
"343 555 CURVE SMOOTH",
"373 555 LINE"
);
},
{
closed = 1;
nodes = (
"270 145 OFFCURVE",
"227 158 OFFCURVE",
"227 220 CURVE SMOOTH",
"227 274 OFFCURVE",
"261 297 OFFCURVE",
"325 297 CURVE SMOOTH",
"373 297 LINE",
"373 145 LINE",
"333 145 LINE SMOOTH"
);
}
);
width = 622;
},
{
layerId = "D8724204-5FB7-4143-B54F-478BABD83301";
paths = (
{
closed = 1;
nodes = (
"137 356 OFFCURVE",
"62 301 OFFCURVE",
"62 184 CURVE SMOOTH",
"62 61 OFFCURVE",
"149 0 OFFCURVE",
"288 0 CURVE SMOOTH",
"464 0 LINE",
"464 681 LINE",
"323 681 LINE SMOOTH",
"179 681 OFFCURVE",
"97 624 OFFCURVE",
"97 513 CURVE SMOOTH",
"97 424 OFFCURVE",
"149 374 OFFCURVE",
"225 361 CURVE"
);
},
{
closed = 1;
nodes = (
"441 370 LINE",
"271 370 LINE SMOOTH",
"181 370 OFFCURVE",
"120 427 OFFCURVE",
"120 512 CURVE SMOOTH",
"120 611 OFFCURVE",
"191 660 OFFCURVE",
"320 660 CURVE SMOOTH",
"441 660 LINE"
);
},
{
closed = 1;
nodes = (
"165 21 OFFCURVE",
"85 71 OFFCURVE",
"85 184 CURVE SMOOTH",
"85 294 OFFCURVE",
"161 350 OFFCURVE",
"266 350 CURVE SMOOTH",
"441 350 LINE",
"441 21 LINE",
"287 21 LINE SMOOTH"
);
}
);
width = 587;
}
);
leftKerningGroup = g.ss04;
note = B;
rightKerningGroup = uni2C6D;
},
{
glyphname = five.case;
lastChange = "2020-09-09 07:39:31 +0000";
layers = (
{
hints = (
{
horizontal = 1;
origin = "{0, 5}";
target = up;
type = BottomGhost;
},
{
horizontal = 1;
origin = "{0, 8}";
target = "{0, 15}";
type = Stem;
},
{
horizontal = 1;
origin = "{0, 14}";
target = down;
type = TopGhost;
},
{
horizontal = 1;
origin = "{0, 8}";
target = "{0, 1}";
type = Stem;
},
{
origin = "{0, 15}";
target = "{0, 12}";
type = Stem;
},
{
origin = "{0, 5}";
target = "{0, 6}";
type = Stem;
}
);
layerId = "FB938A0F-794B-4CBD-9B18-13182D479D81";
paths = (
{
closed = 1;
nodes = (
"303 295 LINE",
"345 386 LINE",
"335 319 OFFCURVE",
"338 183 OFFCURVE",
"338 51 CURVE SMOOTH",
"338 0 LINE",
"520 0 LINE",
"520 534 LINE",
"257 534 LINE",
"209 441 LINE",
"217 494 OFFCURVE",
"217 632 OFFCURVE",
"217 658 CURVE SMOOTH",
"217 696 LINE",
"35 696 LINE",
"35 295 LINE"
);
}
);
width = 560;
},
{
hints = (
{
horizontal = 1;
origin = "{0, 5}";
target = up;
type = BottomGhost;
},
{
horizontal = 1;
origin = "{0, 15}";
target = "{0, 9}";
type = Stem;
},
{
horizontal = 1;
origin = "{0, 8}";
target = "{0, 1}";
type = Stem;
},
{
horizontal = 1;
origin = "{0, 14}";
target = down;
type = TopGhost;
},
{
origin = "{0, 15}";
target = "{0, 12}";
type = Stem;
},
{
origin = "{0, 5}";
target = "{0, 6}";
type = Stem;
}
);
layerId = "D8724204-5FB7-4143-B54F-478BABD83301";
paths = (
{
closed = 1;
nodes = (
"134 472 LINE",
"172 501 LINE",
"171 466 OFFCURVE",
"171 414 OFFCURVE",
"171 315 CURVE SMOOTH",
"171 0 LINE",
"193 0 LINE",
"193 519 LINE",
"166 519 LINE",
"129 491 LINE",
"129 531 OFFCURVE",
"130 599 OFFCURVE",
"130 677 CURVE SMOOTH",
"130 681 LINE",
"108 681 LINE",
"108 472 LINE"
);
}
);
width = 302;
}
);
leftKerningGroup = B;
note = N;
rightKerningGroup = uni2C6D;
},
{
glyphname = v.case;
lastChange = "2020-09-09 07:39:31 +0000";
layers = (
{
hints = (
{
horizontal = 1;
origin = "{0, 5}";
target = up;
type = BottomGhost;
},
{
horizontal = 1;
origin = "{0, 4}";
target = down;
type = TopGhost;
},
{
horizontal = 1;
origin = "{0, 5}";
target = "{0, 2}";
type = Stem;
}
);
layerId = "FB938A0F-794B-4CBD-9B18-13182D479D81";
paths = (
{
closed = 1;
nodes = (
"604 696 LINE",
"393 696 LINE",
"298 143 LINE",
"192 696 LINE",
"-25 696 LINE",
"162 0 LINE",
"428 0 LINE"
);
}
);
width = 579;
},
{
hints = (
{
horizontal = 1;
origin = "{0, 5}";
target = "{0, 2}";
type = Stem;
},
{
horizontal = 1;
origin = "{0, 4}";
target = down;
type = TopGhost;
}
);
layerId = "D8724204-5FB7-4143-B54F-478BABD83301";
paths = (
{
closed = 1;
nodes = (
"506 681 LINE",
"482 681 LINE",
"267 21 LINE",
"52 681 LINE",
"28 681 LINE",
"253 0 LINE",
"281 0 LINE"
);
}
);
width = 534;
}
);
leftKerningGroup = V;
note = V;
rightKerningGroup = V;
},
{
glyphname = F.case;
lastChange = "2020-09-09 07:39:31 +0000";
layers = (
{
hints = (
{
horizontal = 1;
origin = "{0, 7}";
target = up;
type = BottomGhost;
},
{
horizontal = 1;
origin = "{0, 5}";
target = "{0, 4}";
type = Stem;
},
{
horizontal = 1;
origin = "{0, 1}";
target = "{0, 0}";
type = Stem;
},
{
origin = "{0, 7}";
target = "{0, 8}";
type = Stem;
}
);
layerId = "FB938A0F-794B-4CBD-9B18-13182D479D81";
paths = (
{
closed = 1;
nodes = (
"0 696 LINE",
"21 553 LINE",
"236 553 LINE",
"236 401 LINE",
"47 401 LINE",
"47 258 LINE",
"236 258 LINE",
"236 0 LINE",
"442 0 LINE",
"442 696 LINE"
);
}
);
width = 485;
},
{
hints = (
{
horizontal = 1;
origin = "{0, 7}";
target = up;
type = BottomGhost;
},
{
horizontal = 1;
origin = "{0, 5}";
target = "{0, 4}";
type = Stem;
},
{
horizontal = 1;
origin = "{0, 0}";
target = "{0, 1}";
type = Stem;
},
{
origin = "{0, 7}";
target = "{0, 8}";
type = Stem;
}
);
layerId = "D8724204-5FB7-4143-B54F-478BABD83301";
paths = (
{
closed = 1;
nodes = (
"32 681 LINE",
"35 660 LINE",
"325 660 LINE",
"325 356 LINE",
"75 356 LINE",
"75 335 LINE",
"325 335 LINE",
"325 0 LINE",
"348 0 LINE",
"348 681 LINE"
);
}
);
width = 471;
}
);
leftKerningGroup = uni018E;
note = F;
rightKerningGroup = uni2C6D;
},
{
glyphname = seven.case;
lastChange = "2020-09-09 07:39:31 +0000";
layers = (
{
hints = (
{
horizontal = 1;
origin = "{0, 1}";
target = up;
type = BottomGhost;
},
{
horizontal = 1;
origin = "{0, 5}";
target = "{0, 4}";
type = Stem;
},
{
origin = "{0, 1}";
target = "{0, 2}";
type = Stem;
}
);
layerId = "FB938A0F-794B-4CBD-9B18-13182D479D81";
paths = (
{
closed = 1;
nodes = (
"262 538 LINE",
"262 0 LINE",
"468 0 LINE",
"468 696 LINE",
"-5 696 LINE",
"15 538 LINE"
);
}
);
width = 511;
},
{
hints = (
{
horizontal = 1;
origin = "{0, 1}";
target = up;
type = BottomGhost;
},
{
horizontal = 1;
origin = "{0, 4}";
target = "{0, 5}";
type = Stem;
},
{
origin = "{0, 1}";
target = "{0, 2}";
type = Stem;
}
);
layerId = "D8724204-5FB7-4143-B54F-478BABD83301";
paths = (
{
closed = 1;
nodes = (
"366 659 LINE",
"366 0 LINE",
"389 0 LINE",
"389 681 LINE",
"14 681 LINE",
"14 659 LINE"
);
}
);
width = 512;
}
);
leftKerningGroup = T;
note = Gamma;
rightKerningGroup = uni2C6D;
},
{
glyphname = B.case;
lastChange = "2020-09-09 07:39:32 +0000";
layers = (
{
layerId = "FB938A0F-794B-4CBD-9B18-13182D479D81";
paths = (
{
closed = 1;
nodes = (
"514 385 OFFCURVE",
"578 426 OFFCURVE",
"578 516 CURVE SMOOTH",
"578 652 OFFCURVE",
"455 696 OFFCURVE",
"260 696 CURVE SMOOTH",
"43 696 LINE",
"43 0 LINE",
"287 0 LINE SMOOTH",
"470 0 OFFCURVE",
"607 41 OFFCURVE",
"607 206 CURVE SMOOTH",
"607 315 OFFCURVE",
"528 353 OFFCURVE",
"452 369 CURVE"
);
},
{
closed = 1;
nodes = (
"279 555 LINE SMOOTH",
"345 555 OFFCURVE",
"369 536 OFFCURVE",
"369 495 CURVE SMOOTH",
"369 446 OFFCURVE",
"347 427 OFFCURVE",
"284 427 CURVE SMOOTH",
"249 427 LINE",
"249 555 LINE"
);
},
{
closed = 1;
nodes = (
"249 145 LINE",
"249 297 LINE",
"297 297 LINE SMOOTH",
"361 297 OFFCURVE",
"395 274 OFFCURVE",
"395 220 CURVE SMOOTH",
"395 158 OFFCURVE",
"352 145 OFFCURVE",
"289 145 CURVE SMOOTH"
);
}
);
width = 622;
},
{
layerId = "D8724204-5FB7-4143-B54F-478BABD83301";
paths = (
{
closed = 1;
nodes = (
"438 374 OFFCURVE",
"490 424 OFFCURVE",
"490 513 CURVE SMOOTH",
"490 624 OFFCURVE",
"408 681 OFFCURVE",
"264 681 CURVE SMOOTH",
"123 681 LINE",
"123 0 LINE",
"299 0 LINE SMOOTH",
"438 0 OFFCURVE",
"525 61 OFFCURVE",
"525 184 CURVE SMOOTH",
"525 301 OFFCURVE",
"450 356 OFFCURVE",
"362 361 CURVE"
);
},
{
closed = 1;
nodes = (
"267 660 LINE SMOOTH",
"396 660 OFFCURVE",
"467 611 OFFCURVE",
"467 512 CURVE SMOOTH",
"467 427 OFFCURVE",
"406 370 OFFCURVE",
"316 370 CURVE SMOOTH",
"146 370 LINE",
"146 660 LINE"
);
},
{
closed = 1;
nodes = (
"146 21 LINE",
"146 350 LINE",
"321 350 LINE SMOOTH",
"426 350 OFFCURVE",
"502 294 OFFCURVE",
"502 184 CURVE SMOOTH",
"502 71 OFFCURVE",
"422 21 OFFCURVE",
"300 21 CURVE SMOOTH"
);
}
);
width = 587;
}
);
leftKerningGroup = B;
note = B;
rightKerningGroup = B;
},
{
glyphname = c.case;
lastChange = "2020-09-09 07:39:32 +0000";
layers = (
{
layerId = "FB938A0F-794B-4CBD-9B18-13182D479D81";
paths = (
{
closed = 1;
nodes = (
"157 716 OFFCURVE",
"20 582 OFFCURVE",
"20 350 CURVE SMOOTH",
"20 109 OFFCURVE",
"151 -20 OFFCURVE",
"355 -20 CURVE SMOOTH",
"452 -20 OFFCURVE",
"533 26 OFFCURVE",
"584 77 CURVE",
"494 191 LINE",
"452 158 OFFCURVE",
"414 135 OFFCURVE",
"365 135 CURVE SMOOTH",
"282 135 OFFCURVE",
"234 203 OFFCURVE",
"234 350 CURVE SMOOTH",
"234 497 OFFCURVE",
"282 568 OFFCURVE",
"362 568 CURVE SMOOTH",
"408 568 OFFCURVE",
"445 549 OFFCURVE",
"481 522 CURVE",
"576 634 LINE",
"516 686 OFFCURVE",
"444 716 OFFCURVE",
"352 716 CURVE SMOOTH"
);
}
);
width = 584;
},
{
layerId = "D8724204-5FB7-4143-B54F-478BABD83301";
paths = (
{
closed = 1;
nodes = (
"195 691 OFFCURVE",
"78 577 OFFCURVE",
"78 340 CURVE SMOOTH",
"78 113 OFFCURVE",
"189 -10 OFFCURVE",
"342 -10 CURVE SMOOTH",
"421 -10 OFFCURVE",
"472 19 OFFCURVE",
"513 54 CURVE",
"499 71 LINE",
"461 39 OFFCURVE",
"419 12 OFFCURVE",
"342 12 CURVE SMOOTH",
"205 12 OFFCURVE",
"101 123 OFFCURVE",
"101 340 CURVE SMOOTH",
"101 570 OFFCURVE",
"208 670 OFFCURVE",
"346 670 CURVE SMOOTH",
"411 670 OFFCURVE",
"449 651 OFFCURVE",
"492 617 CURVE",
"505 633 LINE",
"463 668 OFFCURVE",
"419 691 OFFCURVE",
"344 691 CURVE SMOOTH"
);
}
);
width = 538;
}
);
leftKerningGroup = uni2C6D;
note = C;
rightKerningGroup = C;
},
{
glyphname = f.case;
lastChange = "2020-09-09 07:39:32 +0000";
layers = (
{
hints = (
{
horizontal = 1;
origin = "{0, 0}";
target = up;
type = BottomGhost;
},
{
horizontal = 1;
origin = "{0, 2}";
target = "{0, 5}";
type = Stem;
},
{
horizontal = 1;
origin = "{0, 6}";
target = "{0, 9}";
type = Stem;
},
{
origin = "{0, 0}";
target = "{0, 1}";
type = Stem;
}
);
layerId = "FB938A0F-794B-4CBD-9B18-13182D479D81";
paths = (
{
closed = 1;
nodes = (
"43 0 LINE",
"249 0 LINE",
"249 258 LINE",
"438 258 LINE",
"438 401 LINE",
"249 401 LINE",
"249 553 LINE",
"464 553 LINE",
"485 696 LINE",
"43 696 LINE"
);
}
);
width = 485;
},
{
hints = (
{
horizontal = 1;
origin = "{0, 0}";
target = up;
type = BottomGhost;
},
{
horizontal = 1;
origin = "{0, 2}";
target = "{0, 5}";
type = Stem;
},
{
horizontal = 1;
origin = "{0, 9}";
target = "{0, 6}";
type = Stem;
},
{
origin = "{0, 0}";
target = "{0, 1}";
type = Stem;
}
);
layerId = "D8724204-5FB7-4143-B54F-478BABD83301";
paths = (
{
closed = 1;
nodes = (
"123 0 LINE",
"146 0 LINE",
"146 335 LINE",
"396 335 LINE",
"396 356 LINE",
"146 356 LINE",
"146 660 LINE",
"436 660 LINE",
"439 681 LINE",
"123 681 LINE"
);
}
);
width = 471;
}
);
leftKerningGroup = B;
note = F;
rightKerningGroup = F;
},
{
glyphname = u.case;
lastChange = "2020-09-09 07:39:32 +0000";
layers = (
{
layerId = "FB938A0F-794B-4CBD-9B18-13182D479D81";
paths = (
{
closed = 1;
nodes = (
"611 696 LINE",
"405 696 LINE",
"405 242 LINE SMOOTH",
"405 165 OFFCURVE",
"382 128 OFFCURVE",
"322 128 CURVE SMOOTH",
"262 128 OFFCURVE",
"239 165 OFFCURVE",
"239 242 CURVE SMOOTH",
"239 696 LINE",
"33 696 LINE",
"33 236 LINE SMOOTH",
"33 84 OFFCURVE",
"126 -20 OFFCURVE",
"322 -20 CURVE SMOOTH",
"518 -20 OFFCURVE",
"611 94 OFFCURVE",
"611 236 CURVE SMOOTH"
);
}
);
width = 644;
},
{
layerId = "D8724204-5FB7-4143-B54F-478BABD83301";
paths = (
{
closed = 1;
nodes = (
"528 681 LINE",
"505 681 LINE",
"505 210 LINE SMOOTH",
"505 95 OFFCURVE",
"454 12 OFFCURVE",
"321 12 CURVE SMOOTH",
"188 12 OFFCURVE",
"136 93 OFFCURVE",
"136 210 CURVE SMOOTH",
"136 681 LINE",
"113 681 LINE",
"113 207 LINE SMOOTH",
"113 82 OFFCURVE",
"173 -10 OFFCURVE",
"321 -10 CURVE SMOOTH",
"467 -10 OFFCURVE",
"528 82 OFFCURVE",
"528 207 CURVE SMOOTH"
);
}
);
width = 640;
}
);
leftKerningGroup = uni0196;
note = U;
rightKerningGroup = U;
},
{
glyphname = T.case;
lastChange = "2020-09-09 07:39:33 +0000";
layers = (
{
layerId = "FB938A0F-794B-4CBD-9B18-13182D479D81";
paths = (
{
closed = 1;
nodes = (
"136 716 OFFCURVE",
"20 575 OFFCURVE",
"20 349 CURVE SMOOTH",
"20 118 OFFCURVE",
"136 -20 OFFCURVE",
"345 -20 CURVE SMOOTH",
"554 -20 OFFCURVE",
"670 123 OFFCURVE",
"670 349 CURVE SMOOTH",
"670 580 OFFCURVE",
"554 716 OFFCURVE",
"345 716 CURVE SMOOTH"
);
},
{
closed = 1;
nodes = (
"433 570 OFFCURVE",
"470 510 OFFCURVE",
"470 349 CURVE SMOOTH",
"470 188 OFFCURVE",
"435 126 OFFCURVE",
"345 126 CURVE SMOOTH",
"257 126 OFFCURVE",
"220 188 OFFCURVE",
"220 349 CURVE SMOOTH",
"220 510 OFFCURVE",
"257 570 OFFCURVE",
"345 570 CURVE SMOOTH"
);
},
{
closed = 1;
nodes = (
"435 405 LINE",
"255 405 LINE",
"255 299 LINE",
"435 299 LINE"
);
}
);
width = 690;
},
{
layerId = "D8724204-5FB7-4143-B54F-478BABD83301";
paths = (
{
closed = 1;
nodes = (
"187 691 OFFCURVE",
"78 563 OFFCURVE",
"78 339 CURVE SMOOTH",
"78 115 OFFCURVE",
"185 -10 OFFCURVE",
"344 -10 CURVE SMOOTH",
"511 -10 OFFCURVE",
"611 119 OFFCURVE",
"611 340 CURVE SMOOTH",
"611 569 OFFCURVE",
"505 691 OFFCURVE",
"344 691 CURVE SMOOTH"
);
},
{
closed = 1;
nodes = (
"492 670 OFFCURVE",
"588 557 OFFCURVE",
"588 340 CURVE SMOOTH",
"588 127 OFFCURVE",
"498 12 OFFCURVE",
"344 12 CURVE SMOOTH",
"199 12 OFFCURVE",
"101 127 OFFCURVE",
"101 339 CURVE SMOOTH",
"101 554 OFFCURVE",
"200 670 OFFCURVE",
"344 670 CURVE SMOOTH"
);
},
{
closed = 1;
nodes = (
"482 361 LINE",
"207 361 LINE",
"207 340 LINE",
"482 340 LINE"
);
}
);
width = 689;
}
);
leftKerningGroup = uni2C6D;
note = Theta;
rightKerningGroup = D;
},
{
glyphname = f_f;
lastChange = "2020-09-09 07:39:33 +0000";
layers = (
{
layerId = "FB938A0F-794B-4CBD-9B18-13182D479D81";
paths = (
{
closed = 1;
nodes = (
"653 622 OFFCURVE",
"681 617 OFFCURVE",
"709 602 CURVE",
"761 727 LINE",
"724 747 OFFCURVE",
"662 764 OFFCURVE",
"604 764 CURVE SMOOTH",
"540 764 OFFCURVE",
"490 748 OFFCURVE",
"453 722 CURVE",
"413 736 OFFCURVE",
"360 751 OFFCURVE",
"304 751 CURVE SMOOTH",
"151 751 OFFCURVE",
"78 665 OFFCURVE",
"78 555 CURVE SMOOTH",
"78 534 LINE",
"-2 534 LINE",
"-2 400 LINE",
"78 400 LINE",
"78 0 LINE",
"276 0 LINE",
"276 400 LINE",
"378 400 LINE",
"378 0 LINE",
"576 0 LINE",
"576 400 LINE",
"678 400 LINE",
"700 534 LINE",
"576 534 LINE",
"576 555 LINE SMOOTH",
"576 605 OFFCURVE",
"593 622 OFFCURVE",
"631 622 CURVE SMOOTH"
);
},
{
closed = 1;
nodes = (
"378 534 LINE",
"276 534 LINE",
"276 563 LINE SMOOTH",
"276 605 OFFCURVE",
"289 618 OFFCURVE",
"327 618 CURVE SMOOTH",
"347 618 OFFCURVE",
"365 616 OFFCURVE",
"383 612 CURVE",
"380 597 OFFCURVE",
"378 581 OFFCURVE",
"378 565 CURVE SMOOTH"
);
}
);
width = 677;
},
{
layerId = "D8724204-5FB7-4143-B54F-478BABD83301";
paths = (
{
closed = 1;
nodes = (
"566 716 OFFCURVE",
"600 706 OFFCURVE",
"633 689 CURVE",
"642 706 LINE",
"608 725 OFFCURVE",
"568 737 OFFCURVE",
"526 737 CURVE SMOOTH",
"480 737 OFFCURVE",
"443 721 OFFCURVE",
"422 689 CURVE",
"359 716 OFFCURVE",
"312 727 OFFCURVE",
"255 727 CURVE SMOOTH",
"170 727 OFFCURVE",
"121 685 OFFCURVE",
"121 607 CURVE SMOOTH",
"121 519 LINE",
"31 519 LINE",
"31 499 LINE",
"121 499 LINE",
"121 0 LINE",
"143 0 LINE",
"143 499 LINE",
"402 499 LINE",
"402 0 LINE",
"424 0 LINE",
"424 499 LINE",
"568 499 LINE",
"571 519 LINE",
"424 519 LINE",
"424 614 LINE SMOOTH",
"424 686 OFFCURVE",
"466 716 OFFCURVE",
"527 716 CURVE SMOOTH"
);
},
{
closed = 1;
nodes = (
"402 519 LINE",
"143 519 LINE",
"143 604 LINE SMOOTH",
"143 676 OFFCURVE",
"184 706 OFFCURVE",
"257 706 CURVE SMOOTH",
"311 706 OFFCURVE",
"355 696 OFFCURVE",
"412 672 CURVE",
"406 656 OFFCURVE",
"402 638 OFFCURVE",
"402 617 CURVE SMOOTH"
);
}
);
width = 588;
}
);
leftKerningGroup = f;
note = f_f;
rightKerningGroup = f;
},
{
glyphname = f_f_i;
lastChange = "2020-09-09 07:39:34 +0000";
layers = (
{
layerId = "FB938A0F-794B-4CBD-9B18-13182D479D81";
paths = (
{
closed = 1;
nodes = (
"576 534 LINE",
"576 555 LINE SMOOTH",
"576 607 OFFCURVE",
"594 622 OFFCURVE",
"649 622 CURVE SMOOTH",
"693 622 OFFCURVE",
"734 610 OFFCURVE",
"765 598 CURVE",
"817 722 LINE",
"774 742 OFFCURVE",
"705 764 OFFCURVE",
"622 764 CURVE SMOOTH",
"548 764 OFFCURVE",
"493 748 OFFCURVE",
"455 722 CURVE",
"414 736 OFFCURVE",
"360 751 OFFCURVE",
"304 751 CURVE SMOOTH",
"151 751 OFFCURVE",
"78 665 OFFCURVE",
"78 555 CURVE SMOOTH",
"78 534 LINE",
"-2 534 LINE",
"-2 400 LINE",
"78 400 LINE",
"78 0 LINE",
"276 0 LINE",
"276 400 LINE",
"378 400 LINE",
"378 0 LINE",
"576 0 LINE",
"576 400 LINE",
"673 400 LINE",
"673 0 LINE",
"871 0 LINE",
"871 534 LINE"
);
},
{
closed = 1;
nodes = (
"378 534 LINE",
"276 534 LINE",
"276 563 LINE SMOOTH",
"276 605 OFFCURVE",
"289 618 OFFCURVE",
"327 618 CURVE SMOOTH",
"347 618 OFFCURVE",
"364 616 OFFCURVE",
"383 612 CURVE",
"380 597 OFFCURVE",
"378 581 OFFCURVE",
"378 565 CURVE SMOOTH"
);
}
);
width = 913;
},
{
layerId = "D8724204-5FB7-4143-B54F-478BABD83301";
paths = (
{
closed = 1;
nodes = (
"424 519 LINE",
"424 611 LINE SMOOTH",
"424 691 OFFCURVE",
"464 716 OFFCURVE",
"529 716 CURVE SMOOTH",
"581 716 OFFCURVE",
"624 700 OFFCURVE",
"662 681 CURVE",
"670 699 LINE",
"632 720 OFFCURVE",
"584 737 OFFCURVE",
"529 737 CURVE SMOOTH",
"479 737 OFFCURVE",
"441 721 OFFCURVE",
"421 689 CURVE",
"358 716 OFFCURVE",
"312 727 OFFCURVE",
"255 727 CURVE SMOOTH",
"170 727 OFFCURVE",
"121 685 OFFCURVE",
"121 607 CURVE SMOOTH",
"121 519 LINE",
"31 519 LINE",
"31 499 LINE",
"121 499 LINE",
"121 0 LINE",
"143 0 LINE",
"143 499 LINE",
"402 499 LINE",
"402 0 LINE",
"424 0 LINE",
"424 499 LINE",
"691 499 LINE",
"691 0 LINE",
"713 0 LINE",
"713 519 LINE"
);
},
{
closed = 1;
nodes = (
"402 519 LINE",
"143 519 LINE",
"143 604 LINE SMOOTH",
"143 676 OFFCURVE",
"184 706 OFFCURVE",
"257 706 CURVE SMOOTH",
"311 706 OFFCURVE",
"354 696 OFFCURVE",
"412 672 CURVE",
"405 656 OFFCURVE",
"402 638 OFFCURVE",
"402 616 CURVE SMOOTH"
);
}
);
width = 830;
}
);
leftKerningGroup = f;
note = f_f_i;
rightKerningGroup = uni029C;
},
{
glyphname = f_f_l;
lastChange = "2020-09-09 07:39:34 +0000";
layers = (
{
layerId = "FB938A0F-794B-4CBD-9B18-13182D479D81";
paths = (
{
closed = 1;
nodes = (
"935 139 LINE",
"929 137 OFFCURVE",
"919 135 OFFCURVE",
"913 135 CURVE SMOOTH",
"900 135 OFFCURVE",
"890 144 OFFCURVE",
"890 175 CURVE SMOOTH",
"890 764 LINE",
"718 747 LINE",
"684 756 OFFCURVE",
"645 764 OFFCURVE",
"604 764 CURVE SMOOTH",
"540 764 OFFCURVE",
"490 748 OFFCURVE",
"453 722 CURVE",
"413 736 OFFCURVE",
"360 751 OFFCURVE",
"304 751 CURVE SMOOTH",
"151 751 OFFCURVE",
"78 665 OFFCURVE",
"78 555 CURVE SMOOTH",
"78 534 LINE",
"-2 534 LINE",
"-2 400 LINE",
"78 400 LINE",
"78 0 LINE",
"276 0 LINE",
"276 400 LINE",
"378 400 LINE",
"378 0 LINE",
"576 0 LINE",
"576 400 LINE",
"638 400 LINE",
"660 534 LINE",
"576 534 LINE",
"576 559 LINE SMOOTH",
"576 609 OFFCURVE",
"589 626 OFFCURVE",
"636 626 CURVE SMOOTH",
"656 626 OFFCURVE",
"672 624 OFFCURVE",
"692 619 CURVE",
"692 151 LINE SMOOTH",
"692 40 OFFCURVE",
"752 -20 OFFCURVE",
"854 -20 CURVE SMOOTH",
"897 -20 OFFCURVE",
"942 -12 OFFCURVE",
"970 -2 CURVE"
);
},
{
closed = 1;
nodes = (
"378 534 LINE",
"276 534 LINE",
"276 563 LINE SMOOTH",
"276 605 OFFCURVE",
"289 618 OFFCURVE",
"327 618 CURVE SMOOTH",
"347 618 OFFCURVE",
"365 616 OFFCURVE",
"383 612 CURVE",
"380 597 OFFCURVE",
"378 581 OFFCURVE",
"378 565 CURVE SMOOTH"
);
}
);
width = 960;
},
{
layerId = "D8724204-5FB7-4143-B54F-478BABD83301";
paths = (
{
closed = 1;
nodes = (
"804 19 LINE",
"792 14 OFFCURVE",
"779 11 OFFCURVE",
"766 11 CURVE SMOOTH",
"729 11 OFFCURVE",
"714 32 OFFCURVE",
"714 73 CURVE SMOOTH",
"714 712 LINE",
"692 709 LINE",
"640 726 OFFCURVE",
"596 737 OFFCURVE",
"537 737 CURVE SMOOTH",
"484 737 OFFCURVE",
"444 720 OFFCURVE",
"422 689 CURVE",
"359 716 OFFCURVE",
"312 727 OFFCURVE",
"255 727 CURVE SMOOTH",
"170 727 OFFCURVE",
"121 685 OFFCURVE",
"121 607 CURVE SMOOTH",
"121 519 LINE",
"31 519 LINE",
"31 499 LINE",
"121 499 LINE",
"121 0 LINE",
"143 0 LINE",
"143 499 LINE",
"402 499 LINE",
"402 0 LINE",
"424 0 LINE",
"424 499 LINE",
"568 499 LINE",
"571 519 LINE",
"424 519 LINE",
"424 614 LINE SMOOTH",
"424 686 OFFCURVE",
"466 716 OFFCURVE",
"539 716 CURVE SMOOTH",
"594 716 OFFCURVE",
"639 707 OFFCURVE",
"692 689 CURVE",
"692 74 LINE SMOOTH",
"692 17 OFFCURVE",
"718 -10 OFFCURVE",
"764 -10 CURVE SMOOTH",
"781 -10 OFFCURVE",
"798 -5 OFFCURVE",
"811 0 CURVE"
);
},
{
closed = 1;
nodes = (
"402 519 LINE",
"143 519 LINE",
"143 604 LINE SMOOTH",
"143 676 OFFCURVE",
"184 706 OFFCURVE",
"257 706 CURVE SMOOTH",
"311 706 OFFCURVE",
"355 696 OFFCURVE",
"412 672 CURVE",
"406 656 OFFCURVE",
"402 638 OFFCURVE",
"402 617 CURVE SMOOTH"
);
}
);
width = 864;
}
);
leftKerningGroup = f;
note = f_f_l;
rightKerningGroup = uni0269;
},
{
glyphname = f_f_short;
lastChange = "2020-09-09 07:39:35 +0000";
layers = (
{
layerId = "FB938A0F-794B-4CBD-9B18-13182D479D81";
paths = (
{
closed = 1;
nodes = (
"641 622 OFFCURVE",
"653 621 OFFCURVE",
"666 618 CURVE",
"699 751 LINE",
"669 759 OFFCURVE",
"636 764 OFFCURVE",
"604 764 CURVE SMOOTH",
"540 764 OFFCURVE",
"490 748 OFFCURVE",
"453 722 CURVE",
"413 736 OFFCURVE",
"360 751 OFFCURVE",
"304 751 CURVE SMOOTH",
"151 751 OFFCURVE",
"78 665 OFFCURVE",
"78 555 CURVE SMOOTH",
"78 534 LINE",
"-2 534 LINE",
"-2 400 LINE",
"78 400 LINE",
"78 0 LINE",
"276 0 LINE",
"276 400 LINE",
"378 400 LINE",
"378 0 LINE",
"576 0 LINE",
"576 400 LINE",
"632 400 LINE",
"654 534 LINE",
"576 534 LINE",
"576 555 LINE SMOOTH",
"576 605 OFFCURVE",
"593 622 OFFCURVE",
"631 622 CURVE SMOOTH"
);
},
{
closed = 1;
nodes = (
"378 534 LINE",
"276 534 LINE",
"276 563 LINE SMOOTH",
"276 605 OFFCURVE",
"289 618 OFFCURVE",
"327 618 CURVE SMOOTH",
"347 618 OFFCURVE",
"365 616 OFFCURVE",
"383 612 CURVE",
"380 597 OFFCURVE",
"378 581 OFFCURVE",
"378 565 CURVE SMOOTH"
);
}
);
width = 677;
},
{
layerId = "D8724204-5FB7-4143-B54F-478BABD83301";
paths = (
{
closed = 1;
nodes = (
"553 716 OFFCURVE",
"576 711 OFFCURVE",
"597 704 CURVE",
"602 723 LINE",
"579 732 OFFCURVE",
"553 737 OFFCURVE",
"526 737 CURVE SMOOTH",
"480 737 OFFCURVE",
"443 721 OFFCURVE",
"422 689 CURVE",
"359 716 OFFCURVE",
"312 727 OFFCURVE",
"255 727 CURVE SMOOTH",
"170 727 OFFCURVE",
"121 685 OFFCURVE",
"121 607 CURVE SMOOTH",
"121 519 LINE",
"31 519 LINE",
"31 499 LINE",
"121 499 LINE",
"121 0 LINE",
"143 0 LINE",
"143 499 LINE",
"402 499 LINE",
"402 0 LINE",
"424 0 LINE",
"424 499 LINE",
"561 499 LINE",
"564 519 LINE",
"424 519 LINE",
"424 614 LINE SMOOTH",
"424 686 OFFCURVE",
"466 716 OFFCURVE",
"527 716 CURVE SMOOTH"
);
},
{
closed = 1;
nodes = (
"402 519 LINE",
"143 519 LINE",
"143 604 LINE SMOOTH",
"143 676 OFFCURVE",
"184 706 OFFCURVE",
"257 706 CURVE SMOOTH",
"311 706 OFFCURVE",
"355 696 OFFCURVE",
"412 672 CURVE",
"406 656 OFFCURVE",
"402 638 OFFCURVE",
"402 617 CURVE SMOOTH"
);
}
);
width = 588;
}
);
leftKerningGroup = f;
note = f_f_short;
rightKerningGroup = f;
},
{
glyphname = f_i;
lastChange = "2020-09-09 07:39:35 +0000";
layers = (
{
layerId = "FB938A0F-794B-4CBD-9B18-13182D479D81";
paths = (
{
closed = 1;
nodes = (
"147 764 OFFCURVE",
"78 675 OFFCURVE",
"78 565 CURVE SMOOTH",
"78 534 LINE",
"-2 534 LINE",
"-2 400 LINE",
"78 400 LINE",
"78 0 LINE",
"276 0 LINE",
"276 400 LINE",
"373 400 LINE",
"373 0 LINE",
"571 0 LINE",
"571 534 LINE",
"276 534 LINE",
"276 555 LINE SMOOTH",
"276 607 OFFCURVE",
"294 622 OFFCURVE",
"349 622 CURVE SMOOTH",
"393 622 OFFCURVE",
"434 610 OFFCURVE",
"465 598 CURVE",
"517 722 LINE",
"474 742 OFFCURVE",
"405 764 OFFCURVE",
"322 764 CURVE SMOOTH"
);
}
);
width = 613;
},
{
layerId = "D8724204-5FB7-4143-B54F-478BABD83301";
paths = (
{
closed = 1;
nodes = (
"168 737 OFFCURVE",
"121 698 OFFCURVE",
"121 616 CURVE SMOOTH",
"121 519 LINE",
"31 519 LINE",
"31 499 LINE",
"121 499 LINE",
"121 0 LINE",
"143 0 LINE",
"143 499 LINE",
"409 499 LINE",
"409 0 LINE",
"431 0 LINE",
"431 519 LINE",
"143 519 LINE",
"143 611 LINE SMOOTH",
"143 691 OFFCURVE",
"183 716 OFFCURVE",
"248 716 CURVE SMOOTH",
"300 716 OFFCURVE",
"342 700 OFFCURVE",
"380 681 CURVE",
"389 699 LINE",
"350 720 OFFCURVE",
"302 737 OFFCURVE",
"247 737 CURVE SMOOTH"
);
}
);
width = 549;
}
);
leftKerningGroup = f;
note = f_i;
rightKerningGroup = uni029C;
},
{
glyphname = f_l;
lastChange = "2020-09-09 07:39:36 +0000";
layers = (
{
layerId = "FB938A0F-794B-4CBD-9B18-13182D479D81";
paths = (
{
closed = 1;
nodes = (
"635 139 LINE",
"629 137 OFFCURVE",
"619 135 OFFCURVE",
"613 135 CURVE SMOOTH",
"600 135 OFFCURVE",
"590 144 OFFCURVE",
"590 175 CURVE SMOOTH",
"590 764 LINE",
"418 747 LINE",
"384 756 OFFCURVE",
"345 764 OFFCURVE",
"304 764 CURVE SMOOTH",
"151 764 OFFCURVE",
"78 675 OFFCURVE",
"78 565 CURVE SMOOTH",
"78 534 LINE",
"-2 534 LINE",
"-2 400 LINE",
"78 400 LINE",
"78 0 LINE",
"276 0 LINE",
"276 400 LINE",
"338 400 LINE",
"360 534 LINE",
"276 534 LINE",
"276 559 LINE SMOOTH",
"276 609 OFFCURVE",
"289 626 OFFCURVE",
"336 626 CURVE SMOOTH",
"356 626 OFFCURVE",
"372 624 OFFCURVE",
"392 619 CURVE",
"392 151 LINE SMOOTH",
"392 40 OFFCURVE",
"452 -20 OFFCURVE",
"554 -20 CURVE SMOOTH",
"597 -20 OFFCURVE",
"642 -12 OFFCURVE",
"670 -2 CURVE"
);
}
);
width = 660;
},
{
layerId = "D8724204-5FB7-4143-B54F-478BABD83301";
paths = (
{
closed = 1;
nodes = (
"523 19 LINE",
"511 14 OFFCURVE",
"498 11 OFFCURVE",
"485 11 CURVE SMOOTH",
"447 11 OFFCURVE",
"432 32 OFFCURVE",
"432 73 CURVE SMOOTH",
"432 712 LINE",
"410 709 LINE",
"359 726 OFFCURVE",
"314 737 OFFCURVE",
"255 737 CURVE SMOOTH",
"170 737 OFFCURVE",
"121 695 OFFCURVE",
"121 617 CURVE SMOOTH",
"121 519 LINE",
"31 519 LINE",
"31 499 LINE",
"121 499 LINE",
"121 0 LINE",
"143 0 LINE",
"143 499 LINE",
"286 499 LINE",
"290 519 LINE",
"143 519 LINE",
"143 614 LINE SMOOTH",
"143 686 OFFCURVE",
"184 716 OFFCURVE",
"257 716 CURVE SMOOTH",
"312 716 OFFCURVE",
"357 707 OFFCURVE",
"410 689 CURVE",
"410 74 LINE SMOOTH",
"410 17 OFFCURVE",
"437 -10 OFFCURVE",
"483 -10 CURVE SMOOTH",
"500 -10 OFFCURVE",
"517 -5 OFFCURVE",
"529 0 CURVE"
);
}
);
width = 582;
}
);
leftKerningGroup = f;
note = f_l;
rightKerningGroup = uni0269;
},
{
glyphname = fi;
lastChange = "2020-09-09 07:39:36 +0000";
layers = (
{
layerId = "FB938A0F-794B-4CBD-9B18-13182D479D81";
paths = (
{
closed = 1;
nodes = (
"147 764 OFFCURVE",
"78 675 OFFCURVE",
"78 565 CURVE SMOOTH",
"78 534 LINE",
"-2 534 LINE",
"-2 400 LINE",
"78 400 LINE",
"78 0 LINE",
"276 0 LINE",
"276 400 LINE",
"373 400 LINE",
"373 0 LINE",
"571 0 LINE",
"571 534 LINE",
"276 534 LINE",
"276 555 LINE SMOOTH",
"276 607 OFFCURVE",
"294 622 OFFCURVE",
"349 622 CURVE SMOOTH",
"393 622 OFFCURVE",
"434 610 OFFCURVE",
"465 598 CURVE",
"517 722 LINE",
"474 742 OFFCURVE",
"405 764 OFFCURVE",
"322 764 CURVE SMOOTH"
);
}
);
width = 613;
},
{
layerId = "D8724204-5FB7-4143-B54F-478BABD83301";
paths = (
{
closed = 1;
nodes = (
"168 737 OFFCURVE",
"121 698 OFFCURVE",
"121 616 CURVE SMOOTH",
"121 519 LINE",
"31 519 LINE",
"31 499 LINE",
"121 499 LINE",
"121 0 LINE",
"143 0 LINE",
"143 499 LINE",
"409 499 LINE",
"409 0 LINE",
"431 0 LINE",
"431 519 LINE",
"143 519 LINE",
"143 611 LINE SMOOTH",
"143 691 OFFCURVE",
"183 716 OFFCURVE",
"248 716 CURVE SMOOTH",
"300 716 OFFCURVE",
"342 700 OFFCURVE",
"380 681 CURVE",
"389 699 LINE",
"350 720 OFFCURVE",
"302 737 OFFCURVE",
"247 737 CURVE SMOOTH"
);
}
);
width = 549;
}
);
leftKerningGroup = f;
note = fi;
rightKerningGroup = uni029C;
unicode = FB01;
},
{
glyphname = fl;
lastChange = "2020-09-09 07:39:36 +0000";
layers = (
{
layerId = "FB938A0F-794B-4CBD-9B18-13182D479D81";
paths = (
{
closed = 1;
nodes = (
"635 139 LINE",
"629 137 OFFCURVE",
"619 135 OFFCURVE",
"613 135 CURVE SMOOTH",
"600 135 OFFCURVE",
"590 144 OFFCURVE",
"590 175 CURVE SMOOTH",
"590 764 LINE",
"418 747 LINE",
"384 756 OFFCURVE",
"345 764 OFFCURVE",
"304 764 CURVE SMOOTH",
"151 764 OFFCURVE",
"78 675 OFFCURVE",
"78 565 CURVE SMOOTH",
"78 534 LINE",
"-2 534 LINE",
"-2 400 LINE",
"78 400 LINE",
"78 0 LINE",
"276 0 LINE",
"276 400 LINE",
"338 400 LINE",
"360 534 LINE",
"276 534 LINE",
"276 559 LINE SMOOTH",
"276 609 OFFCURVE",
"289 626 OFFCURVE",
"336 626 CURVE SMOOTH",
"356 626 OFFCURVE",
"372 624 OFFCURVE",
"392 619 CURVE",
"392 151 LINE SMOOTH",
"392 40 OFFCURVE",
"452 -20 OFFCURVE",
"554 -20 CURVE SMOOTH",
"597 -20 OFFCURVE",
"642 -12 OFFCURVE",
"670 -2 CURVE"
);
}
);
width = 660;
},
{
layerId = "D8724204-5FB7-4143-B54F-478BABD83301";
paths = (
{
closed = 1;
nodes = (
"523 19 LINE",
"511 14 OFFCURVE",
"498 11 OFFCURVE",
"485 11 CURVE SMOOTH",
"447 11 OFFCURVE",
"432 32 OFFCURVE",
"432 73 CURVE SMOOTH",
"432 712 LINE",
"410 709 LINE",
"359 726 OFFCURVE",
"314 737 OFFCURVE",
"255 737 CURVE SMOOTH",
"170 737 OFFCURVE",
"121 695 OFFCURVE",
"121 617 CURVE SMOOTH",
"121 519 LINE",
"31 519 LINE",
"31 499 LINE",
"121 499 LINE",
"121 0 LINE",
"143 0 LINE",
"143 499 LINE",
"286 499 LINE",
"290 519 LINE",
"143 519 LINE",
"143 614 LINE SMOOTH",
"143 686 OFFCURVE",
"184 716 OFFCURVE",
"257 716 CURVE SMOOTH",
"312 716 OFFCURVE",
"357 707 OFFCURVE",
"410 689 CURVE",
"410 74 LINE SMOOTH",
"410 17 OFFCURVE",
"437 -10 OFFCURVE",
"483 -10 CURVE SMOOTH",
"500 -10 OFFCURVE",
"517 -5 OFFCURVE",
"529 0 CURVE"
);
}
);
width = 582;
}
);
leftKerningGroup = f;
note = fl;
rightKerningGroup = uni0269;
unicode = FB02;
},
{
glyphname = f_L.liga;
lastChange = "2020-09-09 07:39:37 +0000";
layers = (
{
layerId = "D8724204-5FB7-4143-B54F-478BABD83301";
paths = (
{
closed = 1;
nodes = (
"143 519 LINE",
"143 614 LINE SMOOTH",
"143 686 OFFCURVE",
"184 716 OFFCURVE",
"246 716 CURVE SMOOTH",
"285 716 OFFCURVE",
"319 706 OFFCURVE",
"352 689 CURVE",
"360 706 LINE",
"327 725 OFFCURVE",
"286 737 OFFCURVE",
"244 737 CURVE SMOOTH",
"171 737 OFFCURVE",
"121 695 OFFCURVE",
"121 617 CURVE SMOOTH",
"121 519 LINE",
"31 519 LINE",
"31 499 LINE",
"121 499 LINE",
"121 0 LINE",
"143 0 LINE",
"143 499 LINE",
"477 499 LINE",
"477 73 LINE SMOOTH",
"477 32 OFFCURVE",
"460 11 OFFCURVE",
"426 11 CURVE SMOOTH",
"412 11 OFFCURVE",
"398 14 OFFCURVE",
"386 19 CURVE",
"380 0 LINE",
"393 -5 OFFCURVE",
"409 -10 OFFCURVE",
"427 -10 CURVE SMOOTH",
"470 -10 OFFCURVE",
"499 16 OFFCURVE",
"499 72 CURVE SMOOTH",
"499 499 LINE",
"716 499 LINE SMOOTH",
"814 499 OFFCURVE",
"833 458 OFFCURVE",
"833 360 CURVE SMOOTH",
"833 0 LINE",
"855 0 LINE",
"855 362 LINE SMOOTH",
"855 472 OFFCURVE",
"830 519 OFFCURVE",
"716 519 CURVE SMOOTH"
);
}
);
width = 955;
},
{
layerId = "FB938A0F-794B-4CBD-9B18-13182D479D81";
paths = (
{
closed = 1;
nodes = (
"268 534 LINE",
"268 555 LINE SMOOTH",
"268 605 OFFCURVE",
"285 622 OFFCURVE",
"323 622 CURVE SMOOTH",
"345 622 OFFCURVE",
"373 617 OFFCURVE",
"401 602 CURVE",
"453 727 LINE",
"416 747 OFFCURVE",
"354 764 OFFCURVE",
"296 764 CURVE SMOOTH",
"143 764 OFFCURVE",
"70 675 OFFCURVE",
"70 565 CURVE SMOOTH",
"70 534 LINE",
"-2 534 LINE",
"-2 380 LINE",
"70 380 LINE",
"70 0 LINE",
"268 0 LINE",
"268 380 LINE",
"379 380 LINE",
"379 162 LINE SMOOTH",
"379 146 OFFCURVE",
"371 137 OFFCURVE",
"355 137 CURVE SMOOTH",
"346 137 OFFCURVE",
"339 139 OFFCURVE",
"334 141 CURVE",
"299 0 LINE",
"325 -10 OFFCURVE",
"364 -18 OFFCURVE",
"409 -18 CURVE SMOOTH",
"517 -18 OFFCURVE",
"573 45 OFFCURVE",
"573 154 CURVE SMOOTH",
"573 380 LINE",
"637 380 LINE SMOOTH",
"677 380 OFFCURVE",
"692 361 OFFCURVE",
"692 314 CURVE SMOOTH",
"692 0 LINE",
"890 0 LINE",
"890 322 LINE SMOOTH",
"890 459 OFFCURVE",
"841 534 OFFCURVE",
"696 534 CURVE SMOOTH"
);
}
);
width = 925;
}
);
leftMetricsKey = f;
rightMetricsKey = L;
},
{
glyphname = f_f_j.liga;
lastChange = "2020-09-09 07:39:37 +0000";
layers = (
{
layerId = "FB938A0F-794B-4CBD-9B18-13182D479D81";
paths = (
{
closed = 1;
nodes = (
"871 534 LINE",
"576 534 LINE",
"576 555 LINE SMOOTH",
"576 607 OFFCURVE",
"594 622 OFFCURVE",
"654 622 CURVE SMOOTH",
"693 622 OFFCURVE",
"734 610 OFFCURVE",
"765 598 CURVE",
"817 722 LINE",
"774 742 OFFCURVE",
"705 764 OFFCURVE",
"622 764 CURVE SMOOTH",
"548 764 OFFCURVE",
"493 748 OFFCURVE",
"455 722 CURVE",
"414 736 OFFCURVE",
"360 751 OFFCURVE",
"304 751 CURVE SMOOTH",
"151 751 OFFCURVE",
"78 665 OFFCURVE",
"78 555 CURVE SMOOTH",
"78 534 LINE",
"-2 534 LINE",
"-2 400 LINE",
"78 400 LINE",
"78 0 LINE",
"276 0 LINE",
"276 400 LINE",
"378 400 LINE",
"378 0 LINE",
"576 0 LINE",
"576 400 LINE",
"673 400 LINE",
"673 65 LINE SMOOTH",
"673 -22 OFFCURVE",
"628 -52 OFFCURVE",
"561 -83 CURVE",
"629 -227 LINE",
"761 -184 OFFCURVE",
"871 -111 OFFCURVE",
"871 77 CURVE SMOOTH"
);
},
{
closed = 1;
nodes = (
"378 534 LINE",
"276 534 LINE",
"276 563 LINE SMOOTH",
"276 605 OFFCURVE",
"289 618 OFFCURVE",
"327 618 CURVE SMOOTH",
"347 618 OFFCURVE",
"364 616 OFFCURVE",
"383 612 CURVE",
"380 597 OFFCURVE",
"378 581 OFFCURVE",
"378 565 CURVE SMOOTH"
);
}
);
width = 913;
},
{
layerId = "D8724204-5FB7-4143-B54F-478BABD83301";
paths = (
{
closed = 1;
nodes = (
"713 519 LINE",
"424 519 LINE",
"424 611 LINE SMOOTH",
"424 691 OFFCURVE",
"464 716 OFFCURVE",
"529 716 CURVE SMOOTH",
"581 716 OFFCURVE",
"624 700 OFFCURVE",
"662 681 CURVE",
"670 699 LINE",
"632 720 OFFCURVE",
"584 737 OFFCURVE",
"529 737 CURVE SMOOTH",
"479 737 OFFCURVE",
"441 721 OFFCURVE",
"421 689 CURVE",
"358 716 OFFCURVE",
"312 727 OFFCURVE",
"255 727 CURVE SMOOTH",
"170 727 OFFCURVE",
"121 685 OFFCURVE",
"121 607 CURVE SMOOTH",
"121 519 LINE",
"31 519 LINE",
"31 499 LINE",
"121 499 LINE",
"121 0 LINE",
"143 0 LINE",
"143 499 LINE",
"402 499 LINE",
"402 0 LINE",
"424 0 LINE",
"424 499 LINE",
"691 499 LINE",
"691 7 LINE SMOOTH",
"691 -110 OFFCURVE",
"662 -142 OFFCURVE",
"594 -178 CURVE",
"600 -194 LINE",
"677 -155 OFFCURVE",
"713 -122 OFFCURVE",
"713 7 CURVE SMOOTH"
);
},
{
closed = 1;
nodes = (
"402 519 LINE",
"143 519 LINE",
"143 604 LINE SMOOTH",
"143 676 OFFCURVE",
"184 706 OFFCURVE",
"257 706 CURVE SMOOTH",
"311 706 OFFCURVE",
"354 696 OFFCURVE",
"412 672 CURVE",
"405 656 OFFCURVE",
"402 638 OFFCURVE",
"402 616 CURVE SMOOTH"
);
}
);
width = 830;
}
);
leftKerningGroup = f;
note = f_f_j;
rightKerningGroup = uni01C8;
},
{
glyphname = f_j.liga;
lastChange = "2020-09-09 07:39:38 +0000";
layers = (
{
layerId = "FB938A0F-794B-4CBD-9B18-13182D479D81";
paths = (
{
closed = 1;
nodes = (
"571 534 LINE",
"276 534 LINE",
"276 555 LINE SMOOTH",
"276 607 OFFCURVE",
"294 622 OFFCURVE",
"354 622 CURVE SMOOTH",
"393 622 OFFCURVE",
"434 610 OFFCURVE",
"465 598 CURVE",
"517 722 LINE",
"474 742 OFFCURVE",
"405 764 OFFCURVE",
"322 764 CURVE SMOOTH",
"147 764 OFFCURVE",
"78 675 OFFCURVE",
"78 565 CURVE SMOOTH",
"78 534 LINE",
"-2 534 LINE",
"-2 400 LINE",
"78 400 LINE",
"78 0 LINE",
"276 0 LINE",
"276 400 LINE",
"373 400 LINE",
"373 65 LINE SMOOTH",
"373 -22 OFFCURVE",
"328 -52 OFFCURVE",
"261 -83 CURVE",
"329 -227 LINE",
"461 -184 OFFCURVE",
"571 -111 OFFCURVE",
"571 77 CURVE SMOOTH"
);
}
);
width = 613;
},
{
layerId = "D8724204-5FB7-4143-B54F-478BABD83301";
paths = (
{
closed = 1;
nodes = (
"431 519 LINE",
"143 519 LINE",
"143 611 LINE SMOOTH",
"143 691 OFFCURVE",
"183 716 OFFCURVE",
"248 716 CURVE SMOOTH",
"300 716 OFFCURVE",
"342 700 OFFCURVE",
"380 681 CURVE",
"389 699 LINE",
"350 720 OFFCURVE",
"302 737 OFFCURVE",
"247 737 CURVE SMOOTH",
"168 737 OFFCURVE",
"121 698 OFFCURVE",
"121 616 CURVE SMOOTH",
"121 519 LINE",
"31 519 LINE",
"31 499 LINE",
"121 499 LINE",
"121 0 LINE",
"143 0 LINE",
"143 499 LINE",
"409 499 LINE",
"409 7 LINE SMOOTH",
"409 -110 OFFCURVE",
"381 -142 OFFCURVE",
"312 -178 CURVE",
"319 -194 LINE",
"396 -155 OFFCURVE",
"431 -122 OFFCURVE",
"431 7 CURVE SMOOTH"
);
}
);
width = 549;
}
);
leftKerningGroup = f;
note = f_j;
rightKerningGroup = uni01C8;
},
{
glyphname = period;
lastChange = "2020-09-09 07:39:38 +0000";
layers = (
{
layerId = "FB938A0F-794B-4CBD-9B18-13182D479D81";
paths = (
{
closed = 1;
nodes = (
"63 186 OFFCURVE",
"17 139 OFFCURVE",
"17 83 CURVE SMOOTH",
"17 27 OFFCURVE",
"63 -20 OFFCURVE",
"120 -20 CURVE SMOOTH",
"177 -20 OFFCURVE",
"223 27 OFFCURVE",
"223 83 CURVE SMOOTH",
"223 139 OFFCURVE",
"177 186 OFFCURVE",
"120 186 CURVE SMOOTH"
);
}
);
width = 240;
},
{
layerId = "D8724204-5FB7-4143-B54F-478BABD83301";
paths = (
{
closed = 1;
nodes = (
"67 38 OFFCURVE",
"58 28 OFFCURVE",
"58 14 CURVE SMOOTH",
"58 2 OFFCURVE",
"67 -8 OFFCURVE",
"81 -8 CURVE SMOOTH",
"96 -8 OFFCURVE",
"105 2 OFFCURVE",
"105 14 CURVE SMOOTH",
"105 28 OFFCURVE",
"96 38 OFFCURVE",
"81 38 CURVE SMOOTH"
);
}
);
width = 163;
}
);
leftKerningGroup = period;
note = period;
rightKerningGroup = period;
unicode = 002E;
},
{
glyphname = comma;
lastChange = "2020-09-09 07:39:39 +0000";
layers = (
{
layerId = "FB938A0F-794B-4CBD-9B18-13182D479D81";
paths = (
{
closed = 1;
nodes = (
"61 186 OFFCURVE",
"17 142 OFFCURVE",
"17 84 CURVE SMOOTH",
"17 48 OFFCURVE",
"33 18 OFFCURVE",
"63 -1 CURVE",
"19 -184 LINE",
"121 -184 LINE",
"183 -44 LINE SMOOTH",
"210 17 OFFCURVE",
"223 48 OFFCURVE",
"223 83 CURVE SMOOTH",
"223 142 OFFCURVE",
"179 186 OFFCURVE",
"120 186 CURVE SMOOTH"
);
}
);
width = 240;
},
{
layerId = "D8724204-5FB7-4143-B54F-478BABD83301";
paths = (
{
closed = 1;
nodes = (
"67 38 OFFCURVE",
"58 28 OFFCURVE",
"58 14 CURVE SMOOTH",
"58 5 OFFCURVE",
"63 -3 OFFCURVE",
"73 -6 CURVE",
"35 -130 LINE",
"52 -130 LINE",
"96 -17 LINE SMOOTH",
"100 -7 OFFCURVE",
"105 4 OFFCURVE",
"105 14 CURVE SMOOTH",
"105 28 OFFCURVE",
"96 38 OFFCURVE",
"81 38 CURVE SMOOTH"
);
}
);
width = 163;
}
);
leftKerningGroup = period;
note = comma;
rightKerningGroup = period;
unicode = 002C;
},
{
glyphname = colon;
lastChange = "2020-09-09 07:39:39 +0000";
layers = (
{
layerId = "FB938A0F-794B-4CBD-9B18-13182D479D81";
paths = (
{
closed = 1;
nodes = (
"63 518 OFFCURVE",
"17 471 OFFCURVE",
"17 415 CURVE SMOOTH",
"17 359 OFFCURVE",
"63 312 OFFCURVE",
"120 312 CURVE SMOOTH",
"177 312 OFFCURVE",
"223 359 OFFCURVE",
"223 415 CURVE SMOOTH",
"223 471 OFFCURVE",
"177 518 OFFCURVE",
"120 518 CURVE SMOOTH"
);
},
{
closed = 1;
nodes = (
"63 186 OFFCURVE",
"17 139 OFFCURVE",
"17 83 CURVE SMOOTH",
"17 27 OFFCURVE",
"63 -20 OFFCURVE",
"120 -20 CURVE SMOOTH",
"177 -20 OFFCURVE",
"223 27 OFFCURVE",
"223 83 CURVE SMOOTH",
"223 139 OFFCURVE",
"177 186 OFFCURVE",
"120 186 CURVE SMOOTH"
);
}
);
width = 240;
},
{
layerId = "D8724204-5FB7-4143-B54F-478BABD83301";
paths = (
{
closed = 1;
nodes = (
"67 453 OFFCURVE",
"58 442 OFFCURVE",
"58 429 CURVE SMOOTH",
"58 417 OFFCURVE",
"67 406 OFFCURVE",
"81 406 CURVE SMOOTH",
"96 406 OFFCURVE",
"105 417 OFFCURVE",
"105 429 CURVE SMOOTH",
"105 442 OFFCURVE",
"96 453 OFFCURVE",
"81 453 CURVE SMOOTH"
);
},
{
closed = 1;
nodes = (
"67 38 OFFCURVE",
"58 28 OFFCURVE",
"58 14 CURVE SMOOTH",
"58 2 OFFCURVE",
"67 -8 OFFCURVE",
"81 -8 CURVE SMOOTH",
"96 -8 OFFCURVE",
"105 2 OFFCURVE",
"105 14 CURVE SMOOTH",
"105 28 OFFCURVE",
"96 38 OFFCURVE",
"81 38 CURVE SMOOTH"
);
}
);
width = 163;
}
);
leftKerningGroup = colon;
note = colon;
unicode = 003A;
},
{
glyphname = semicolon;
lastChange = "2020-09-09 07:39:40 +0000";
layers = (
{
layerId = "FB938A0F-794B-4CBD-9B18-13182D479D81";
paths = (
{
closed = 1;
nodes = (
"63 518 OFFCURVE",
"17 471 OFFCURVE",
"17 415 CURVE SMOOTH",
"17 359 OFFCURVE",
"63 312 OFFCURVE",
"120 312 CURVE SMOOTH",
"177 312 OFFCURVE",
"223 359 OFFCURVE",
"223 415 CURVE SMOOTH",
"223 471 OFFCURVE",
"177 518 OFFCURVE",
"120 518 CURVE SMOOTH"
);
},
{
closed = 1;
nodes = (
"61 186 OFFCURVE",
"17 142 OFFCURVE",
"17 84 CURVE SMOOTH",
"17 48 OFFCURVE",
"33 18 OFFCURVE",
"63 -1 CURVE",
"19 -184 LINE",
"121 -184 LINE",
"183 -44 LINE SMOOTH",
"210 17 OFFCURVE",
"223 48 OFFCURVE",
"223 83 CURVE SMOOTH",
"223 142 OFFCURVE",
"179 186 OFFCURVE",
"120 186 CURVE SMOOTH"
);
}
);
width = 240;
},
{
layerId = "D8724204-5FB7-4143-B54F-478BABD83301";
paths = (
{
closed = 1;
nodes = (
"67 453 OFFCURVE",
"58 442 OFFCURVE",
"58 429 CURVE SMOOTH",
"58 417 OFFCURVE",
"67 406 OFFCURVE",
"81 406 CURVE SMOOTH",
"96 406 OFFCURVE",
"105 417 OFFCURVE",
"105 429 CURVE SMOOTH",
"105 442 OFFCURVE",
"96 453 OFFCURVE",
"81 453 CURVE SMOOTH"
);
},
{
closed = 1;
nodes = (
"67 38 OFFCURVE",
"58 28 OFFCURVE",
"58 14 CURVE SMOOTH",
"58 5 OFFCURVE",
"63 -3 OFFCURVE",
"73 -6 CURVE",
"35 -130 LINE",
"52 -130 LINE",
"96 -17 LINE SMOOTH",
"100 -7 OFFCURVE",
"105 4 OFFCURVE",
"105 14 CURVE SMOOTH",
"105 28 OFFCURVE",
"96 38 OFFCURVE",
"81 38 CURVE SMOOTH"
);
}
);
width = 163;
}
);
leftKerningGroup = colon;
note = semicolon;
unicode = 003B;
},
{
glyphname = ellipsis;
lastChange = "2020-09-09 07:39:40 +0000";
layers = (
{
layerId = "FB938A0F-794B-4CBD-9B18-13182D479D81";
paths = (
{
closed = 1;
nodes = (
"63 186 OFFCURVE",
"17 139 OFFCURVE",
"17 83 CURVE SMOOTH",
"17 27 OFFCURVE",
"63 -20 OFFCURVE",
"120 -20 CURVE SMOOTH",
"177 -20 OFFCURVE",
"223 27 OFFCURVE",
"223 83 CURVE SMOOTH",
"223 139 OFFCURVE",
"177 186 OFFCURVE",
"120 186 CURVE SMOOTH"
);
},
{
closed = 1;
nodes = (
"303 186 OFFCURVE",
"257 139 OFFCURVE",
"257 83 CURVE SMOOTH",
"257 27 OFFCURVE",
"303 -20 OFFCURVE",
"360 -20 CURVE SMOOTH",
"417 -20 OFFCURVE",
"463 27 OFFCURVE",
"463 83 CURVE SMOOTH",
"463 139 OFFCURVE",
"417 186 OFFCURVE",
"360 186 CURVE SMOOTH"
);
},
{
closed = 1;
nodes = (
"543 186 OFFCURVE",
"497 139 OFFCURVE",
"497 83 CURVE SMOOTH",
"497 27 OFFCURVE",
"543 -20 OFFCURVE",
"600 -20 CURVE SMOOTH",
"657 -20 OFFCURVE",
"703 27 OFFCURVE",
"703 83 CURVE SMOOTH",
"703 139 OFFCURVE",
"657 186 OFFCURVE",
"600 186 CURVE SMOOTH"
);
}
);
width = 720;
},
{
layerId = "D8724204-5FB7-4143-B54F-478BABD83301";
paths = (
{
closed = 1;
nodes = (
"67 38 OFFCURVE",
"58 28 OFFCURVE",
"58 14 CURVE SMOOTH",
"58 2 OFFCURVE",
"67 -8 OFFCURVE",
"81 -8 CURVE SMOOTH",
"96 -8 OFFCURVE",
"105 2 OFFCURVE",
"105 14 CURVE SMOOTH",
"105 28 OFFCURVE",
"96 38 OFFCURVE",
"81 38 CURVE SMOOTH"
);
},
{
closed = 1;
nodes = (
"230 38 OFFCURVE",
"220 28 OFFCURVE",
"220 14 CURVE SMOOTH",
"220 2 OFFCURVE",
"230 -8 OFFCURVE",
"244 -8 CURVE SMOOTH",
"258 -8 OFFCURVE",
"267 2 OFFCURVE",
"267 14 CURVE SMOOTH",
"267 28 OFFCURVE",
"258 38 OFFCURVE",
"244 38 CURVE SMOOTH"
);
},
{
closed = 1;
nodes = (
"392 37 OFFCURVE",
"382 27 OFFCURVE",
"382 14 CURVE SMOOTH",
"382 1 OFFCURVE",
"392 -9 OFFCURVE",
"406 -9 CURVE SMOOTH",
"420 -9 OFFCURVE",
"429 1 OFFCURVE",
"429 14 CURVE SMOOTH",
"429 27 OFFCURVE",
"420 37 OFFCURVE",
"406 37 CURVE SMOOTH"
);
}
);
width = 487;
}
);
leftKerningGroup = period;
note = ellipsis;
rightKerningGroup = period;
unicode = 2026;
},
{
glyphname = exclam;
lastChange = "2020-09-09 07:39:40 +0000";
layers = (
{
layerId = "FB938A0F-794B-4CBD-9B18-13182D479D81";
paths = (
{
closed = 1;
nodes = (
"224 696 LINE",
"16 696 LINE",
"42 270 LINE",
"198 270 LINE"
);
},
{
closed = 1;
nodes = (
"63 186 OFFCURVE",
"17 139 OFFCURVE",
"17 83 CURVE SMOOTH",
"17 27 OFFCURVE",
"63 -20 OFFCURVE",
"120 -20 CURVE SMOOTH",
"177 -20 OFFCURVE",
"223 27 OFFCURVE",
"223 83 CURVE SMOOTH",
"223 139 OFFCURVE",
"177 186 OFFCURVE",
"120 186 CURVE SMOOTH"
);
}
);
width = 240;
},
{
layerId = "D8724204-5FB7-4143-B54F-478BABD83301";
paths = (
{
closed = 1;
nodes = (
"129 681 LINE",
"108 681 LINE",
"108 202 LINE",
"129 202 LINE"
);
},
{
closed = 1;
nodes = (
"105 38 OFFCURVE",
"96 28 OFFCURVE",
"96 14 CURVE SMOOTH",
"96 2 OFFCURVE",
"105 -8 OFFCURVE",
"119 -8 CURVE SMOOTH",
"134 -8 OFFCURVE",
"143 2 OFFCURVE",
"143 14 CURVE SMOOTH",
"143 28 OFFCURVE",
"134 38 OFFCURVE",
"119 38 CURVE SMOOTH"
);
}
);
width = 238;
}
);
leftKerningGroup = exclam;
note = exclam;
rightKerningGroup = exclam;
unicode = 0021;
},
{
glyphname = exclamdown;
lastChange = "2020-09-09 07:39:41 +0000";
layers = (
{
layerId = "FB938A0F-794B-4CBD-9B18-13182D479D81";
paths = (
{
closed = 1;
nodes = (
"63 518 OFFCURVE",
"17 471 OFFCURVE",
"17 415 CURVE SMOOTH",
"17 359 OFFCURVE",
"63 312 OFFCURVE",
"120 312 CURVE SMOOTH",
"177 312 OFFCURVE",
"223 359 OFFCURVE",
"223 415 CURVE SMOOTH",
"223 471 OFFCURVE",
"177 518 OFFCURVE",
"120 518 CURVE SMOOTH"
);
},
{
closed = 1;
nodes = (
"198 228 LINE",
"42 228 LINE",
"16 -215 LINE",
"224 -215 LINE"
);
}
);
width = 240;
},
{
layerId = "D8724204-5FB7-4143-B54F-478BABD83301";
paths = (
{
closed = 1;
nodes = (
"104 453 OFFCURVE",
"96 442 OFFCURVE",
"96 430 CURVE SMOOTH",
"96 417 OFFCURVE",
"104 406 OFFCURVE",
"119 406 CURVE SMOOTH",
"133 406 OFFCURVE",
"143 417 OFFCURVE",
"143 430 CURVE SMOOTH",
"143 442 OFFCURVE",
"133 453 OFFCURVE",
"119 453 CURVE SMOOTH"
);
},
{
closed = 1;
nodes = (
"130 252 LINE",
"109 252 LINE",
"109 -192 LINE",
"130 -192 LINE"
);
}
);
width = 238;
}
);
leftKerningGroup = exclamdown;
note = exclamdown;
rightKerningGroup = exclamdown;
unicode = 00A1;
},
{
glyphname = question;
lastChange = "2020-09-09 07:39:41 +0000";
layers = (
{
layerId = "FB938A0F-794B-4CBD-9B18-13182D479D81";
paths = (
{
closed = 1;
nodes = (
"139 716 OFFCURVE",
"61 670 OFFCURVE",
"5 604 CURVE",
"128 508 LINE",
"161 543 OFFCURVE",
"197 562 OFFCURVE",
"232 562 CURVE SMOOTH",
"265 562 OFFCURVE",
"283 548 OFFCURVE",
"283 523 CURVE SMOOTH",
"283 457 OFFCURVE",
"135 465 OFFCURVE",
"135 289 CURVE SMOOTH",
"135 270 LINE",
"311 270 LINE",
"311 283 LINE SMOOTH",
"311 384 OFFCURVE",
"490 378 OFFCURVE",
"490 542 CURVE SMOOTH",
"490 636 OFFCURVE",
"412 716 OFFCURVE",
"254 716 CURVE SMOOTH"
);
},
{
closed = 1;
nodes = (
"167 186 OFFCURVE",
"121 139 OFFCURVE",
"121 83 CURVE SMOOTH",
"121 27 OFFCURVE",
"167 -20 OFFCURVE",
"224 -20 CURVE SMOOTH",
"281 -20 OFFCURVE",
"327 27 OFFCURVE",
"327 83 CURVE SMOOTH",
"327 139 OFFCURVE",
"281 186 OFFCURVE",
"224 186 CURVE SMOOTH"
);
}
);
width = 495;
},
{
layerId = "D8724204-5FB7-4143-B54F-478BABD83301";
paths = (
{
closed = 1;
nodes = (
"158 691 OFFCURVE",
"106 664 OFFCURVE",
"56 606 CURVE",
"72 594 LINE",
"119 646 OFFCURVE",
"163 671 OFFCURVE",
"232 671 CURVE SMOOTH",
"310 671 OFFCURVE",
"362 624 OFFCURVE",
"362 555 CURVE SMOOTH",
"362 418 OFFCURVE",
"180 440 OFFCURVE",
"180 273 CURVE SMOOTH",
"180 202 LINE",
"201 202 LINE",
"201 271 LINE SMOOTH",
"201 428 OFFCURVE",
"385 408 OFFCURVE",
"385 555 CURVE SMOOTH",
"385 631 OFFCURVE",
"326 691 OFFCURVE",
"232 691 CURVE SMOOTH"
);
},
{
closed = 1;
nodes = (
"178 38 OFFCURVE",
"169 28 OFFCURVE",
"169 14 CURVE SMOOTH",
"169 2 OFFCURVE",
"178 -8 OFFCURVE",
"192 -8 CURVE SMOOTH",
"207 -8 OFFCURVE",
"215 2 OFFCURVE",
"215 14 CURVE SMOOTH",
"215 28 OFFCURVE",
"207 38 OFFCURVE",
"192 38 CURVE SMOOTH"
);
}
);
width = 441;
}
);
leftKerningGroup = question;
note = question;
rightKerningGroup = question;
unicode = 003F;
},
{
glyphname = questiondown;
lastChange = "2020-09-09 07:39:42 +0000";
layers = (
{
layerId = "FB938A0F-794B-4CBD-9B18-13182D479D81";
paths = (
{
closed = 1;
nodes = (
"328 312 OFFCURVE",
"374 359 OFFCURVE",
"374 415 CURVE SMOOTH",
"374 471 OFFCURVE",
"328 518 OFFCURVE",
"271 518 CURVE SMOOTH",
"214 518 OFFCURVE",
"168 471 OFFCURVE",
"168 415 CURVE SMOOTH",
"168 359 OFFCURVE",
"214 312 OFFCURVE",
"271 312 CURVE SMOOTH"
);
},
{
closed = 1;
nodes = (
"356 -227 OFFCURVE",
"434 -181 OFFCURVE",
"490 -115 CURVE",
"367 -19 LINE",
"334 -54 OFFCURVE",
"298 -73 OFFCURVE",
"263 -73 CURVE SMOOTH",
"230 -73 OFFCURVE",
"212 -59 OFFCURVE",
"212 -34 CURVE SMOOTH",
"212 32 OFFCURVE",
"360 24 OFFCURVE",
"360 200 CURVE SMOOTH",
"360 229 LINE",
"184 229 LINE",
"184 206 LINE SMOOTH",
"184 105 OFFCURVE",
"5 111 OFFCURVE",
"5 -53 CURVE SMOOTH",
"5 -147 OFFCURVE",
"83 -227 OFFCURVE",
"241 -227 CURVE SMOOTH"
);
}
);
width = 495;
},
{
layerId = "D8724204-5FB7-4143-B54F-478BABD83301";
paths = (
{
closed = 1;
nodes = (
"263 406 OFFCURVE",
"272 417 OFFCURVE",
"272 430 CURVE SMOOTH",
"272 442 OFFCURVE",
"263 453 OFFCURVE",
"249 453 CURVE SMOOTH",
"234 453 OFFCURVE",
"225 442 OFFCURVE",
"225 430 CURVE SMOOTH",
"225 417 OFFCURVE",
"234 406 OFFCURVE",
"249 406 CURVE SMOOTH"
);
},
{
closed = 1;
nodes = (
"282 -197 OFFCURVE",
"335 -169 OFFCURVE",
"385 -112 CURVE",
"369 -99 LINE",
"322 -152 OFFCURVE",
"277 -176 OFFCURVE",
"209 -176 CURVE SMOOTH",
"131 -176 OFFCURVE",
"79 -129 OFFCURVE",
"79 -69 CURVE SMOOTH",
"79 67 OFFCURVE",
"261 50 OFFCURVE",
"261 204 CURVE SMOOTH",
"261 252 LINE",
"239 252 LINE",
"239 206 LINE SMOOTH",
"239 63 OFFCURVE",
"56 78 OFFCURVE",
"56 -69 CURVE SMOOTH",
"56 -136 OFFCURVE",
"115 -197 OFFCURVE",
"209 -197 CURVE SMOOTH"
);
}
);
width = 441;
}
);
leftKerningGroup = questiondown;
note = questiondown;
rightKerningGroup = questiondown;
unicode = 00BF;
},
{
glyphname = periodcentered;
lastChange = "2020-09-09 07:39:42 +0000";
layers = (
{
layerId = "FB938A0F-794B-4CBD-9B18-13182D479D81";
paths = (
{
closed = 1;
nodes = (
"63 409 OFFCURVE",
"17 362 OFFCURVE",
"17 306 CURVE SMOOTH",
"17 250 OFFCURVE",
"63 203 OFFCURVE",
"120 203 CURVE SMOOTH",
"177 203 OFFCURVE",
"223 250 OFFCURVE",
"223 306 CURVE SMOOTH",
"223 362 OFFCURVE",
"177 409 OFFCURVE",
"120 409 CURVE SMOOTH"
);
}
);
width = 240;
},
{
layerId = "D8724204-5FB7-4143-B54F-478BABD83301";
paths = (
{
closed = 1;
nodes = (
"67 350 OFFCURVE",
"58 339 OFFCURVE",
"58 326 CURVE SMOOTH",
"58 314 OFFCURVE",
"67 303 OFFCURVE",
"81 303 CURVE SMOOTH",
"96 303 OFFCURVE",
"105 314 OFFCURVE",
"105 326 CURVE SMOOTH",
"105 339 OFFCURVE",
"96 350 OFFCURVE",
"81 350 CURVE SMOOTH"
);
}
);
width = 163;
}
);
leftKerningGroup = periodcentered;
note = periodcentered;
rightKerningGroup = periodcentered;
unicode = 00B7;
},
{
glyphname = bullet;
lastChange = "2020-09-09 07:39:43 +0000";
layers = (
{
layerId = "FB938A0F-794B-4CBD-9B18-13182D479D81";
paths = (
{
closed = 1;
nodes = (
"92 495 OFFCURVE",
"26 430 OFFCURVE",
"26 342 CURVE SMOOTH",
"26 255 OFFCURVE",
"92 188 OFFCURVE",
"180 188 CURVE SMOOTH",
"268 188 OFFCURVE",
"334 253 OFFCURVE",
"334 341 CURVE SMOOTH",
"334 429 OFFCURVE",
"268 495 OFFCURVE",
"180 495 CURVE SMOOTH"
);
}
);
width = 360;
},
{
layerId = "D8724204-5FB7-4143-B54F-478BABD83301";
paths = (
{
closed = 1;
nodes = (
"104 383 OFFCURVE",
"91 369 OFFCURVE",
"91 350 CURVE SMOOTH",
"91 332 OFFCURVE",
"104 318 OFFCURVE",
"123 318 CURVE SMOOTH",
"144 318 OFFCURVE",
"156 332 OFFCURVE",
"156 350 CURVE SMOOTH",
"156 369 OFFCURVE",
"144 383 OFFCURVE",
"123 383 CURVE SMOOTH"
);
}
);
width = 247;
}
);
leftKerningGroup = bullet;
note = bullet;
rightKerningGroup = bullet;
unicode = 2022;
},
{
glyphname = asterisk;
lastChange = "2020-09-09 07:39:43 +0000";
layers = (
{
hints = (
{
horizontal = 1;
origin = "{0, 4}";
target = down;
type = TopGhost;
},
{
origin = "{0, 7}";
target = "{0, 0}";
type = Stem;
}
);
layerId = "FB938A0F-794B-4CBD-9B18-13182D479D81";
paths = (
{
closed = 1;
nodes = (
"455 520 LINE",
"404 673 LINE",
"286 608 LINE",
"310 744 LINE",
"146 744 LINE",
"170 608 LINE",
"51 672 LINE",
"0 519 LINE",
"135 502 LINE",
"37 408 LINE",
"170 311 LINE",
"228 435 LINE",
"287 312 LINE",
"420 409 LINE",
"321 502 LINE"
);
}
);
width = 455;
},
{
hints = (
{
horizontal = 1;
origin = "{0, 5}";
target = down;
type = TopGhost;
},
{
horizontal = 1;
origin = "{0, 4}";
target = down;
type = TopGhost;
}
);
layerId = "D8724204-5FB7-4143-B54F-478BABD83301";
paths = (
{
closed = 1;
nodes = (
"382 603 LINE",
"376 623 LINE",
"226 572 LINE",
"227 732 LINE",
"205 732 LINE",
"207 572 LINE",
"56 623 LINE",
"49 603 LINE",
"202 556 LINE",
"106 429 LINE",
"124 416 LINE",
"216 546 LINE",
"307 416 LINE",
"325 429 LINE",
"230 557 LINE"
);
}
);
width = 432;
}
);
leftKerningGroup = asterisk;
note = asterisk;
rightKerningGroup = asterisk;
unicode = 002A;
},
{
glyphname = numbersign;
lastChange = "2020-09-09 07:39:43 +0000";
layers = (
{
hints = (
{
horizontal = 1;
origin = "{0, 17}";
target = up;
type = BottomGhost;
},
{
horizontal = 1;
origin = "{0, 15}";
target = "{0, 14}";
type = Stem;
},
{
horizontal = 1;
origin = "{0, 11}";
target = "{0, 10}";
type = Stem;
},
{
origin = "{0, 15}";
target = "{0, 0}";
type = Stem;
}
);
layerId = "FB938A0F-794B-4CBD-9B18-13182D479D81";
paths = (
{
closed = 1;
nodes = (
"565 436 LINE",
"565 562 LINE",
"516 562 LINE",
"532 680 LINE",
"369 680 LINE",
"353 562 LINE",
"285 562 LINE",
"301 680 LINE",
"138 680 LINE",
"122 562 LINE",
"52 562 LINE",
"52 436 LINE",
"106 436 LINE",
"82 257 LINE",
"15 257 LINE",
"15 131 LINE",
"65 131 LINE",
"48 0 LINE",
"211 0 LINE",
"228 131 LINE",
"296 131 LINE",
"279 0 LINE",
"442 0 LINE",
"459 131 LINE",
"528 131 LINE",
"528 257 LINE",
"476 257 LINE",
"500 436 LINE"
);
},
{
closed = 1;
nodes = (
"245 257 LINE",
"269 436 LINE",
"337 436 LINE",
"313 257 LINE"
);
}
);
width = 580;
},
{
hints = (
{
horizontal = 1;
origin = "{0, 17}";
target = up;
type = BottomGhost;
},
{
horizontal = 1;
origin = "{0, 14}";
target = "{0, 15}";
type = Stem;
},
{
horizontal = 1;
origin = "{0, 10}";
target = "{0, 11}";
type = Stem;
}
);
layerId = "D8724204-5FB7-4143-B54F-478BABD83301";
paths = (
{
closed = 1;
nodes = (
"473 460 LINE",
"473 479 LINE",
"393 479 LINE",
"417 662 LINE",
"395 662 LINE",
"371 479 LINE",
"157 479 LINE",
"181 662 LINE",
"159 662 LINE",
"135 479 LINE",
"52 479 LINE",
"52 460 LINE",
"132 460 LINE",
"100 220 LINE",
"15 220 LINE",
"15 200 LINE",
"98 200 LINE",
"71 0 LINE",
"93 0 LINE",
"120 200 LINE",
"334 200 LINE",
"308 0 LINE",
"330 0 LINE",
"356 200 LINE",
"436 200 LINE",
"436 220 LINE",
"359 220 LINE",
"390 460 LINE"
);
},
{
closed = 1;
nodes = (
"122 220 LINE",
"154 460 LINE",
"368 460 LINE",
"337 220 LINE"
);
}
);
width = 488;
}
);
leftKerningGroup = numbersign;
note = numbersign;
rightKerningGroup = numbersign;
unicode = 0023;
},
{
glyphname = slash;
lastChange = "2020-09-09 07:39:43 +0000";
layers = (
{
hints = (
{
origin = "{0, 1}";
target = "{0, 3}";
type = Stem;
}
);
layerId = "FB938A0F-794B-4CBD-9B18-13182D479D81";
paths = (
{
closed = 1;
nodes = (
"292 822 LINE",
"54 -77 LINE",
"229 -117 LINE",
"466 782 LINE"
);
}
);
width = 520;
},
{
layerId = "D8724204-5FB7-4143-B54F-478BABD83301";
paths = (
{
closed = 1;
nodes = (
"366 798 LINE",
"134 -89 LINE",
"154 -95 LINE",
"386 792 LINE"
);
}
);
width = 520;
}
);
leftKerningGroup = slash;
note = slash;
rightKerningGroup = slash;
unicode = 002F;
},
{
glyphname = backslash;
lastChange = "2020-09-09 07:39:43 +0000";
layers = (
{
hints = (
{
origin = "{0, 1}";
target = "{0, 3}";
type = Stem;
}
);
layerId = "FB938A0F-794B-4CBD-9B18-13182D479D81";
paths = (
{
closed = 1;
nodes = (
"228 822 LINE",
"54 782 LINE",
"291 -117 LINE",
"466 -77 LINE"
);
}
);
width = 520;
},
{
layerId = "D8724204-5FB7-4143-B54F-478BABD83301";
paths = (
{
closed = 1;
nodes = (
"154 798 LINE",
"134 792 LINE",
"366 -95 LINE",
"386 -89 LINE"
);
}
);
width = 520;
}
);
leftKerningGroup = backslash;
note = backslash;
rightKerningGroup = backslash;
unicode = 005C;
},
{
glyphname = uni2016;
lastChange = "2020-09-09 07:39:43 +0000";
layers = (
{
hints = (
{
origin = "{0, 2}";
target = "{0, 3}";
type = Stem;
},
{
origin = "{1, 2}";
target = "{1, 3}";
type = Stem;
}
);
layerId = "FB938A0F-794B-4CBD-9B18-13182D479D81";
paths = (
{
closed = 1;
nodes = (
"273 812 LINE",
"87 812 LINE",
"87 -107 LINE",
"273 -107 LINE"
);
},
{
closed = 1;
nodes = (
"518 812 LINE",
"332 812 LINE",
"332 -107 LINE",
"518 -107 LINE"
);
}
);
width = 605;
},
{
hints = (
{
origin = "{0, 2}";
target = "{0, 3}";
type = Stem;
},
{
origin = "{1, 2}";
target = "{1, 3}";
type = Stem;
}
);
layerId = "D8724204-5FB7-4143-B54F-478BABD83301";
paths = (
{
closed = 1;
nodes = (
"217 801 LINE",
"195 801 LINE",
"195 -98 LINE",
"217 -98 LINE"
);
},
{
closed = 1;
nodes = (
"363 801 LINE",
"341 801 LINE",
"341 -98 LINE",
"363 -98 LINE"
);
}
);
width = 559;
}
);
leftKerningGroup = uni2016;
note = uni2016;
rightKerningGroup = uni2016;
unicode = 2016;
},
{
glyphname = uni203F;
lastChange = "2020-09-09 07:39:43 +0000";
layers = (
{
layerId = "FB938A0F-794B-4CBD-9B18-13182D479D81";
paths = (
{
closed = 1;
nodes = (
"633 -27 LINE",
"565 -56 OFFCURVE",
"466 -89 OFFCURVE",
"345 -89 CURVE SMOOTH",
"223 -89 OFFCURVE",
"124 -56 OFFCURVE",
"56 -27 CURVE",
"0 -109 LINE",
"82 -171 OFFCURVE",
"185 -232 OFFCURVE",
"345 -232 CURVE SMOOTH",
"505 -232 OFFCURVE",
"608 -171 OFFCURVE",
"690 -109 CURVE"
);
}
);
width = 690;
},
{
layerId = "D8724204-5FB7-4143-B54F-478BABD83301";
paths = (
{
closed = 1;
nodes = (
"637 -53 LINE",
"575 -100 OFFCURVE",
"477 -176 OFFCURVE",
"323 -176 CURVE SMOOTH",
"169 -176 OFFCURVE",
"71 -100 OFFCURVE",
"9 -53 CURVE",
"0 -65 LINE",
"67 -120 OFFCURVE",
"165 -198 OFFCURVE",
"323 -198 CURVE SMOOTH",
"481 -198 OFFCURVE",
"579 -120 OFFCURVE",
"646 -65 CURVE"
);
}
);
width = 646;
}
);
leftKerningGroup = uni203F;
note = uni203F;
rightKerningGroup = uni203F;
unicode = 203F;
},
{
glyphname = uni204A;
lastChange = "2020-09-09 07:39:43 +0000";
layers = (
{
hints = (
{
horizontal = 1;
origin = "{0, 5}";
target = up;
type = BottomGhost;
},
{
horizontal = 1;
origin = "{0, 1}";
target = "{0, 2}";
type = Stem;
},
{
origin = "{0, 2}";
target = "{0, 6}";
type = Stem;
}
);
layerId = "FB938A0F-794B-4CBD-9B18-13182D479D81";
paths = (
{
closed = 1;
nodes = (
"507 534 LINE",
"30 534 LINE",
"30 383 LINE",
"299 383 LINE",
"81 -156 LINE",
"260 -216 LINE",
"507 399 LINE"
);
}
);
width = 557;
},
{
hints = (
{
horizontal = 1;
origin = "{0, 5}";
target = up;
type = BottomGhost;
},
{
horizontal = 1;
origin = "{0, 1}";
target = "{0, 2}";
type = Stem;
},
{
origin = "{0, 3}";
target = "{0, 6}";
type = Stem;
}
);
layerId = "D8724204-5FB7-4143-B54F-478BABD83301";
paths = (
{
closed = 1;
nodes = (
"434 519 LINE",
"63 519 LINE",
"63 498 LINE",
"409 498 LINE",
"140 -188 LINE",
"162 -195 LINE",
"434 500 LINE"
);
}
);
width = 517;
}
);
leftKerningGroup = seven.osf;
note = uni204A;
rightKerningGroup = seven.osf;
unicode = 204A;
},
{
glyphname = exclamdown.case;
lastChange = "2020-09-09 07:39:44 +0000";
layers = (
{
layerId = "FB938A0F-794B-4CBD-9B18-13182D479D81";
paths = (
{
closed = 1;
nodes = (
"177 510 OFFCURVE",
"223 557 OFFCURVE",
"223 613 CURVE SMOOTH",
"223 669 OFFCURVE",
"177 716 OFFCURVE",
"120 716 CURVE SMOOTH",
"63 716 OFFCURVE",
"17 669 OFFCURVE",
"17 613 CURVE SMOOTH",
"17 557 OFFCURVE",
"63 510 OFFCURVE",
"120 510 CURVE SMOOTH"
);
},
{
closed = 1;
nodes = (
"16 0 LINE",
"224 0 LINE",
"198 426 LINE",
"42 426 LINE"
);
}
);
width = 240;
},
{
layerId = "D8724204-5FB7-4143-B54F-478BABD83301";
paths = (
{
closed = 1;
nodes = (
"133 644 OFFCURVE",
"143 654 OFFCURVE",
"143 667 CURVE SMOOTH",
"143 680 OFFCURVE",
"133 690 OFFCURVE",
"119 690 CURVE SMOOTH",
"104 690 OFFCURVE",
"96 680 OFFCURVE",
"96 667 CURVE SMOOTH",
"96 654 OFFCURVE",
"104 644 OFFCURVE",
"119 644 CURVE SMOOTH"
);
},
{
closed = 1;
nodes = (
"109 0 LINE",
"130 0 LINE",
"130 479 LINE",
"109 479 LINE"
);
}
);
width = 238;
}
);
leftKerningGroup = exclamdown.case;
note = exclamdown.case;
rightKerningGroup = exclamdown.case;
},
{
glyphname = questiondown.case;
lastChange = "2020-09-09 07:39:44 +0000";
layers = (
{
layerId = "FB938A0F-794B-4CBD-9B18-13182D479D81";
paths = (
{
closed = 1;
nodes = (
"328 510 OFFCURVE",
"374 557 OFFCURVE",
"374 613 CURVE SMOOTH",
"374 669 OFFCURVE",
"328 716 OFFCURVE",
"271 716 CURVE SMOOTH",
"214 716 OFFCURVE",
"168 669 OFFCURVE",
"168 613 CURVE SMOOTH",
"168 557 OFFCURVE",
"214 510 OFFCURVE",
"271 510 CURVE SMOOTH"
);
},
{
closed = 1;
nodes = (
"356 -20 OFFCURVE",
"434 26 OFFCURVE",
"490 92 CURVE",
"367 188 LINE",
"334 153 OFFCURVE",
"298 134 OFFCURVE",
"263 134 CURVE SMOOTH",
"230 134 OFFCURVE",
"212 148 OFFCURVE",
"212 173 CURVE SMOOTH",
"212 239 OFFCURVE",
"360 231 OFFCURVE",
"360 407 CURVE SMOOTH",
"360 426 LINE",
"184 426 LINE",
"184 413 LINE SMOOTH",
"184 312 OFFCURVE",
"5 318 OFFCURVE",
"5 154 CURVE SMOOTH",
"5 60 OFFCURVE",
"83 -20 OFFCURVE",
"241 -20 CURVE SMOOTH"
);
}
);
width = 495;
},
{
layerId = "D8724204-5FB7-4143-B54F-478BABD83301";
paths = (
{
closed = 1;
nodes = (
"263 644 OFFCURVE",
"272 654 OFFCURVE",
"272 667 CURVE SMOOTH",
"272 680 OFFCURVE",
"263 690 OFFCURVE",
"249 690 CURVE SMOOTH",
"234 690 OFFCURVE",
"225 680 OFFCURVE",
"225 667 CURVE SMOOTH",
"225 654 OFFCURVE",
"234 644 OFFCURVE",
"249 644 CURVE SMOOTH"
);
},
{
closed = 1;
nodes = (
"282 -10 OFFCURVE",
"335 18 OFFCURVE",
"385 75 CURVE",
"369 88 LINE",
"322 36 OFFCURVE",
"277 11 OFFCURVE",
"209 11 CURVE SMOOTH",
"131 11 OFFCURVE",
"79 58 OFFCURVE",
"79 127 CURVE SMOOTH",
"79 264 OFFCURVE",
"261 242 OFFCURVE",
"261 409 CURVE SMOOTH",
"261 479 LINE",
"240 479 LINE",
"240 411 LINE SMOOTH",
"240 254 OFFCURVE",
"56 273 OFFCURVE",
"56 127 CURVE SMOOTH",
"56 50 OFFCURVE",
"115 -10 OFFCURVE",
"209 -10 CURVE SMOOTH"
);
}
);
width = 441;
}
);
leftKerningGroup = questiondown.case;
note = questiondown.case;
rightKerningGroup = questiondown.case;
},
{
glyphname = uni208D;
lastChange = "2020-09-09 07:39:44 +0000";
layers = (
{
layerId = "FB938A0F-794B-4CBD-9B18-13182D479D81";
paths = (
{
closed = 1;
nodes = (
"219 321 LINE",
"156 234 OFFCURVE",
"95 137 OFFCURVE",
"95 -13 CURVE SMOOTH",
"95 -163 OFFCURVE",
"156 -260 OFFCURVE",
"219 -347 CURVE",
"303 -291 LINE",
"254 -214 OFFCURVE",
"229 -126 OFFCURVE",
"229 -13 CURVE SMOOTH",
"229 100 OFFCURVE",
"254 188 OFFCURVE",
"303 265 CURVE"
);
}
);
width = 398;
},
{
layerId = "D8724204-5FB7-4143-B54F-478BABD83301";
paths = (
{
closed = 1;
nodes = (
"248 293 LINE",
"191 212 OFFCURVE",
"138 135 OFFCURVE",
"138 -13 CURVE SMOOTH",
"138 -161 OFFCURVE",
"191 -238 OFFCURVE",
"248 -319 CURVE",
"264 -309 LINE",
"210 -229 OFFCURVE",
"162 -155 OFFCURVE",
"162 -13 CURVE SMOOTH",
"162 129 OFFCURVE",
"210 203 OFFCURVE",
"264 283 CURVE"
);
}
);
width = 401;
}
);
leftKerningGroup = uni2080;
note = uni208D;
rightKerningGroup = uni2080;
unicode = 208D;
},
{
glyphname = uni208E;
lastChange = "2020-09-09 07:39:45 +0000";
layers = (
{
layerId = "FB938A0F-794B-4CBD-9B18-13182D479D81";
paths = (
{
closed = 1;
nodes = (
"95 265 LINE",
"144 188 OFFCURVE",
"169 100 OFFCURVE",
"169 -13 CURVE SMOOTH",
"169 -126 OFFCURVE",
"144 -214 OFFCURVE",
"95 -291 CURVE",
"179 -347 LINE",
"242 -260 OFFCURVE",
"303 -163 OFFCURVE",
"303 -13 CURVE SMOOTH",
"303 137 OFFCURVE",
"242 234 OFFCURVE",
"179 321 CURVE"
);
}
);
width = 398;
},
{
layerId = "D8724204-5FB7-4143-B54F-478BABD83301";
paths = (
{
closed = 1;
nodes = (
"138 283 LINE",
"191 203 OFFCURVE",
"239 129 OFFCURVE",
"239 -13 CURVE SMOOTH",
"239 -155 OFFCURVE",
"191 -229 OFFCURVE",
"138 -309 CURVE",
"153 -319 LINE",
"211 -238 OFFCURVE",
"264 -161 OFFCURVE",
"264 -13 CURVE SMOOTH",
"264 135 OFFCURVE",
"211 212 OFFCURVE",
"153 293 CURVE"
);
}
);
width = 401;
}
);
leftKerningGroup = uni2080;
note = uni208E;
rightKerningGroup = uni2080;
unicode = 208E;
},
{
glyphname = parenleft;
lastChange = "2020-09-09 07:39:45 +0000";
layers = (
{
layerId = "FB938A0F-794B-4CBD-9B18-13182D479D81";
paths = (
{
closed = 1;
nodes = (
"203 867 LINE",
"101 729 OFFCURVE",
"5 590 OFFCURVE",
"5 350 CURVE SMOOTH",
"5 110 OFFCURVE",
"101 -29 OFFCURVE",
"203 -167 CURVE",
"330 -82 LINE",
"236 50 OFFCURVE",
"203 183 OFFCURVE",
"203 350 CURVE SMOOTH",
"203 517 OFFCURVE",
"236 650 OFFCURVE",
"330 782 CURVE"
);
}
);
width = 325;
},
{
layerId = "D8724204-5FB7-4143-B54F-478BABD83301";
paths = (
{
closed = 1;
nodes = (
"241 829 LINE",
"147 695 OFFCURVE",
"69 578 OFFCURVE",
"69 350 CURVE SMOOTH",
"69 122 OFFCURVE",
"147 5 OFFCURVE",
"241 -129 CURVE",
"256 -120 LINE",
"167 11 OFFCURVE",
"91 128 OFFCURVE",
"91 350 CURVE SMOOTH",
"91 572 OFFCURVE",
"167 689 OFFCURVE",
"256 820 CURVE"
);
}
);
width = 325;
}
);
leftKerningGroup = parenleft;
note = parenleft;
rightKerningGroup = parenleft;
unicode = 0028;
},
{
glyphname = parenright;
lastChange = "2020-09-09 07:39:46 +0000";
layers = (
{
layerId = "FB938A0F-794B-4CBD-9B18-13182D479D81";
paths = (
{
closed = 1;
nodes = (
"-5 782 LINE",
"89 650 OFFCURVE",
"122 517 OFFCURVE",
"122 350 CURVE SMOOTH",
"122 183 OFFCURVE",
"89 50 OFFCURVE",
"-5 -82 CURVE",
"122 -167 LINE",
"224 -29 OFFCURVE",
"320 110 OFFCURVE",
"320 350 CURVE SMOOTH",
"320 590 OFFCURVE",
"224 729 OFFCURVE",
"122 867 CURVE"
);
}
);
width = 325;
},
{
layerId = "D8724204-5FB7-4143-B54F-478BABD83301";
paths = (
{
closed = 1;
nodes = (
"69 820 LINE",
"158 689 OFFCURVE",
"234 572 OFFCURVE",
"234 350 CURVE SMOOTH",
"234 128 OFFCURVE",
"158 11 OFFCURVE",
"69 -120 CURVE",
"84 -129 LINE",
"178 5 OFFCURVE",
"256 122 OFFCURVE",
"256 350 CURVE SMOOTH",
"256 578 OFFCURVE",
"178 695 OFFCURVE",
"84 829 CURVE"
);
}
);
width = 325;
}
);
leftKerningGroup = parenright;
note = parenright;
unicode = 0029;
},
{
glyphname = braceleft;
lastChange = "2020-09-09 07:39:46 +0000";
layers = (
{
layerId = "FB938A0F-794B-4CBD-9B18-13182D479D81";
paths = (
{
closed = 1;
nodes = (
"310 842 LINE",
"103 842 OFFCURVE",
"62 779 OFFCURVE",
"62 668 CURVE SMOOTH",
"62 515 LINE SMOOTH",
"62 455 OFFCURVE",
"51 431 OFFCURVE",
"0 431 CURVE",
"0 269 LINE",
"51 269 OFFCURVE",
"62 245 OFFCURVE",
"62 185 CURVE SMOOTH",
"62 32 LINE SMOOTH",
"62 -78 OFFCURVE",
"103 -142 OFFCURVE",
"310 -142 CURVE",
"310 -8 LINE",
"256 -8 OFFCURVE",
"247 7 OFFCURVE",
"247 46 CURVE SMOOTH",
"247 200 LINE SMOOTH",
"247 297 OFFCURVE",
"200 336 OFFCURVE",
"125 349 CURVE",
"202 366 OFFCURVE",
"246 401 OFFCURVE",
"246 500 CURVE SMOOTH",
"246 654 LINE SMOOTH",
"246 693 OFFCURVE",
"255 708 OFFCURVE",
"310 708 CURVE"
);
}
);
width = 325;
},
{
layerId = "D8724204-5FB7-4143-B54F-478BABD83301";
paths = (
{
closed = 1;
nodes = (
"244 818 LINE",
"183 818 OFFCURVE",
"144 788 OFFCURVE",
"144 715 CURVE SMOOTH",
"144 432 LINE SMOOTH",
"144 379 OFFCURVE",
"111 360 OFFCURVE",
"64 360 CURVE",
"64 338 LINE",
"111 338 OFFCURVE",
"144 319 OFFCURVE",
"144 266 CURVE SMOOTH",
"144 -17 LINE SMOOTH",
"144 -90 OFFCURVE",
"183 -120 OFFCURVE",
"244 -120 CURVE",
"244 -102 LINE",
"188 -102 OFFCURVE",
"164 -73 OFFCURVE",
"164 -14 CURVE SMOOTH",
"164 257 LINE SMOOTH",
"164 319 OFFCURVE",
"139 342 OFFCURVE",
"88 349 CURVE",
"139 356 OFFCURVE",
"164 379 OFFCURVE",
"164 441 CURVE SMOOTH",
"164 712 LINE SMOOTH",
"164 771 OFFCURVE",
"188 800 OFFCURVE",
"244 800 CURVE"
);
}
);
width = 328;
}
);
leftKerningGroup = braceleft;
note = braceleft;
rightKerningGroup = braceleft;
unicode = 007B;
},
{
glyphname = braceright;
lastChange = "2020-09-09 07:39:47 +0000";
layers = (
{
layerId = "FB938A0F-794B-4CBD-9B18-13182D479D81";
paths = (
{
closed = 1;
nodes = (
"15 708 LINE",
"70 708 OFFCURVE",
"79 693 OFFCURVE",
"79 654 CURVE SMOOTH",
"79 500 LINE SMOOTH",
"79 401 OFFCURVE",
"123 366 OFFCURVE",
"200 349 CURVE",
"125 336 OFFCURVE",
"78 297 OFFCURVE",
"78 200 CURVE SMOOTH",
"78 46 LINE SMOOTH",
"78 7 OFFCURVE",
"69 -8 OFFCURVE",
"15 -8 CURVE",
"15 -142 LINE",
"222 -142 OFFCURVE",
"263 -78 OFFCURVE",
"263 32 CURVE SMOOTH",
"263 185 LINE SMOOTH",
"263 245 OFFCURVE",
"274 269 OFFCURVE",
"325 269 CURVE",
"325 431 LINE",
"274 431 OFFCURVE",
"263 455 OFFCURVE",
"263 515 CURVE SMOOTH",
"263 668 LINE SMOOTH",
"263 779 OFFCURVE",
"222 842 OFFCURVE",
"15 842 CURVE"
);
}
);
width = 325;
},
{
layerId = "D8724204-5FB7-4143-B54F-478BABD83301";
paths = (
{
closed = 1;
nodes = (
"84 800 LINE",
"140 800 OFFCURVE",
"164 771 OFFCURVE",
"164 712 CURVE SMOOTH",
"164 441 LINE SMOOTH",
"164 379 OFFCURVE",
"189 356 OFFCURVE",
"240 349 CURVE",
"189 342 OFFCURVE",
"164 319 OFFCURVE",
"164 257 CURVE SMOOTH",
"164 -14 LINE SMOOTH",
"164 -73 OFFCURVE",
"140 -102 OFFCURVE",
"84 -102 CURVE",
"84 -120 LINE",
"145 -120 OFFCURVE",
"184 -90 OFFCURVE",
"184 -17 CURVE SMOOTH",
"184 266 LINE SMOOTH",
"184 319 OFFCURVE",
"217 338 OFFCURVE",
"264 338 CURVE",
"264 360 LINE",
"217 360 OFFCURVE",
"184 379 OFFCURVE",
"184 432 CURVE SMOOTH",
"184 715 LINE SMOOTH",
"184 788 OFFCURVE",
"145 818 OFFCURVE",
"84 818 CURVE"
);
}
);
width = 328;
}
);
leftKerningGroup = braceright;
note = braceright;
unicode = 007D;
},
{
glyphname = bracketleft;
lastChange = "2020-09-09 07:39:47 +0000";
layers = (
{
hints = (
{
horizontal = 1;
origin = "{0, 2}";
target = "{0, 5}";
type = Stem;
},
{
horizontal = 1;
origin = "{0, 6}";
target = "{0, 1}";
type = Stem;
},
{
origin = "{0, 2}";
target = "{0, 3}";
type = Stem;
},
{
origin = "{0, 2}";
target = "{0, 5}";
type = Stem;
}
);
layerId = "FB938A0F-794B-4CBD-9B18-13182D479D81";
paths = (
{
closed = 1;
nodes = (
"315 827 LINE",
"15 827 LINE",
"15 -127 LINE",
"315 -127 LINE",
"315 15 LINE",
"203 15 LINE",
"203 684 LINE",
"315 684 LINE"
);
}
);
width = 325;
},
{
hints = (
{
horizontal = 1;
origin = "{0, 5}";
target = "{0, 2}";
type = Stem;
},
{
horizontal = 1;
origin = "{0, 1}";
target = "{0, 6}";
type = Stem;
},
{
origin = "{0, 2}";
target = "{0, 5}";
type = Stem;
}
);
layerId = "D8724204-5FB7-4143-B54F-478BABD83301";
paths = (
{
closed = 1;
nodes = (
"229 796 LINE",
"103 796 LINE",
"103 -106 LINE",
"229 -106 LINE",
"229 -88 LINE",
"123 -88 LINE",
"123 778 LINE",
"229 778 LINE"
);
}
);
width = 312;
}
);
leftKerningGroup = bracketleft;
note = bracketleft;
rightKerningGroup = bracketleft;
unicode = 005B;
},
{
glyphname = bracketright;
lastChange = "2020-09-09 07:39:47 +0000";
layers = (
{
hints = (
{
horizontal = 1;
origin = "{0, 6}";
target = "{0, 5}";
type = Stem;
},
{
horizontal = 1;
origin = "{0, 2}";
target = "{0, 1}";
type = Stem;
},
{
origin = "{0, 4}";
target = "{0, 7}";
type = Stem;
},
{
origin = "{0, 6}";
target = "{0, 7}";
type = Stem;
}
);
layerId = "FB938A0F-794B-4CBD-9B18-13182D479D81";
paths = (
{
closed = 1;
nodes = (
"310 827 LINE",
"10 827 LINE",
"10 685 LINE",
"122 685 LINE",
"122 16 LINE",
"10 16 LINE",
"10 -127 LINE",
"310 -127 LINE"
);
}
);
width = 325;
},
{
hints = (
{
horizontal = 1;
origin = "{0, 5}";
target = "{0, 6}";
type = Stem;
},
{
horizontal = 1;
origin = "{0, 1}";
target = "{0, 2}";
type = Stem;
},
{
origin = "{0, 4}";
target = "{0, 7}";
type = Stem;
}
);
layerId = "D8724204-5FB7-4143-B54F-478BABD83301";
paths = (
{
closed = 1;
nodes = (
"209 796 LINE",
"83 796 LINE",
"83 778 LINE",
"189 778 LINE",
"189 -88 LINE",
"83 -88 LINE",
"83 -106 LINE",
"209 -106 LINE"
);
}
);
width = 312;
}
);
leftKerningGroup = bracketright;
note = bracketright;
unicode = 005D;
},
{
glyphname = uni207D;
lastChange = "2020-09-09 07:39:47 +0000";
layers = (
{
layerId = "FB938A0F-794B-4CBD-9B18-13182D479D81";
paths = (
{
closed = 1;
nodes = (
"219 805 LINE",
"156 718 OFFCURVE",
"95 621 OFFCURVE",
"95 471 CURVE SMOOTH",
"95 321 OFFCURVE",
"156 224 OFFCURVE",
"219 137 CURVE",
"303 193 LINE",
"254 270 OFFCURVE",
"229 358 OFFCURVE",
"229 471 CURVE SMOOTH",
"229 584 OFFCURVE",
"254 672 OFFCURVE",
"303 749 CURVE"
);
}
);
width = 398;
},
{
layerId = "D8724204-5FB7-4143-B54F-478BABD83301";
paths = (
{
closed = 1;
nodes = (
"248 777 LINE",
"191 696 OFFCURVE",
"138 619 OFFCURVE",
"138 471 CURVE SMOOTH",
"138 323 OFFCURVE",
"191 246 OFFCURVE",
"248 165 CURVE",
"264 175 LINE",
"210 255 OFFCURVE",
"162 329 OFFCURVE",
"162 471 CURVE SMOOTH",
"162 613 OFFCURVE",
"210 687 OFFCURVE",
"264 767 CURVE"
);
}
);
width = 401;
}
);
leftKerningGroup = zero.numr;
note = uni207D;
rightKerningGroup = zero.numr;
unicode = 207D;
},
{
glyphname = uni207E;
lastChange = "2020-09-09 07:39:48 +0000";
layers = (
{
layerId = "FB938A0F-794B-4CBD-9B18-13182D479D81";
paths = (
{
closed = 1;
nodes = (
"95 749 LINE",
"144 672 OFFCURVE",
"169 584 OFFCURVE",
"169 471 CURVE SMOOTH",
"169 358 OFFCURVE",
"144 270 OFFCURVE",
"95 193 CURVE",
"179 137 LINE",
"242 224 OFFCURVE",
"303 321 OFFCURVE",
"303 471 CURVE SMOOTH",
"303 621 OFFCURVE",
"242 718 OFFCURVE",
"179 805 CURVE"
);
}
);
width = 398;
},
{
layerId = "D8724204-5FB7-4143-B54F-478BABD83301";
paths = (
{
closed = 1;
nodes = (
"138 767 LINE",
"191 687 OFFCURVE",
"239 613 OFFCURVE",
"239 471 CURVE SMOOTH",
"239 329 OFFCURVE",
"191 255 OFFCURVE",
"138 175 CURVE",
"153 165 LINE",
"211 246 OFFCURVE",
"264 323 OFFCURVE",
"264 471 CURVE SMOOTH",
"264 619 OFFCURVE",
"211 696 OFFCURVE",
"153 777 CURVE"
);
}
);
width = 401;
}
);
leftKerningGroup = zero.numr;
note = uni207E;
rightKerningGroup = zero.numr;
unicode = 207E;
},
{
glyphname = parenleft.case;
lastChange = "2020-09-09 07:39:48 +0000";
layers = (
{
layerId = "FB938A0F-794B-4CBD-9B18-13182D479D81";
paths = (
{
closed = 1;
nodes = (
"203 857 LINE",
"101 719 OFFCURVE",
"5 580 OFFCURVE",
"5 340 CURVE SMOOTH",
"5 100 OFFCURVE",
"101 -39 OFFCURVE",
"203 -177 CURVE",
"330 -92 LINE",
"236 40 OFFCURVE",
"203 173 OFFCURVE",
"203 340 CURVE SMOOTH",
"203 507 OFFCURVE",
"236 640 OFFCURVE",
"330 772 CURVE"
);
}
);
width = 325;
},
{
layerId = "D8724204-5FB7-4143-B54F-478BABD83301";
paths = (
{
closed = 1;
nodes = (
"241 819 LINE",
"147 685 OFFCURVE",
"69 568 OFFCURVE",
"69 340 CURVE SMOOTH",
"69 112 OFFCURVE",
"147 -5 OFFCURVE",
"241 -139 CURVE",
"256 -130 LINE",
"167 1 OFFCURVE",
"91 118 OFFCURVE",
"91 340 CURVE SMOOTH",
"91 562 OFFCURVE",
"167 679 OFFCURVE",
"256 810 CURVE"
);
}
);
width = 325;
}
);
leftKerningGroup = parenleft;
note = parenleft.case;
rightKerningGroup = parenleft;
},
{
glyphname = parenright.case;
lastChange = "2020-09-09 07:39:49 +0000";
layers = (
{
layerId = "FB938A0F-794B-4CBD-9B18-13182D479D81";
paths = (
{
closed = 1;
nodes = (
"-5 772 LINE",
"89 640 OFFCURVE",
"122 507 OFFCURVE",
"122 340 CURVE SMOOTH",
"122 173 OFFCURVE",
"89 40 OFFCURVE",
"-5 -92 CURVE",
"122 -177 LINE",
"224 -39 OFFCURVE",
"320 100 OFFCURVE",
"320 340 CURVE SMOOTH",
"320 580 OFFCURVE",
"224 719 OFFCURVE",
"122 857 CURVE"
);
}
);
width = 325;
},
{
layerId = "D8724204-5FB7-4143-B54F-478BABD83301";
paths = (
{
closed = 1;
nodes = (
"69 810 LINE",
"158 679 OFFCURVE",
"234 562 OFFCURVE",
"234 340 CURVE SMOOTH",
"234 118 OFFCURVE",
"158 1 OFFCURVE",
"69 -130 CURVE",
"84 -139 LINE",
"178 -5 OFFCURVE",
"256 112 OFFCURVE",
"256 340 CURVE SMOOTH",
"256 568 OFFCURVE",
"178 685 OFFCURVE",
"84 819 CURVE"
);
}
);
width = 325;
}
);
leftKerningGroup = parenright;
note = parenright.case;
},
{
glyphname = braceleft.case;
lastChange = "2020-09-09 07:39:49 +0000";
layers = (
{
layerId = "FB938A0F-794B-4CBD-9B18-13182D479D81";
paths = (
{
closed = 1;
nodes = (
"310 832 LINE",
"103 832 OFFCURVE",
"62 769 OFFCURVE",
"62 658 CURVE SMOOTH",
"62 505 LINE SMOOTH",
"62 445 OFFCURVE",
"51 421 OFFCURVE",
"0 421 CURVE",
"0 259 LINE",
"51 259 OFFCURVE",
"62 235 OFFCURVE",
"62 175 CURVE SMOOTH",
"62 22 LINE SMOOTH",
"62 -88 OFFCURVE",
"103 -152 OFFCURVE",
"310 -152 CURVE",
"310 -18 LINE",
"256 -18 OFFCURVE",
"247 -3 OFFCURVE",
"247 36 CURVE SMOOTH",
"247 190 LINE SMOOTH",
"247 287 OFFCURVE",
"200 326 OFFCURVE",
"125 339 CURVE",
"202 356 OFFCURVE",
"246 391 OFFCURVE",
"246 490 CURVE SMOOTH",
"246 644 LINE SMOOTH",
"246 683 OFFCURVE",
"255 698 OFFCURVE",
"310 698 CURVE"
);
}
);
width = 325;
},
{
layerId = "D8724204-5FB7-4143-B54F-478BABD83301";
paths = (
{
closed = 1;
nodes = (
"244 808 LINE",
"183 808 OFFCURVE",
"144 778 OFFCURVE",
"144 705 CURVE SMOOTH",
"144 422 LINE SMOOTH",
"144 369 OFFCURVE",
"111 350 OFFCURVE",
"64 350 CURVE",
"64 328 LINE",
"111 328 OFFCURVE",
"144 309 OFFCURVE",
"144 256 CURVE SMOOTH",
"144 -27 LINE SMOOTH",
"144 -100 OFFCURVE",
"183 -130 OFFCURVE",
"244 -130 CURVE",
"244 -112 LINE",
"188 -112 OFFCURVE",
"164 -83 OFFCURVE",
"164 -24 CURVE SMOOTH",
"164 247 LINE SMOOTH",
"164 309 OFFCURVE",
"139 332 OFFCURVE",
"88 339 CURVE",
"139 346 OFFCURVE",
"164 369 OFFCURVE",
"164 431 CURVE SMOOTH",
"164 702 LINE SMOOTH",
"164 761 OFFCURVE",
"188 790 OFFCURVE",
"244 790 CURVE"
);
}
);
width = 328;
}
);
leftKerningGroup = braceleft;
note = braceleft.case;
rightKerningGroup = braceleft;
},
{
glyphname = braceright.case;
lastChange = "2020-09-09 07:39:49 +0000";
layers = (
{
layerId = "FB938A0F-794B-4CBD-9B18-13182D479D81";
paths = (
{
closed = 1;
nodes = (
"15 698 LINE",
"70 698 OFFCURVE",
"79 683 OFFCURVE",
"79 644 CURVE SMOOTH",
"79 490 LINE SMOOTH",
"79 391 OFFCURVE",
"123 356 OFFCURVE",
"200 339 CURVE",
"125 326 OFFCURVE",
"78 287 OFFCURVE",
"78 190 CURVE SMOOTH",
"78 36 LINE SMOOTH",
"78 -3 OFFCURVE",
"69 -18 OFFCURVE",
"15 -18 CURVE",
"15 -152 LINE",
"222 -152 OFFCURVE",
"263 -88 OFFCURVE",
"263 22 CURVE SMOOTH",
"263 175 LINE SMOOTH",
"263 235 OFFCURVE",
"274 259 OFFCURVE",
"325 259 CURVE",
"325 421 LINE",
"274 421 OFFCURVE",
"263 445 OFFCURVE",
"263 505 CURVE SMOOTH",
"263 658 LINE SMOOTH",
"263 769 OFFCURVE",
"222 832 OFFCURVE",
"15 832 CURVE"
);
}
);
width = 325;
},
{
layerId = "D8724204-5FB7-4143-B54F-478BABD83301";
paths = (
{
closed = 1;
nodes = (
"84 790 LINE",
"140 790 OFFCURVE",
"164 761 OFFCURVE",
"164 702 CURVE SMOOTH",
"164 431 LINE SMOOTH",
"164 369 OFFCURVE",
"189 346 OFFCURVE",
"240 339 CURVE",
"189 332 OFFCURVE",
"164 309 OFFCURVE",
"164 247 CURVE SMOOTH",
"164 -24 LINE SMOOTH",
"164 -83 OFFCURVE",
"140 -112 OFFCURVE",
"84 -112 CURVE",
"84 -130 LINE",
"145 -130 OFFCURVE",
"184 -100 OFFCURVE",
"184 -27 CURVE SMOOTH",
"184 256 LINE SMOOTH",
"184 309 OFFCURVE",
"217 328 OFFCURVE",
"264 328 CURVE",
"264 350 LINE",
"217 350 OFFCURVE",
"184 369 OFFCURVE",
"184 422 CURVE SMOOTH",
"184 705 LINE SMOOTH",
"184 778 OFFCURVE",
"145 808 OFFCURVE",
"84 808 CURVE"
);
}
);
width = 328;
}
);
leftKerningGroup = braceright;
note = braceright.case;
},
{
glyphname = bracketleft.case;
lastChange = "2020-09-09 07:39:49 +0000";
layers = (
{
hints = (
{
horizontal = 1;
origin = "{0, 2}";
target = "{0, 5}";
type = Stem;
},
{
horizontal = 1;
origin = "{0, 6}";
target = "{0, 1}";
type = Stem;
},
{
origin = "{0, 2}";
target = "{0, 3}";
type = Stem;
},
{
origin = "{0, 2}";
target = "{0, 5}";
type = Stem;
}
);
layerId = "FB938A0F-794B-4CBD-9B18-13182D479D81";
paths = (
{
closed = 1;
nodes = (
"315 817 LINE",
"15 817 LINE",
"15 -137 LINE",
"315 -137 LINE",
"315 5 LINE",
"203 5 LINE",
"203 674 LINE",
"315 674 LINE"
);
}
);
width = 325;
},
{
hints = (
{
horizontal = 1;
origin = "{0, 5}";
target = "{0, 2}";
type = Stem;
},
{
horizontal = 1;
origin = "{0, 1}";
target = "{0, 6}";
type = Stem;
},
{
origin = "{0, 2}";
target = "{0, 5}";
type = Stem;
}
);
layerId = "D8724204-5FB7-4143-B54F-478BABD83301";
paths = (
{
closed = 1;
nodes = (
"229 786 LINE",
"103 786 LINE",
"103 -116 LINE",
"229 -116 LINE",
"229 -98 LINE",
"123 -98 LINE",
"123 768 LINE",
"229 768 LINE"
);
}
);
width = 312;
}
);
leftKerningGroup = bracketleft;
note = bracketleft.case;
rightKerningGroup = bracketleft;
},
{
glyphname = bracketright.case;
lastChange = "2020-09-09 07:39:49 +0000";
layers = (
{
hints = (
{
horizontal = 1;
origin = "{0, 6}";
target = "{0, 5}";
type = Stem;
},
{
horizontal = 1;
origin = "{0, 2}";
target = "{0, 1}";
type = Stem;
},
{
origin = "{0, 4}";
target = "{0, 7}";
type = Stem;
},
{
origin = "{0, 6}";
target = "{0, 7}";
type = Stem;
}
);
layerId = "FB938A0F-794B-4CBD-9B18-13182D479D81";
paths = (
{
closed = 1;
nodes = (
"310 817 LINE",
"10 817 LINE",
"10 675 LINE",
"122 675 LINE",
"122 6 LINE",
"10 6 LINE",
"10 -137 LINE",
"310 -137 LINE"
);
}
);
width = 325;
},
{
hints = (
{
horizontal = 1;
origin = "{0, 5}";
target = "{0, 6}";
type = Stem;
},
{
horizontal = 1;
origin = "{0, 1}";
target = "{0, 2}";
type = Stem;
},
{
origin = "{0, 4}";
target = "{0, 7}";
type = Stem;
}
);
layerId = "D8724204-5FB7-4143-B54F-478BABD83301";
paths = (
{
closed = 1;
nodes = (
"209 786 LINE",
"83 786 LINE",
"83 768 LINE",
"189 768 LINE",
"189 -98 LINE",
"83 -98 LINE",
"83 -116 LINE",
"209 -116 LINE"
);
}
);
width = 312;
}
);
leftKerningGroup = bracketright;
note = bracketright.case;
},
{
glyphname = hyphen;
lastChange = "2020-09-09 07:39:50 +0000";
layers = (
{
hints = (
{
horizontal = 1;
origin = "{0, 0}";
target = "{0, 3}";
type = Stem;
},
{
origin = "{0, 0}";
target = "{0, 1}";
type = Stem;
}
);
layerId = "FB938A0F-794B-4CBD-9B18-13182D479D81";
paths = (
{
closed = 1;
nodes = (
"35 238 LINE",
"375 238 LINE",
"375 388 LINE",
"35 388 LINE"
);
}
);
width = 410;
},
{
hints = (
{
horizontal = 1;
origin = "{0, 3}";
target = "{0, 0}";
type = Stem;
}
);
layerId = "D8724204-5FB7-4143-B54F-478BABD83301";
paths = (
{
closed = 1;
nodes = (
"78 302 LINE",
"321 302 LINE",
"321 323 LINE",
"78 323 LINE"
);
}
);
width = 399;
}
);
leftKerningGroup = periodcentered;
note = hyphen;
rightKerningGroup = periodcentered;
unicode = 002D;
},
{
glyphname = uni00AD;
lastChange = "2020-09-09 07:39:50 +0000";
layers = (
{
hints = (
{
horizontal = 1;
origin = "{0, 0}";
target = "{0, 3}";
type = Stem;
},
{
origin = "{0, 0}";
target = "{0, 1}";
type = Stem;
}
);
layerId = "FB938A0F-794B-4CBD-9B18-13182D479D81";
paths = (
{
closed = 1;
nodes = (
"35 238 LINE",
"375 238 LINE",
"375 388 LINE",
"35 388 LINE"
);
}
);
width = 410;
},
{
hints = (
{
horizontal = 1;
origin = "{0, 3}";
target = "{0, 0}";
type = Stem;
}
);
layerId = "D8724204-5FB7-4143-B54F-478BABD83301";
paths = (
{
closed = 1;
nodes = (
"78 302 LINE",
"321 302 LINE",
"321 323 LINE",
"78 323 LINE"
);
}
);
width = 399;
}
);
leftKerningGroup = periodcentered;
note = uni00AD;
rightKerningGroup = periodcentered;
unicode = 00AD;
},
{
glyphname = endash;
lastChange = "2020-09-09 07:39:50 +0000";
layers = (
{
hints = (
{
horizontal = 1;
origin = "{0, 0}";
target = "{0, 3}";
type = Stem;
},
{
origin = "{0, 0}";
target = "{0, 1}";
type = Stem;
}
);
layerId = "FB938A0F-794B-4CBD-9B18-13182D479D81";
paths = (
{
closed = 1;
nodes = (
"15 238 LINE",
"505 238 LINE",
"505 388 LINE",
"15 388 LINE"
);
}
);
width = 520;
},
{
hints = (
{
horizontal = 1;
origin = "{0, 3}";
target = "{0, 0}";
type = Stem;
}
);
layerId = "D8724204-5FB7-4143-B54F-478BABD83301";
paths = (
{
closed = 1;
nodes = (
"49 302 LINE",
"471 302 LINE",
"471 323 LINE",
"49 323 LINE"
);
}
);
width = 520;
}
);
leftKerningGroup = periodcentered;
note = endash;
rightKerningGroup = periodcentered;
unicode = 2013;
},
{
glyphname = emdash;
lastChange = "2020-09-09 07:39:50 +0000";
layers = (
{
hints = (
{
horizontal = 1;
origin = "{0, 0}";
target = "{0, 3}";
type = Stem;
}
);
layerId = "FB938A0F-794B-4CBD-9B18-13182D479D81";
paths = (
{
closed = 1;
nodes = (
"15 238 LINE",
"785 238 LINE",
"785 388 LINE",
"15 388 LINE"
);
}
);
width = 800;
},
{
hints = (
{
horizontal = 1;
origin = "{0, 3}";
target = "{0, 0}";
type = Stem;
}
);
layerId = "D8724204-5FB7-4143-B54F-478BABD83301";
paths = (
{
closed = 1;
nodes = (
"49 303 LINE",
"726 303 LINE",
"726 323 LINE",
"49 323 LINE"
);
}
);
width = 775;
}
);
leftKerningGroup = periodcentered;
note = emdash;
rightKerningGroup = periodcentered;
unicode = 2014;
},
